<?xml version="1.0" encoding="UTF-8" standalone="no"?>
<svg
   xmlns:dc="http://purl.org/dc/elements/1.1/"
   xmlns:cc="http://creativecommons.org/ns#"
   xmlns:rdf="http://www.w3.org/1999/02/22-rdf-syntax-ns#"
   xmlns:svg="http://www.w3.org/2000/svg"
   xmlns="http://www.w3.org/2000/svg"
   xmlns:sodipodi="http://sodipodi.sourceforge.net/DTD/sodipodi-0.dtd"
   xmlns:inkscape="http://www.inkscape.org/namespaces/inkscape"
   id="Layer_1"
   version="1.1"
   viewBox="0 0 100 134.68727"
   xml:space="preserve"
   sodipodi:docname="marker.svg"
   width="100"
   height="134.68727"
   inkscape:version="0.92.1 r15371"><metadata
     id="metadata4834"><rdf:RDF><cc:Work
         rdf:about=""><dc:format>image/svg+xml</dc:format><dc:type
           rdf:resource="http://purl.org/dc/dcmitype/StillImage" /></cc:Work></rdf:RDF></metadata><defs
     id="defs4832" /><sodipodi:namedview
     pagecolor="#ffffff"
     bordercolor="#666666"
     borderopacity="1"
     objecttolerance="10"
     gridtolerance="10"
     guidetolerance="10"
     inkscape:pageopacity="0"
     inkscape:pageshadow="2"
     inkscape:window-width="1920"
     inkscape:window-height="1080"
     id="namedview4830"
     showgrid="false"
     inkscape:zoom="0.4609375"
     inkscape:cx="170.30345"
     inkscape:cy="233"
     inkscape:window-x="0"
     inkscape:window-y="0"
     inkscape:window-maximized="0"
     inkscape:current-layer="Layer_1" /><style
     type="text/css"
     id="style4815">
	.st0{fill:#1B3954;}
	.st1{fill:#16ADE1;}
</style><g
     id="g4827"
     transform="matrix(0.29342426,0,0,0.29342426,-25.145448,-8.7971993)"><g
       id="g4825"><path
         class="st0"
         d="m 253.5,30 c -92.3,1.3 -167.3,77 -167.8,169.3 -0.3,47.7 19,90.9 50.4,121.9 37.9,37.6 71,79.7 98.6,125.4 l 17.2,28.4 h -77.3 c -3.9,0 -7,3.1 -7,7 0,3.9 3.1,7 7,7 h 163 c 3.9,0 7,-3.1 7,-7 0,-3.9 -3.1,-7 -7,-7 h -77.3 l 17.2,-28.4 c 27.4,-45.3 59.7,-87.4 97.6,-124.4 31.7,-30.9 51.4,-74.1 51.4,-121.9 C 426.3,105.4 348.7,28.6 253.5,30 Z m 2.5,300.4 c -71.8,0 -130.1,-58.3 -130.1,-130.1 0,-71.8 58.3,-130 130.1,-130 71.8,0 130.1,58.2 130.1,130.1 0,71.9 -58.3,130 -130.1,130 z"
         id="path4817"
         inkscape:connector-curvature="0"
         style="fill:#1b3954" /><path
         class="st0"
         d="m 369.5,479.3 c -0.2,-0.4 -0.4,-0.8 -0.6,-1.2 -0.3,-0.4 -0.6,-0.7 -0.9,-1.1 -0.3,-0.4 -0.7,-0.6 -1.1,-0.9 -0.4,-0.3 -0.8,-0.5 -1.2,-0.6 -0.4,-0.2 -0.9,-0.3 -1.3,-0.4 -0.9,-0.2 -1.8,-0.2 -2.7,0 -0.4,0.1 -0.9,0.2 -1.3,0.4 -0.4,0.2 -0.8,0.4 -1.2,0.6 -0.4,0.2 -0.7,0.5 -1.1,0.9 -0.4,0.4 -0.6,0.7 -0.9,1.1 -0.3,0.4 -0.5,0.8 -0.6,1.2 -0.2,0.4 -0.3,0.9 -0.4,1.3 -0.1,0.5 -0.1,0.9 -0.1,1.4 0,0.5 0.1,0.9 0.1,1.4 0.1,0.4 0.2,0.9 0.4,1.3 0.2,0.4 0.4,0.8 0.6,1.2 0.2,0.4 0.6,0.7 0.9,1.1 1.3,1.3 3.1,2 4.9,2 1.8,0 3.6,-0.8 5,-2 0.3,-0.3 0.6,-0.7 0.9,-1.1 0.3,-0.4 0.5,-0.8 0.6,-1.2 0.2,-0.4 0.3,-0.9 0.4,-1.3 0.1,-0.5 0.1,-0.9 0.1,-1.4 0,-0.5 0,-0.9 -0.1,-1.4 -0.1,-0.4 -0.2,-0.9 -0.4,-1.3 z"
         id="path4819"
         inkscape:connector-curvature="0"
         style="fill:#1b3954" /><g
         id="g4823"><polygon
           class="st1"
           points="176.6,166.2 176.6,234.5 221.9,234.5 221.9,279.7 290.1,279.7 290.1,234.5 335.4,234.5 335.4,166.2 290.1,166.2 290.1,120.9 221.9,120.9 221.9,166.2 "
           id="polygon4821"
           style="fill:#16ade1" /></g></g></g></svg>