<?xml version="1.0" encoding="UTF-8" standalone="no"?>
<svg
   xmlns:dc="http://purl.org/dc/elements/1.1/"
   xmlns:cc="http://creativecommons.org/ns#"
   xmlns:rdf="http://www.w3.org/1999/02/22-rdf-syntax-ns#"
   xmlns:svg="http://www.w3.org/2000/svg"
   xmlns="http://www.w3.org/2000/svg"
   xmlns:sodipodi="http://sodipodi.sourceforge.net/DTD/sodipodi-0.dtd"
   xmlns:inkscape="http://www.inkscape.org/namespaces/inkscape"
   id="Layer_1"
   version="1.1"
   viewBox="0 0 100 93.860237"
   xml:space="preserve"
   sodipodi:docname="pill.svg"
   width="100"
   height="93.860237"
   inkscape:version="0.92.1 r15371"><metadata
     id="metadata4960"><rdf:RDF><cc:Work
         rdf:about=""><dc:format>image/svg+xml</dc:format><dc:type
           rdf:resource="http://purl.org/dc/dcmitype/StillImage" /></cc:Work></rdf:RDF></metadata><defs
     id="defs4958" /><sodipodi:namedview
     pagecolor="#ffffff"
     bordercolor="#666666"
     borderopacity="1"
     objecttolerance="10"
     gridtolerance="10"
     guidetolerance="10"
     inkscape:pageopacity="0"
     inkscape:pageshadow="2"
     inkscape:window-width="1920"
     inkscape:window-height="1080"
     id="namedview4956"
     showgrid="false"
     inkscape:zoom="0.4609375"
     inkscape:cx="223.9"
     inkscape:cy="210.20002"
     inkscape:window-x="0"
     inkscape:window-y="0"
     inkscape:window-maximized="0"
     inkscape:current-layer="Layer_1" /><style
     type="text/css"
     id="style4919">
	.st0{fill:#1B3954;}
	.st1{fill:#16ADE1;}
</style><g
     id="g4953"
     transform="matrix(0.22326412,0,0,0.22326412,-7.1667783,-10.225497)"><g
       id="g4951"><path
         class="st0"
         d="M 458.7,67.1 C 444.5,52.9 425.9,45.8 407.3,45.8 c -18.6,0 -37.2,7.1 -51.4,21.3 L 286,136.9 c 18.6,5.3 42.6,24.3 60.6,42.3 10.2,10.2 36,37.7 42.3,60.6 L 458.7,170 c 28.4,-28.4 28.4,-74.5 0,-102.9 z m -93.3,39.6 -38.4,38.4 c -1.4,1.4 -3.2,2.1 -4.9,2.1 -1.8,0 -3.6,-0.7 -5,-2.1 -2.7,-2.7 -2.7,-7.2 0,-9.9 l 38.4,-38.4 c 2.7,-2.7 7.2,-2.7 9.9,0 2.7,2.7 2.7,7.2 0,9.9 z m 11.4,-13.1 c -0.4,0.1 -0.9,0.1 -1.4,0.1 -1.8,0 -3.6,-0.8 -5,-2.1 -0.3,-0.3 -0.6,-0.7 -0.9,-1.1 -0.3,-0.4 -0.5,-0.8 -0.6,-1.2 -0.2,-0.4 -0.3,-0.9 -0.4,-1.3 -0.1,-0.4 -0.1,-0.9 -0.1,-1.4 0,-0.5 0,-0.9 0.1,-1.4 0.1,-0.5 0.2,-0.9 0.4,-1.3 0.2,-0.4 0.4,-0.8 0.6,-1.2 0.3,-0.4 0.5,-0.7 0.9,-1.1 0.3,-0.3 0.7,-0.6 1.1,-0.9 0.4,-0.3 0.8,-0.5 1.2,-0.6 0.4,-0.2 0.9,-0.3 1.3,-0.4 0.9,-0.2 1.8,-0.2 2.7,0 0.5,0.1 0.9,0.2 1.3,0.4 0.4,0.2 0.8,0.4 1.2,0.6 0.4,0.3 0.7,0.6 1.1,0.9 1.3,1.3 2.1,3.1 2.1,4.9 0,0.4 0,0.9 -0.1,1.4 -0.1,0.4 -0.2,0.9 -0.4,1.3 -0.2,0.4 -0.4,0.8 -0.6,1.2 -0.3,0.4 -0.5,0.7 -0.9,1.1 -0.3,0.3 -0.7,0.6 -1.1,0.9 -0.4,0.3 -0.8,0.5 -1.2,0.6 -0.4,0.4 -0.8,0.5 -1.3,0.6 z m 67.2,61.7 -53.5,53.5 c -1.4,1.4 -3.1,2.1 -4.9,2.1 -1.8,0 -3.6,-0.7 -5,-2.1 -2.7,-2.7 -2.7,-7.2 0,-9.9 l 53.5,-53.5 c 14.8,-14.8 14.8,-38.9 0,-53.7 -2.7,-2.7 -2.7,-7.2 0,-9.9 2.7,-2.7 7.2,-2.7 9.9,0 20.2,20.2 20.2,53.2 0,73.5 z"
         id="path4921"
         inkscape:connector-curvature="0"
         style="fill:#1b3954" /><g
         id="g4925"><ellipse
           class="st1"
           cx="323"
           cy="202.7"
           rx="19.299999"
           ry="72.699997"
           transform="matrix(0.7071,-0.7071,0.7071,0.7071,-48.7182,287.7947)"
           id="ellipse4923"
           style="fill:#16ade1" /></g><path
         class="st0"
         d="M 226,136.9 156.2,67.1 C 142,52.9 123.4,45.8 104.8,45.8 86.2,45.8 67.6,52.9 53.4,67.1 25,95.5 25,141.6 53.4,170 l 69.8,69.8 c 6.3,-22.9 32.1,-50.4 42.3,-60.6 17.9,-18 41.9,-37.1 60.5,-42.3 z m -94.6,71.8 c -1.4,1.4 -3.2,2.1 -5,2.1 -1.8,0 -3.6,-0.7 -5,-2.1 L 68,155.3 C 47.8,135 47.8,102 68,81.8 c 2.7,-2.7 7.2,-2.7 9.9,0 2.7,2.7 2.7,7.2 0,9.9 -14.8,14.8 -14.8,38.9 0,53.7 l 53.5,53.5 c 2.7,2.7 2.7,7.1 0,9.8 z m 12,-120.6 c -0.1,0.4 -0.2,0.9 -0.4,1.3 -0.2,0.4 -0.4,0.8 -0.6,1.2 -0.3,0.4 -0.5,0.7 -0.9,1.1 -1.3,1.3 -3.1,2.1 -5,2.1 -0.5,0 -0.9,-0.1 -1.4,-0.1 -0.5,-0.1 -0.9,-0.2 -1.3,-0.4 -0.4,-0.2 -0.8,-0.4 -1.2,-0.6 -0.4,-0.3 -0.7,-0.6 -1.1,-0.9 -0.3,-0.3 -0.6,-0.7 -0.9,-1.1 -0.3,-0.4 -0.5,-0.8 -0.6,-1.2 -0.2,-0.4 -0.3,-0.9 -0.4,-1.3 -0.1,-0.5 -0.1,-0.9 -0.1,-1.4 0,-1.8 0.8,-3.7 2.1,-4.9 0.3,-0.3 0.7,-0.6 1.1,-0.9 0.4,-0.3 0.8,-0.5 1.2,-0.6 0.4,-0.2 0.9,-0.3 1.3,-0.4 0.9,-0.2 1.8,-0.2 2.7,0 0.5,0.1 0.9,0.2 1.3,0.4 0.4,0.2 0.8,0.4 1.2,0.6 0.4,0.3 0.7,0.6 1.1,0.9 0.3,0.3 0.6,0.7 0.9,1.1 0.3,0.4 0.5,0.8 0.6,1.2 0.2,0.4 0.3,0.9 0.4,1.3 0.1,0.4 0.1,0.9 0.1,1.4 0.1,0.3 0,0.7 -0.1,1.2 z m 3.2,8.7 c 2.7,-2.7 7.2,-2.7 9.9,0 l 38.4,38.4 c 2.7,2.7 2.7,7.2 0,9.9 -1.4,1.4 -3.2,2.1 -5,2.1 -1.8,0 -3.6,-0.7 -4.9,-2.1 l -38.4,-38.4 c -2.7,-2.7 -2.7,-7.2 0,-9.9 z"
         id="path4927"
         inkscape:connector-curvature="0"
         style="fill:#1b3954" /><g
         id="g4931"><ellipse
           class="st1"
           cx="189"
           cy="202.7"
           rx="72.699997"
           ry="19.299999"
           transform="matrix(0.7071,-0.7071,0.7071,0.7071,-87.9891,192.9856)"
           id="ellipse4929"
           style="fill:#16ade1" /></g><g
         id="g4935"><circle
           class="st1"
           cx="195.10001"
           cy="309.89999"
           r="27.700001"
           id="circle4933"
           style="fill:#16ade1" /></g><g
         id="g4939"><circle
           class="st1"
           cx="275.70001"
           cy="256.5"
           r="22.299999"
           id="circle4937"
           style="fill:#16ade1" /></g><g
         id="g4943"><circle
           class="st1"
           cx="233.89999"
           cy="431.70001"
           r="34.5"
           id="circle4941"
           style="fill:#16ade1" /></g><g
         id="g4949"><g
           id="g4947"><path
             class="st1"
             d="m 307.9,305.7 c -18.5,0 -33.5,15 -33.5,33.5 0,16.1 11.4,29.5 26.5,32.8 v -21.1 c 0,-3.9 3.1,-7 7,-7 3.9,0 7,3.1 7,7 V 372 c 15.1,-3.2 26.5,-16.7 26.5,-32.8 0,-18.5 -15,-33.5 -33.5,-33.5 z m 6.9,27.2 c -0.1,0.4 -0.2,0.9 -0.4,1.3 -0.2,0.4 -0.4,0.8 -0.6,1.2 -0.3,0.4 -0.5,0.7 -0.9,1.1 -1.3,1.3 -3.1,2 -5,2 -1.9,0 -3.7,-0.7 -5,-2 -0.3,-0.3 -0.6,-0.7 -0.9,-1.1 -0.3,-0.4 -0.5,-0.8 -0.7,-1.2 -0.2,-0.4 -0.3,-0.9 -0.4,-1.3 -0.1,-0.5 -0.1,-0.9 -0.1,-1.4 0,-1.8 0.8,-3.7 2,-5 1.6,-1.6 4,-2.4 6.3,-1.9 0.4,0.1 0.9,0.2 1.3,0.4 0.4,0.2 0.8,0.4 1.2,0.6 0.4,0.3 0.7,0.5 1.1,0.9 1.3,1.3 2,3.1 2,5 0.2,0.5 0.2,1 0.1,1.4 z"
             id="path4945"
             inkscape:connector-curvature="0"
             style="fill:#16ade1" /></g></g></g></g></svg>