<?xml version="1.0" encoding="UTF-8" standalone="no"?>
<svg
   xmlns:dc="http://purl.org/dc/elements/1.1/"
   xmlns:cc="http://creativecommons.org/ns#"
   xmlns:rdf="http://www.w3.org/1999/02/22-rdf-syntax-ns#"
   xmlns:svg="http://www.w3.org/2000/svg"
   xmlns="http://www.w3.org/2000/svg"
   xmlns:sodipodi="http://sodipodi.sourceforge.net/DTD/sodipodi-0.dtd"
   xmlns:inkscape="http://www.inkscape.org/namespaces/inkscape"
   id="b9f912f7-78f0-4597-9b17-8a6cdc2809a1"
   data-name="Ebene 1"
   viewBox="0 0 132.72 162.12"
   version="1.1"
   sodipodi:docname="cmd_head_left_side.svg"
   inkscape:version="0.92.3 (2405546, 2018-03-11)">
  <metadata
     id="metadata923">
    <rdf:RDF>
      <cc:Work
         rdf:about="">
        <dc:format>image/svg+xml</dc:format>
        <dc:type
           rdf:resource="http://purl.org/dc/dcmitype/StillImage" />
      </cc:Work>
    </rdf:RDF>
  </metadata>
  <sodipodi:namedview
     pagecolor="#ffffff"
     bordercolor="#666666"
     borderopacity="1"
     objecttolerance="10"
     gridtolerance="10"
     guidetolerance="10"
     inkscape:pageopacity="0"
     inkscape:pageshadow="2"
     inkscape:window-width="3840"
     inkscape:window-height="2092"
     id="namedview921"
     showgrid="false"
     inkscape:zoom="11.725882"
     inkscape:cx="66.360001"
     inkscape:cy="81.059998"
     inkscape:window-x="0"
     inkscape:window-y="0"
     inkscape:window-maximized="1"
     inkscape:current-layer="b9f912f7-78f0-4597-9b17-8a6cdc2809a1" />
  <defs
     id="defs892">
    <style
       id="style890">.f738cf65-3d70-4de2-96af-26b657d9f360{fill:#009640;}</style>
  </defs>
  <title
     id="title894">cmd_head_left_side</title>
  <path
     class="f738cf65-3d70-4de2-96af-26b657d9f360"
     d="M430.1,217.92l-5.87-.3-5.92.29-9.85,1.79-18.54,5.38-3.5,1.46-5,4.73c-3.86,3.58-8,7.78-8.21,8.54,0,.53,1.26,2.29,2.54,3.74l9.78-4.6a.62.62,0,1,1,.53,1.13l-10.2,4.8a.62.62,0,0,1-.73-.14c-.74-.82-3.17-3.59-3.17-4.93s4.68-5.81,8.61-9.46l5.1-4.8a.62.62,0,0,1,.19-.12l3.66-1.53,18.68-5.41,10-1.81,6.06-.3,6,.3.14,0,8.07,2.39c1,.22,23.81,5.44,27.14,6.95,3,1.38,3.75,2.82,3.91,3.3,1.23,1.85,17.16,26,17.76,30.2s0,27,0,28a.46.46,0,0,1-.05.23L477.62,310c-2.08,5.41-7.53,19.81-7.77,21.48-.17,1.2,4.11,10.21,8.34,18.23a.64.64,0,0,1-.26.85.66.66,0,0,1-.3.07.61.61,0,0,1-.55-.34c-1.47-2.78-8.78-16.8-8.47-19s7.53-20.95,7.85-21.77l9.56-22.1c0-1.84.57-23.75,0-27.7-.47-3.33-12.87-22.61-17.61-29.76a.72.72,0,0,1-.09-.2s-.37-1.27-3.25-2.58c-3.21-1.45-26.66-6.81-26.94-6.87Z"
     transform="translate(-354.82 -216.38)"
     id="path896"
     style="fill:#999999" />
  <path
     class="f738cf65-3d70-4de2-96af-26b657d9f360"
     d="M355.94,308.14a4.73,4.73,0,0,0,3.12,2.9,21.91,21.91,0,0,0,6.21.26.85.85,0,0,1,.55.15s.1.09.1.32a8.71,8.71,0,0,0,.08,1.1,8.49,8.49,0,0,1-.05,2.5,8.17,8.17,0,0,1-2.21,3.76.21.21,0,0,1,0,.06l0,.06-.07.14a.14.14,0,0,0,0,.06.55.55,0,0,0,0,.22h0s0,0,0,.05a.45.45,0,0,0,0,.11,25.71,25.71,0,0,1,1.15,3.3,5.29,5.29,0,0,0,2.53,3,5.43,5.43,0,0,0-1.34,2.42c-.34,1.71,1.14,3.85,1.31,4.09l2.14,2.45a.34.34,0,0,0,.09.08,1.13,1.13,0,0,1,.14,1.58,9.29,9.29,0,0,1-1.19,1.43c-.89.93-1.9,2-1.9,3.4,0,.42,0,.86-.07,1.31a8.16,8.16,0,0,0,.7,4.91,5.24,5.24,0,0,0,4.38,4.24,30.89,30.89,0,0,0,7.07,1.57c5,.62,12.8.09,16.55-.17l.74-.05c3.21-.21,5,.23,6.34,1.58a7.4,7.4,0,0,1,1.81,2.77c.08.7.87,7.49.87,9.12a8.21,8.21,0,0,0,1.6,4c.32.51.64,1,.89,1.54a49.24,49.24,0,0,0,4.26,5.85.64.64,0,0,0,.88.08.62.62,0,0,0,.08-.88,49.42,49.42,0,0,1-4.1-5.61c-.28-.55-.61-1.1-.94-1.63a7.28,7.28,0,0,1-1.42-3.37c0-1.78-.85-9-.88-9.32,0,0,0-.07,0-.1a8.67,8.67,0,0,0-2.14-3.36c-1.64-1.64-3.69-2.18-7.31-1.94l-.74.05c-3.72.26-11.45.78-16.32.18-1.16-.15-2.17-.32-3-.49a88.71,88.71,0,0,0,19.74-4.19c2-.7,4-1.34,6-2,7.56-2.42,14.08-4.51,17.76-8.47l6-6.51c-1.55,2.32-3.31,4.84-4.76,6.65-3.45,4.32-14.58,14.8-14.69,14.91a.63.63,0,0,0,0,.88.63.63,0,0,0,.89,0c.46-.43,11.3-10.65,14.81-15,3.37-4.21,8.3-12.09,8.73-12.77.24-.22,1-1.35,1-5.8,0-3.24.08-6.26.14-7.79l.44.31a10.06,10.06,0,0,1,1,.85c1,.92,2.07,1.87,4.3.76s12.36-9.15,13.32-11.07c.08-.15,7.67-15.67,7-17.7-1.6-4.81-3.88-10.66-5.63-11.18s-9.49-1.18-10.84-.06c-1.06.89-5.61,5.77-5.8,6a.64.64,0,0,0,0,.89.63.63,0,0,0,.89,0c1.61-1.73,4.88-5.19,5.68-5.86s7.74-.29,9.68.3c.73.21,2.66,3.93,4.81,10.38.24,1.38-5.11,13.11-6.93,16.74-.78,1.58-10.39,9.33-12.76,10.51-1.47.73-1.92.32-2.9-.57a14.15,14.15,0,0,0-1.16-.95c-1.57-1.09-1.85-1.29-2.26-.8a.64.64,0,0,0-.12.52c0,.67-.17,4.54-.17,8.79,0,4.09-.68,4.95-.69,5l-11,11.84c-3.46,3.72-9.84,5.76-17.23,8.13-1.95.62-4,1.27-6,2a82.15,82.15,0,0,1-22.93,4.31l-.32,0a1.58,1.58,0,0,1-.32-.14.65.65,0,0,0-.51,0,4.27,4.27,0,0,1-2.6-3.18.68.68,0,0,0-.07-.2,6.94,6.94,0,0,1-.59-4.28c0-.49.07-1,.07-1.41,0-.91.75-1.7,1.55-2.54a9.56,9.56,0,0,0,1.36-1.64,2.37,2.37,0,0,0-.4-3.18l-1.64-1.87c.33,0,.68,0,1,0l.6,0c1-.06,2.59-.87,4.74-2,.62-.33,1.19-.63,1.65-.85a30.24,30.24,0,0,0,4.7-3.37.63.63,0,0,0,.14-.79.64.64,0,0,0-.75-.28,4.24,4.24,0,0,1-3.39-.58,19.32,19.32,0,0,1-2.67-2.13,13.31,13.31,0,0,0-3.08-2.31c-1.62-.74-3.77-1.59-4.8-1.49l-1.1.14a7.37,7.37,0,0,0,1.44-3.15,9.66,9.66,0,0,0,.06-2.82,8.8,8.8,0,0,1-.07-1,1.59,1.59,0,0,0-.51-1.24,2.09,2.09,0,0,0-1.5-.47,21.43,21.43,0,0,1-5.76-.22,3.54,3.54,0,0,1-2.29-2.13c-.38-.77-1.22-2.74-1-3.8s1.9-3.22,2.53-4l3.64-5.15,3.64-6.36,3.28-5.07a.65.65,0,0,0,.1-.41l-.3-2.7,0-.13a30.34,30.34,0,0,1-1.47-7.91c0-3.35,2.55-6.79,2.58-6.83a.71.71,0,0,0,.11-.25l.6-3a.76.76,0,0,0,0-.15,67.94,67.94,0,0,1,0-7.95c.2-1,3-5.37,4.71-7.88a.63.63,0,0,0-1-.7c-.46.68-4.58,6.75-4.9,8.33a67.63,67.63,0,0,0,0,8.18l-.56,2.79c-.48.68-2.74,4-2.74,7.46a31.2,31.2,0,0,0,1.51,8.24l.27,2.42-3.18,4.92-3.62,6.33-3.57,5.05c-.22.24-2.45,2.86-2.78,4.48S355.72,307.71,355.94,308.14Zm9.12,11.93c.62-.09,1.45-.22,1.9-.27s1.76.3,4.16,1.39a12.64,12.64,0,0,1,2.77,2.1,20.57,20.57,0,0,0,2.85,2.27,5.88,5.88,0,0,0,2.35.84,19.15,19.15,0,0,1-2.93,2c-.48.23-1.07.54-1.7.87a18.11,18.11,0,0,1-4.24,1.87,13.49,13.49,0,0,1-2.49-.13,3.8,3.8,0,0,1-.55-2.2,4.74,4.74,0,0,1,1.58-2.33.64.64,0,0,0,.11-.16c.8.07,2.43.19,3.76.19a6.43,6.43,0,0,0,1.77-.16.62.62,0,1,0-.43-1.17,26.18,26.18,0,0,1-5.17-.12.62.62,0,0,0-.51.21,4.43,4.43,0,0,1-2.33-2.46C365.62,321.59,365.29,320.67,365.06,320.07Z"
     transform="translate(-354.82 -216.38)"
     id="path898"
     style="fill:#999999" />
  <path
     class="f738cf65-3d70-4de2-96af-26b657d9f360"
     d="M369,275.88a.61.61,0,0,1,.28-.83s.71-.36,1.95-.89a81.73,81.73,0,0,1,9.56-2.31c1.62-.2,3.32.93,5.47,2.37s8.29,6.08,8.55,6.28a.61.61,0,0,1,.12.87.6.6,0,0,1-.5.25.63.63,0,0,1-.37-.12c-.07-.05-6.45-4.88-8.5-6.24s-3.45-2.31-4.62-2.17a85.49,85.49,0,0,0-9.22,2.22c-1.19.51-1.87.85-1.88.85A.62.62,0,0,1,369,275.88Z"
     transform="translate(-354.82 -216.38)"
     id="path900"
     style="fill:#808080" />
  <path
     class="f738cf65-3d70-4de2-96af-26b657d9f360"
     d="M446.58,277.45c-.91,0-4,2.38-5.68,3.66-.88.67-1.57,1.2-2,1.46a17.64,17.64,0,0,1-2.36,1.27.63.63,0,0,1-.47-1.16,14.2,14.2,0,0,0,2.16-1.17c.38-.23,1.08-.77,1.9-1.39,2.89-2.22,5.21-3.92,6.44-3.92,2,0,4.6,2.66,5.74,4.46,1.26,2,1.1,5.63-.45,10.28a75.94,75.94,0,0,1-3,7.55.62.62,0,0,1-.56.35.53.53,0,0,1-.27-.06.63.63,0,0,1-.3-.83,72,72,0,0,0,2.93-7.41c1.41-4.22,1.62-7.58.59-9.21C450,279.34,447.72,277.45,446.58,277.45Z"
     transform="translate(-354.82 -216.38)"
     id="path902"
     style="fill:#999999" />
  <path
     class="f738cf65-3d70-4de2-96af-26b657d9f360"
     d="M441.71,284.75a6.33,6.33,0,0,0-3.83,1.64.62.62,0,0,1-1-.69,7.17,7.17,0,0,1,4.87-2.2c2.37,0,3.61,2.07,4,2.74.57.95.25,5.2.09,7a.62.62,0,0,1-.62.57h-.06a.63.63,0,0,1-.57-.68c.24-2.6.34-5.73.09-6.23A3.58,3.58,0,0,0,441.71,284.75Z"
     transform="translate(-354.82 -216.38)"
     id="path904"
     style="fill:#999999" />
  <path
     class="f738cf65-3d70-4de2-96af-26b657d9f360"
     d="M436.4,301.27a2.77,2.77,0,0,1-.49,0,1.82,1.82,0,0,1-1.2-.38,3.09,3.09,0,0,1-.93-2.3c-.11-1.09.71-2.36,1.57-3.71.68-1.05,1.45-2.25,1.39-2.9-.13-1.26-1.82-3.44-2.46-4.17a.63.63,0,1,1,.94-.83c.26.3,2.57,3,2.76,4.87.11,1.09-.71,2.36-1.57,3.71-.68,1.06-1.45,2.25-1.39,2.9s.23,1.28.46,1.45c0,0,.2.16.74.09s3.49-2.72,5.73-5a.63.63,0,0,1,.89,0,.62.62,0,0,1,0,.88C441.34,297.43,437.69,301.09,436.4,301.27Z"
     transform="translate(-354.82 -216.38)"
     id="path906"
     style="fill:#999999" />
  <path
     class="f738cf65-3d70-4de2-96af-26b657d9f360"
     d="M376.5,287.06l.71,1.4a.6.6,0,0,0-.3.42c-.17.84-.13,2.39,1.11,2.8l.36.13a8.63,8.63,0,0,0,2.89.61,5.12,5.12,0,0,0,1.47-.21,22.8,22.8,0,0,0,4.52-2.34.63.63,0,0,0,.17-.87.62.62,0,0,0-.86-.17,22.24,22.24,0,0,1-4.19,2.18,5.66,5.66,0,0,1-3.58-.38l-.39-.14c-.26-.08-.33-.52-.32-.9a21.39,21.39,0,0,0,5.76-1.06c1.28-.53,1.82-.93,2-1.48a1.47,1.47,0,0,0-.44-1.32,14.31,14.31,0,0,0-5.39-3.24,5.14,5.14,0,0,0-3.76.26,9.1,9.1,0,0,1-.85-2.2,6.22,6.22,0,0,1,2.94-.15c.93.12,6.55,3,9.87,4.8A.63.63,0,0,0,389,285a.63.63,0,0,0-.25-.85c-1.47-.79-8.88-4.76-10.31-4.94-.71-.09-3.07-.31-4,.48a1.1,1.1,0,0,0-.39.84,11.18,11.18,0,0,0,1.29,3.42.69.69,0,0,0,.41.32h.1A7.5,7.5,0,0,0,376.5,287.06Zm.66-2.95a.62.62,0,0,0-.12-.35,3.76,3.76,0,0,1,2.54-.08,13.92,13.92,0,0,1,4.75,2.74c.09.13.19.25.24.33a4.78,4.78,0,0,1-1.2.63,18.64,18.64,0,0,1-4.68.91l-.31-.29-.76-1.5A6.65,6.65,0,0,1,377.16,284.11Z"
     transform="translate(-354.82 -216.38)"
     id="path908"
     style="fill:#999999" />
  <path
     class="f738cf65-3d70-4de2-96af-26b657d9f360"
     d="M372.32,310.59a.66.66,0,0,1-.3.07.62.62,0,0,1-.29-1.17A5.24,5.24,0,0,0,373.9,306a17.91,17.91,0,0,0-.62-4.8.63.63,0,1,1,1.22-.3c.09.39.91,3.82.62,5.33A6.41,6.41,0,0,1,372.32,310.59Z"
     transform="translate(-354.82 -216.38)"
     id="path910"
     style="fill:#999999" />
  <path
     class="f738cf65-3d70-4de2-96af-26b657d9f360"
     d="M364.51,307.65a10.33,10.33,0,0,1,3.57,1.85c.31.22.58.41.78.52a.63.63,0,0,1,.25.85.62.62,0,0,1-.85.25c-.24-.13-.54-.35-.9-.6a6,6,0,0,0-7.11-1,.62.62,0,0,1-.43-1.17A10.82,10.82,0,0,1,364.51,307.65Z"
     transform="translate(-354.82 -216.38)"
     id="path912"
     style="fill:#999999" />
  <path
     class="f738cf65-3d70-4de2-96af-26b657d9f360"
     d="M423.88,356.17c1.52-7.61,3.72-20.77,3.74-20.9a.64.64,0,0,1,.72-.52.62.62,0,0,1,.51.72c0,.14-2.22,13.31-3.74,20.94s-4.6,20.8-4.63,20.94a.63.63,0,0,1-.61.48l-.14,0a.62.62,0,0,1-.47-.75C419.29,376.93,422.36,363.77,423.88,356.17Z"
     transform="translate(-354.82 -216.38)"
     id="path914"
     style="fill:#999999" />
  <path
     class="f738cf65-3d70-4de2-96af-26b657d9f360"
     d="M452.85,304.2a.62.62,0,0,1,.83.3c0,.05,2.44,5.09,4.82,9.2s5.93,11.19,6,11.26a.62.62,0,0,1-.27.84.58.58,0,0,1-.28.07.63.63,0,0,1-.56-.35c0-.07-3.55-7.08-5.93-11.19s-4.84-9.24-4.87-9.3A.62.62,0,0,1,452.85,304.2Z"
     transform="translate(-354.82 -216.38)"
     id="path916"
     style="fill:#999999" />
  <path
     class="f738cf65-3d70-4de2-96af-26b657d9f360"
     d="M370,286a8.62,8.62,0,0,0,.6-2,.63.63,0,0,1,.72-.51.64.64,0,0,1,.52.72,10.33,10.33,0,0,1-.72,2.38c-.45.89-8,12.4-8.85,13.71a.61.61,0,0,1-.52.29.6.6,0,0,1-.34-.11.62.62,0,0,1-.18-.86C364.57,294.46,369.68,286.61,370,286Z"
     transform="translate(-354.82 -216.38)"
     id="path918"
     style="fill:#999999" />
</svg>
