<?xml version="1.0" encoding="UTF-8" standalone="no"?>
<svg
   xmlns:dc="http://purl.org/dc/elements/1.1/"
   xmlns:cc="http://creativecommons.org/ns#"
   xmlns:rdf="http://www.w3.org/1999/02/22-rdf-syntax-ns#"
   xmlns:svg="http://www.w3.org/2000/svg"
   xmlns="http://www.w3.org/2000/svg"
   xmlns:sodipodi="http://sodipodi.sourceforge.net/DTD/sodipodi-0.dtd"
   xmlns:inkscape="http://www.inkscape.org/namespaces/inkscape"
   id="be6eca6b-17cd-44da-ab7f-d5ebc9f4c61d"
   data-name="Ebene 1"
   viewBox="0 0 999.99999 1219.9695"
   version="1.1"
   sodipodi:docname="cmd_head_right_side_big.svg"
   inkscape:version="0.92.1 r15371"
   width="1000"
   height="1219.9695">
  <metadata
     id="metadata923">
    <rdf:RDF>
      <cc:Work
         rdf:about="">
        <dc:format>image/svg+xml</dc:format>
        <dc:type
           rdf:resource="http://purl.org/dc/dcmitype/StillImage" />
        <dc:title>cmd_head_right_side</dc:title>
      </cc:Work>
    </rdf:RDF>
  </metadata>
  <sodipodi:namedview
     pagecolor="#ffffff"
     bordercolor="#666666"
     borderopacity="1"
     objecttolerance="10"
     gridtolerance="10"
     guidetolerance="10"
     inkscape:pageopacity="0"
     inkscape:pageshadow="2"
     inkscape:window-width="1920"
     inkscape:window-height="1025"
     id="namedview921"
     showgrid="false"
     inkscape:zoom="0.69591907"
     inkscape:cx="500"
     inkscape:cy="609.98476"
     inkscape:window-x="0"
     inkscape:window-y="31"
     inkscape:window-maximized="1"
     inkscape:current-layer="be6eca6b-17cd-44da-ab7f-d5ebc9f4c61d" />
  <defs
     id="defs892">
    <style
       id="style890">.a49a3fc0-3d13-452c-8b40-9675232c5beb{fill:#009640;}</style>
  </defs>
  <title
     id="title894">cmd_head_right_side</title>
  <path
     class="a49a3fc0-3d13-452c-8b40-9675232c5beb"
     d="m 432.80225,11.6024 44.22448,-2.2602 44.60118,2.1848 74.1344,13.4859 139.7554,40.53279 26.36894,10.99961 37.66992,35.63575 c 29.08118,26.97166 60.27187,58.61439 61.85401,64.34022 0,3.99301 -9.49282,17.25282 -19.13632,28.1771 L 768.5919,170.04204 a 4.7016525,4.7016525 0 0 0 -3.99301,8.5134 l 76.84663,36.16312 a 4.6710698,4.6710698 0 0 0 5.49981,-1.05475 c 5.57514,-6.17787 23.88272,-27.04701 23.88272,-37.14254 0,-10.09554 -35.25904,-43.77245 -64.86759,-71.27149 L 767.53714,69.08666 a 4.6710698,4.6710698 0 0 0 -1.43146,-0.90408 L 738.5313,56.6556 597.79649,15.8967 522.45665,2.2602 476.80071,0 431.59681,2.2602 h -1.05476 l -60.79924,18.0062 c -7.53399,1.6575 -179.38415,40.98492 -204.47232,52.36123 -22.60195,10.3969 -28.25244,21.24584 -29.45788,24.86215 -9.2668,13.93787 -129.2831575,195.88357 -133.8035477,227.5263 -4.5203901,31.64273 0,203.41756 0,210.95154 a 4.5203902,4.5203902 0 0 0 0.452039,1.73282 L 74.787344,705.33158 c 15.670686,40.75885 56.730896,149.24821 58.539056,161.82996 1.28078,9.04078 -30.96467,76.92198 -62.833426,137.34456 a 4.8217495,4.8217495 0 0 0 1.958835,6.4039 4.8970893,4.8970893 0 0 0 2.184856,0.5273 4.6710698,4.6710698 0 0 0 4.21903,-2.5615 C 89.930651,987.9313 145.00407,882.30485 142.66854,865.73009 140.333,849.15532 85.93764,707.89313 83.526765,701.71526 L 11.501882,535.21423 c 0,-13.86253 -4.294371,-178.93211 0,-208.69135 3.540972,-25.08817 96.962368,-170.34337 132.673458,-224.21135 a 5.4244682,5.4244682 0 0 0 0.67805,-1.5068 c 0,0 2.78758,-9.56816 24.48545,-19.43768 24.18409,-10.92427 200.856,-51.30645 202.96552,-51.75845 z"
     id="path896"
     style="fill:#999999;stroke-width:7.53398371"
     inkscape:connector-curvature="0" />
  <path
     class="a49a3fc0-3d13-452c-8b40-9675232c5beb"
     d="m 999.58383,657.64146 c -2.48621,-12.20505 -19.28699,-31.94409 -20.94447,-33.75225 l -26.89632,-38.04661 -27.27302,-47.69012 -23.95807,-37.0672 2.03418,-18.23224 a 235.06029,235.06029 0 0 0 11.37631,-62.08002 c 0,-25.84157 -17.0268,-51.08041 -20.64311,-56.20352 l -4.21904,-21.01982 a 509.52331,509.52331 0 0 0 0,-61.62798 c -2.41087,-11.9037 -33.45088,-57.63498 -36.91651,-62.75809 a 4.7464097,4.7464097 0 0 0 -7.53399,5.27379 c 12.95845,18.9103 33.97827,51.75847 35.48506,59.36779 a 511.85885,511.85885 0 0 1 0,59.89517 5.7258275,5.7258275 0 0 0 0,1.1301 l 4.52039,22.60195 a 5.3491284,5.3491284 0 0 0 0.82874,1.8835 c 0,0 19.43768,26.21826 19.43768,51.45711 a 228.58106,228.58106 0 0 1 -11.07496,59.59381 v 0.97941 l -2.26019,20.34176 a 4.8970893,4.8970893 0 0 0 0.7534,3.08893 l 24.71146,38.1973 27.4237,47.91613 27.4237,38.80002 c 4.74641,5.49981 17.40351,21.47185 19.06098,30.13593 1.65748,8.66409 -4.74641,22.60196 -7.53398,28.62914 a 26.670302,26.670302 0 0 1 -17.25282,16.04739 161.45327,161.45327 0 0 1 -43.39575,1.65747 15.746026,15.746026 0 0 0 -11.30097,3.54098 11.979034,11.979034 0 0 0 -3.84234,9.34214 66.299056,66.299056 0 0 1 -0.52737,7.53398 72.778282,72.778282 0 0 0 0.45203,21.24583 55.525459,55.525459 0 0 0 10.84894,23.73205 l -8.28738,-1.05476 c -7.53398,-0.75339 -23.95807,5.65049 -36.16312,11.22564 a 100.27732,100.27732 0 0 0 -23.20467,17.4035 145.55656,145.55656 0 0 1 -20.11574,16.04739 31.94409,31.94409 0 0 1 -25.5402,4.36971 4.8217495,4.8217495 0 0 0 -5.65049,2.10951 4.7464097,4.7464097 0 0 0 1.05476,5.95185 227.82766,227.82766 0 0 0 35.40972,25.38952 c 3.46563,1.65748 7.53398,3.91768 12.43107,6.40389 16.19807,8.58874 28.32778,14.69127 35.71109,15.06797 h 4.52039 c 2.71223,0 5.34912,0 7.53398,0 l -12.35573,14.08855 a 17.855541,17.855541 0 0 0 -3.0136,23.95806 68.70993,68.70993 0 0 0 9.79418,11.30098 c 5.95185,6.32855 11.67768,12.28039 11.67768,19.13632 0,3.39029 0,6.93126 0.52738,10.62292 a 52.285846,52.285846 0 0 1 -4.44506,32.24545 5.1231088,5.1231088 0 0 0 -0.52737,1.50679 32.17011,32.17011 0 0 1 -19.58836,23.95812 4.8970893,4.8970893 0 0 0 -3.84233,0 11.903694,11.903694 0 0 1 -2.41088,1.0547 h -2.41087 A 618.46471,618.46471 0 0 1 696.71769,979.86994 C 681.64973,974.59615 666.20506,969.69906 651.51379,964.80197 595.83765,946.94643 547.77084,931.5771 521.70325,903.55068 l -82.87382,-89.20236 c 0,0 -5.19844,-6.55457 -5.19844,-37.66992 0,-32.01943 -1.05476,-61.17595 -1.28078,-66.22372 a 4.8217495,4.8217495 0 0 0 -0.90408,-3.91767 c -3.08893,-3.69165 -5.19845,-2.18485 -17.0268,6.02719 a 106.60587,106.60587 0 0 0 -8.73942,7.15728 c -7.53399,6.70525 -10.7736,9.79418 -21.84856,4.29438 -17.85554,-8.89011 -90.4078,-67.27848 -96.13363,-79.18217 -13.71185,-27.34836 -54.01866,-115.72199 -52.2105,-126.11889 16.19806,-48.59419 30.73865,-76.62061 36.23846,-78.20275 14.61593,-4.44505 66.75109,-6.78058 72.92896,-2.26019 6.17787,4.52039 30.66331,31.11535 42.79303,44.14914 a 4.7464097,4.7464097 0 0 0 6.70524,0 4.8217495,4.8217495 0 0 0 0,-6.70524 c -1.50679,-1.5068 -35.71108,-38.27264 -43.6971,-45.20391 -10.17088,-8.43806 -69.23731,-3.31495 -81.66839,0.45204 -12.43107,3.76699 -30.13593,47.99148 -42.41632,84.22994 -5.12311,15.06797 52.05982,132.22141 52.73788,133.35151 7.53399,14.46525 82.42178,74.43576 100.35266,83.4012 16.80079,8.36272 24.71147,1.20544 32.39613,-5.72583 a 75.791875,75.791875 0 0 1 7.53399,-6.40389 l 3.31495,-2.33553 c 0.45204,11.52699 1.05476,34.27962 1.05476,58.68973 0,33.52623 5.80117,42.03963 7.53398,43.69711 3.16427,5.12311 40.38215,64.4909 65.77168,96.20897 26.44428,33.07419 108.11266,110.0715 111.5783,113.0098 a 4.7464097,4.7464097 0 0 0 6.70524,0 4.7464097,4.7464097 0 0 0 0,-6.63 C 614.52193,1021.6082 530.6687,942.65206 504.67645,910.10525 493.67684,896.46874 480.49236,877.4831 468.81469,860.00426 l 45.2039,49.04623 c 27.64972,30.13594 76.84663,45.5806 133.72821,63.81284 15.06797,4.67107 30.13593,9.49282 45.2039,15.06797 a 668.33969,668.33969 0 0 0 148.72084,31.5674 c -6.55457,1.2808 -14.16389,2.5615 -22.60195,3.6916 -36.6905,4.5204 -94.9282,0.6028 -122.95462,-1.3561 l -5.57514,-0.3767 c -27.27302,-1.8081 -42.71769,2.2602 -55.07342,14.616 a 65.319638,65.319638 0 0 0 -16.12273,25.3141 c 0,0 0,0.4521 0,0.7534 0,2.2602 -6.6299,56.8063 -6.6299,70.2168 a 54.847401,54.847401 0 0 1 -10.69826,25.3895 c -2.48621,3.993 -4.97243,8.1367 -7.08194,12.2804 a 372.32947,372.32947 0 0 1 -30.88934,42.2656 4.6710698,4.6710698 0 0 0 0.60272,6.6299 4.8217495,4.8217495 0 0 0 6.62991,-0.6027 370.97335,370.97335 0 0 0 32.09477,-44.0738 c 1.88349,-3.767 4.29437,-7.534 6.6299,-11.6023 a 61.326627,61.326627 0 0 0 12.12972,-30.136 c 0,-12.2803 5.95184,-63.4361 6.55456,-68.7099 a 55.751479,55.751479 0 0 1 13.93787,-19.4377 c 10.17088,-10.1708 23.58137,-13.4858 47.76546,-11.9037 l 5.49981,0.3767 c 28.32777,1.9589 87.16819,5.9519 124.76276,1.2808 a 232.72475,232.72475 0 0 0 53.26527,-12.3557 39.478074,39.478074 0 0 0 32.99885,-31.9441 61.477306,61.477306 0 0 0 5.27378,-36.99186 c 0,-3.3903 -0.52737,-6.70525 -0.52737,-9.86952 0,-10.62292 -7.53399,-18.60894 -14.31457,-25.61555 a 62.306044,62.306044 0 0 1 -8.96544,-10.77359 8.5134015,8.5134015 0 0 1 1.05475,-11.9037 2.5615544,2.5615544 0 0 0 0.67806,-0.60271 l 16.12273,-18.45826 c 1.28077,-1.80816 12.43107,-17.93089 9.86952,-30.814 a 40.909531,40.909531 0 0 0 -10.09554,-18.23224 39.854773,39.854773 0 0 0 19.06098,-22.60195 193.69872,193.69872 0 0 1 8.66408,-24.86214 3.3902926,3.3902926 0 0 0 0,-0.82874 c 0,0 0,0 0,-0.3767 v 0 a 6.1025267,6.1025267 0 0 0 0,-1.65748 1.0547577,1.0547577 0 0 0 0,-0.45204 6.8559251,6.8559251 0 0 0 -0.52738,-1.05476 v -0.45203 a 1.5821366,1.5821366 0 0 1 0,-0.45204 61.552646,61.552646 0 0 1 -16.6501,-28.32778 63.963521,63.963521 0 0 1 0,-18.83496 65.620997,65.620997 0 0 0 0.60271,-8.28738 c 0,-1.73282 0.52738,-2.2602 0.7534,-2.41088 a 6.4038861,6.4038861 0 0 1 4.14369,-1.13009 165.06958,165.06958 0 0 0 46.78604,-1.95884 35.635742,35.635742 0 0 0 23.50603,-21.84855 c 0.82874,-2.93826 9.64349,-21.32118 7.23262,-33.37555 z m -83.55187,144.04977 a 33.375547,33.375547 0 0 1 -17.55419,18.5336 4.6710698,4.6710698 0 0 0 -3.84233,-1.58214 197.23969,197.23969 0 0 1 -38.95069,0.90408 4.6956132,4.6956132 0 0 0 -3.23962,8.81476 48.443515,48.443515 0 0 0 13.33516,1.20544 c 10.02019,0 22.60195,-0.90408 28.32777,-1.43146 a 4.8217495,4.8217495 0 0 0 0.82874,1.20544 35.711082,35.711082 0 0 1 11.9037,17.55418 28.629138,28.629138 0 0 1 -4.14369,16.57476 101.63344,101.63344 0 0 1 -18.75962,0.97942 136.44044,136.44044 0 0 1 -31.94409,-14.08855 c -4.74641,-2.48621 -9.19146,-4.82175 -12.80778,-6.55457 a 144.27579,144.27579 0 0 1 -22.07457,-15.06796 44.299824,44.299824 0 0 0 17.70486,-6.32855 154.97404,154.97404 0 0 0 21.47186,-17.10214 95.229553,95.229553 0 0 1 20.86913,-15.82137 c 18.08156,-8.21204 28.10176,-10.77359 31.34137,-10.47223 3.23962,0.30135 9.6435,1.35611 14.31457,2.03417 -1.73281,4.67107 -4.21903,11.60234 -6.78058,20.64312 z"
     id="path898"
     style="fill:#999999;stroke-width:7.53398371"
     inkscape:connector-curvature="0" />
  <path
     class="a49a3fc0-3d13-452c-8b40-9675232c5beb"
     d="m 893.43001,448.27206 a 4.6710698,4.6710698 0 0 0 -2.10952,-6.25321 c 0,0 -5.34913,-2.71224 -14.69127,-6.70525 a 615.75248,615.75248 0 0 0 -72.02488,-17.4035 c -12.20505,-1.5068 -25.01283,7.00661 -41.21089,17.85554 -16.19807,10.84894 -62.45673,45.80662 -64.41556,47.31342 a 4.59573,4.59573 0 0 0 -0.90408,6.55457 4.5203902,4.5203902 0 0 0 3.76699,1.88349 4.7464097,4.7464097 0 0 0 2.78758,-0.90408 c 0.52738,-0.3767 48.59419,-36.76584 64.03886,-47.01205 15.44466,-10.24622 25.99224,-17.40351 34.807,-16.34875 a 644.08026,644.08026 0 0 1 69.46333,16.72544 c 8.96544,3.84234 14.08855,6.40389 14.16389,6.40389 a 4.6710698,4.6710698 0 0 0 6.32855,-2.10951 z"
     id="path900"
     style="fill:#999999;stroke-width:7.53398371"
     inkscape:connector-curvature="0" />
  <path
     class="a49a3fc0-3d13-452c-8b40-9675232c5beb"
     d="m 308.6422,460.10041 c 6.78058,0 30.13593,17.93088 42.79303,27.57438 6.6299,5.04777 11.82835,9.04078 15.06796,10.99962 a 128.07772,128.07772 0 0 0 17.7802,9.56815 4.7464097,4.7464097 0 0 0 3.54098,-8.73942 109.39344,109.39344 0 0 1 -16.34875,-8.81476 c -2.78757,-1.73281 -8.06136,-5.80116 -14.23923,-10.47223 -21.77321,-16.72545 -39.25205,-29.53322 -48.51885,-29.53322 -15.06797,0 -34.65633,20.0404 -43.24507,33.60157 -9.49282,15.06796 -8.28738,42.41632 3.39029,77.44935 a 572.13071,572.13071 0 0 0 22.60196,56.88157 4.6710698,4.6710698 0 0 0 4.21903,2.6369 3.9930113,3.9930113 0 0 0 2.03417,-0.45204 4.7464097,4.7464097 0 0 0 2.2602,-6.25321 542.44682,542.44682 0 0 1 -22.07457,-55.82682 c -10.62292,-31.79341 -12.20506,-57.10759 -4.44506,-69.38798 9.41748,-14.99263 26.59497,-29.23186 35.18371,-29.23186 z"
     id="path902"
     style="fill:#999999;stroke-width:7.53398371"
     inkscape:connector-curvature="0" />
  <path
     class="a49a3fc0-3d13-452c-8b40-9675232c5beb"
     d="m 345.3327,515.09849 a 47.690116,47.690116 0 0 1 28.85516,12.35573 4.6710698,4.6710698 0 0 0 6.55456,1.28078 4.7464097,4.7464097 0 0 0 1.28078,-6.47923 54.018662,54.018662 0 0 0 -36.6905,-16.57476 c -17.85554,0 -27.19768,15.59535 -30.13594,20.64312 -4.29437,7.15728 -1.88349,39.17671 -0.67805,52.73788 a 4.6710698,4.6710698 0 0 0 4.67107,4.29437 h 0.45203 a 4.7464097,4.7464097 0 0 0 4.29437,-5.12311 c -1.80815,-19.58835 -2.56155,-43.16972 -0.67805,-46.93672 a 26.971661,26.971661 0 0 1 22.07457,-16.19806 z"
     id="path904"
     style="fill:#999999;stroke-width:7.53398371"
     inkscape:connector-curvature="0" />
  <path
     class="a49a3fc0-3d13-452c-8b40-9675232c5beb"
     d="m 385.71485,639.5599 a 20.869135,20.869135 0 0 0 3.69165,0 13.71185,13.71185 0 0 0 9.04078,-2.86291 23.280009,23.280009 0 0 0 7.00661,-17.32817 c 0.82874,-8.21204 -5.34913,-17.7802 -11.82836,-27.95108 -5.12311,-7.91068 -10.92427,-16.95146 -10.47223,-21.84855 0.97941,-9.49282 13.71185,-25.9169 18.5336,-31.41671 a 4.7464097,4.7464097 0 1 0 -7.08195,-6.25321 c -1.95883,2.2602 -19.36234,22.60195 -20.79379,36.6905 -0.82874,8.21205 5.34912,17.7802 11.82835,27.95108 5.12311,7.98603 10.92428,16.95147 10.47224,21.84856 -0.45204,4.89708 -1.73282,9.64349 -3.46563,10.92427 -0.3767,0 -1.58214,1.20544 -5.57515,0.67806 -3.99301,-0.52738 -26.29361,-20.49244 -43.16973,-37.66992 a 4.7464097,4.7464097 0 0 0 -6.70524,0 4.6710698,4.6710698 0 0 0 0,6.62991 c 10.84893,11.67767 38.42331,39.25205 48.51885,40.60817 z"
     id="path906"
     style="fill:#999999;stroke-width:7.53398371"
     inkscape:connector-curvature="0" />
  <path
     class="a49a3fc0-3d13-452c-8b40-9675232c5beb"
     d="m 841.06882,511.10548 h 0.7534 a 5.1984487,5.1984487 0 0 0 3.08893,-2.41088 84.229937,84.229937 0 0 0 9.71884,-25.76622 8.287382,8.287382 0 0 0 -2.93825,-6.32855 c -6.78059,-5.95184 -24.56079,-4.29437 -30.13594,-3.61631 -10.77359,1.35612 -66.60041,31.26603 -77.67537,37.21788 a 4.7464097,4.7464097 0 0 0 -1.88349,6.40389 4.7464097,4.7464097 0 0 0 6.40388,1.88349 c 25.01283,-13.48583 67.35381,-35.25904 74.36042,-36.16312 a 46.861378,46.861378 0 0 1 22.14991,1.1301 68.559251,68.559251 0 0 1 -6.40388,16.57476 38.724676,38.724676 0 0 0 -28.32778,-1.95883 107.81131,107.81131 0 0 0 -40.60817,24.4101 11.074956,11.074956 0 0 0 -3.31496,9.94486 c 1.05476,4.14369 5.12311,7.15729 15.06797,11.1503 a 161.15191,161.15191 0 0 0 43.39575,7.98602 c 0,2.86291 -0.45204,6.17787 -2.41088,6.78059 l -2.93825,1.05475 a 42.793027,42.793027 0 0 1 -26.82098,2.78758 168.61055,168.61055 0 0 1 -31.49206,-16.42409 4.6710698,4.6710698 0 0 0 -5.19845,7.53399 171.77483,171.77483 0 0 0 34.05361,17.62952 38.573996,38.573996 0 0 0 11.07496,1.58213 65.018278,65.018278 0 0 0 21.77321,-4.59573 l 2.71223,-0.97941 c 9.34214,-3.08894 9.6435,-15.06797 8.36273,-21.09516 a 4.3697105,4.3697105 0 0 0 -2.33554,-3.16427 c 0.97942,-1.80816 2.78757,-5.27379 5.42447,-10.54758 a 56.504877,56.504877 0 0 0 4.14369,-21.01981 z m -12.88311,17.17748 -5.49981,11.30098 -2.33554,2.18485 a 140.43345,140.43345 0 0 1 -35.25904,-6.85592 36.012442,36.012442 0 0 1 -9.04078,-4.74641 c 0.3767,-0.60272 1.05476,-1.5068 1.80816,-2.48622 a 104.87305,104.87305 0 0 1 35.78642,-20.64311 28.327778,28.327778 0 0 1 19.13632,0.60272 4.6710698,4.6710698 0 0 0 -0.90408,2.63689 50.100991,50.100991 0 0 1 -3.69165,18.00622 z"
     id="path908"
     style="fill:#999999;stroke-width:7.53398371"
     inkscape:connector-curvature="0" />
  <path
     class="a49a3fc0-3d13-452c-8b40-9675232c5beb"
     d="m 867.8898,709.77663 a 4.9724292,4.9724292 0 0 0 2.2602,0.52738 4.8217495,4.8217495 0 0 0 4.14369,-2.48622 4.7464097,4.7464097 0 0 0 -1.95884,-6.32855 39.478074,39.478074 0 0 1 -16.34874,-26.14292 134.93365,134.93365 0 0 1 4.67107,-36.16312 4.7464097,4.7464097 0 1 0 -9.19146,-2.2602 c -0.67806,2.93826 -6.85593,28.77982 -4.74641,40.15614 a 48.669534,48.669534 0 0 0 21.17049,32.69749 z"
     id="path910"
     style="fill:#999999;stroke-width:7.53398371"
     inkscape:connector-curvature="0" />
  <path
     class="a49a3fc0-3d13-452c-8b40-9675232c5beb"
     d="m 926.88089,687.62671 a 77.449351,77.449351 0 0 0 -26.82098,13.93787 c -2.33553,1.65748 -4.36971,3.08894 -5.87651,3.91768 a 4.7464097,4.7464097 0 0 0 -1.88349,6.40388 4.6710698,4.6710698 0 0 0 6.40388,1.8835 c 1.80816,-0.97942 4.06836,-2.6369 6.78059,-4.52039 a 70.367407,70.367407 0 0 1 23.35535,-12.43108 71.196145,71.196145 0 0 1 30.13593,4.52039 4.6956132,4.6956132 0 1 0 3.23962,-8.81476 81.969742,81.969742 0 0 0 -35.33439,-4.89709 z"
     id="path912"
     style="fill:#999999;stroke-width:7.53398371"
     inkscape:connector-curvature="0" />
  <path
     class="a49a3fc0-3d13-452c-8b40-9675232c5beb"
     d="M 479.66363,1053.1756 C 468.21197,995.84198 451.63721,896.69476 451.48653,895.71534 a 4.8217495,4.8217495 0 0 0 -5.42447,-3.91767 4.6710698,4.6710698 0 0 0 -3.84233,5.42447 c 0,1.05476 16.72544,100.27732 28.1771,157.76166 11.45165,57.4843 34.65632,156.7068 34.88234,157.7616 a 4.7464097,4.7464097 0 0 0 4.59573,3.6163 h 1.05476 a 4.6710698,4.6710698 0 0 0 3.54097,-5.6505 c -0.22602,-1.1301 -23.28001,-100.2773 -34.807,-157.5356 z"
     id="path914"
     style="fill:#999999;stroke-width:7.53398371"
     inkscape:connector-curvature="0" />
  <path
     class="a49a3fc0-3d13-452c-8b40-9675232c5beb"
     d="m 261.40412,661.63447 a 4.6710698,4.6710698 0 0 0 -6.25321,2.2602 c 0,0.3767 -18.38292,38.34797 -36.3138,69.31265 -17.93088,30.96467 -44.67652,84.30527 -45.2039,84.83265 a 4.8217495,4.8217495 0 0 0 2.10952,6.32855 4.3697105,4.3697105 0 0 0 2.10951,0.52738 4.7464097,4.7464097 0 0 0 4.21903,-2.6369 c 0,-0.52738 26.67031,-53.3406 44.67653,-84.30528 18.00622,-30.96467 36.46448,-69.614 36.6905,-70.06604 a 4.6710698,4.6710698 0 0 0 -2.03418,-6.25321 z"
     id="path916"
     style="fill:#999999;stroke-width:7.53398371"
     inkscape:connector-curvature="0" />
  <path
     class="a49a3fc0-3d13-452c-8b40-9675232c5beb"
     d="m 885.67,524.51597 a 64.942939,64.942939 0 0 1 -4.52039,-15.06797 4.7464097,4.7464097 0 0 0 -5.42447,-3.84233 4.8217495,4.8217495 0 0 0 -3.91767,5.42447 73.983719,73.983719 0 0 0 5.42447,17.93088 c 3.39029,6.70525 60.27187,93.4214 66.67576,103.29091 a 4.59573,4.59573 0 0 0 3.91767,2.18486 4.5203902,4.5203902 0 0 0 2.56155,-0.82874 4.6710698,4.6710698 0 0 0 1.35612,-6.47922 C 926.50419,588.25347 888.00554,529.1117 885.67,524.51597 Z"
     id="path918"
     style="fill:#999999;stroke-width:7.53398371"
     inkscape:connector-curvature="0" />
</svg>
