<?xml version="1.0" encoding="UTF-8" standalone="no"?>
<svg
   xmlns:dc="http://purl.org/dc/elements/1.1/"
   xmlns:cc="http://creativecommons.org/ns#"
   xmlns:rdf="http://www.w3.org/1999/02/22-rdf-syntax-ns#"
   xmlns:svg="http://www.w3.org/2000/svg"
   xmlns="http://www.w3.org/2000/svg"
   xmlns:sodipodi="http://sodipodi.sourceforge.net/DTD/sodipodi-0.dtd"
   xmlns:inkscape="http://www.inkscape.org/namespaces/inkscape"
   id="b5832c9c-6a4b-463f-9701-fe878ccae5fc"
   data-name="Ebene 1"
   viewBox="0 0 930.20876 1337.8461"
   version="1.1"
   sodipodi:docname="cmd_head_frontal_side_big.svg"
   inkscape:version="0.92.1 r15371"
   width="930.2088"
   height="1337.8461">
  <metadata
     id="metadata949">
    <rdf:RDF>
      <cc:Work
         rdf:about="">
        <dc:format>image/svg+xml</dc:format>
        <dc:type
           rdf:resource="http://purl.org/dc/dcmitype/StillImage" />
        <dc:title>cmd_head_frontal_side</dc:title>
      </cc:Work>
    </rdf:RDF>
  </metadata>
  <sodipodi:namedview
     pagecolor="#ffffff"
     bordercolor="#666666"
     borderopacity="1"
     objecttolerance="10"
     gridtolerance="10"
     guidetolerance="10"
     inkscape:pageopacity="0"
     inkscape:pageshadow="2"
     inkscape:window-width="1920"
     inkscape:window-height="1080"
     id="namedview947"
     showgrid="false"
     inkscape:zoom="0.36593725"
     inkscape:cx="303.73162"
     inkscape:cy="435.90955"
     inkscape:window-x="0"
     inkscape:window-y="0"
     inkscape:window-maximized="1"
     inkscape:current-layer="b5832c9c-6a4b-463f-9701-fe878ccae5fc" />
  <defs
     id="defs912">
    <style
       id="style910">.e69fe641-39f5-42e4-9124-0923886224ea{fill:#009640;}</style>
  </defs>
  <title
     id="title914">cmd_head_frontal_side</title>
  <path
     class="e69fe641-39f5-42e4-9124-0923886224ea"
     d="m 301.27727,535.91609 c 22.33768,1.2364 88.77368,8.24267 102.29165,9.56149 a 484.75191,484.75191 0 0 1 28.84939,47.14812 c 0.90669,2.55525 1.97825,5.60502 3.21464,8.81967 a 173.75566,173.75566 0 0 1 7.83054,24.23347 c 2.22553,10.05607 11.78702,119.10672 15.33138,160.23765 a 5.1928874,5.1928874 0 0 0 5.11047,4.78076 h 0.41213 a 5.1104604,5.1104604 0 0 0 4.69834,-5.52257 c -0.49459,-6.09961 -12.61132,-148.86277 -15.49625,-161.63893 a 180.34981,180.34981 0 0 0 -8.24267,-25.63474 c -1.15398,-3.13219 -2.22554,-6.01712 -3.0498,-8.24266 a 552.25946,552.25946 0 0 0 -31.40461,-51.59917 5.1928874,5.1928874 0 0 0 -3.7092,-2.22551 c -3.29707,0 -80.20126,-8.24269 -105.25902,-9.8088 -11.86944,-0.6594 -28.10752,-2.63764 -42.53222,-4.28618 -24.06861,-2.88493 -30.58034,-3.46194 -33.54769,-2.47283 a 44.09833,44.09833 0 0 0 -18.54603,21.10128 679.03184,679.03184 0 0 1 -45.25231,54.56652 5.1409549,5.1409549 0 1 0 7.74813,6.759 c 10.30334,-11.62218 44.18075,-50.19792 47.06568,-57.69874 a 41.213391,41.213391 0 0 1 11.78702,-15.08412 290.96654,290.96654 0 0 1 29.59124,2.80251 c 14.50711,1.64853 30.99246,3.54436 43.10919,4.20378 z"
     id="path916"
     style="fill:#999999;stroke-width:8.24267864"
     inkscape:connector-curvature="0" />
  <path
     class="e69fe641-39f5-42e4-9124-0923886224ea"
     d="m 725.61037,509.04495 c -7.50081,-2.14309 -17.72172,0 -36.26778,4.45105 -9.80878,2.22553 -22.00797,5.02805 -37.50422,8.24269 -15.49619,3.21462 -32.39368,5.68745 -46.57109,8.24267 a 243.15901,243.15901 0 0 0 -49.86821,10.63304 56.874479,56.874479 0 0 0 -20.27701,21.92554 c -2.55522,3.87404 -5.11044,8.24267 -8.24267,11.70461 -10.96275,14.09498 -12.28157,31.23973 -13.68284,60.25396 -1.40124,29.01423 -4.20376,158.42428 -4.20376,159.7431 a 5.1104604,5.1104604 0 0 0 5.02802,5.19289 v 0 a 5.1928874,5.1928874 0 0 0 5.19289,-5.02805 c 0,-1.31882 2.80252,-130.39913 4.20376,-159.41339 1.40127,-29.01423 2.88496,-43.27405 11.45734,-54.40164 3.29706,-4.20379 6.01716,-8.2427 8.6548,-12.44645 a 49.456071,49.456071 0 0 1 16.48539,-18.29877 254.78119,254.78119 0 0 1 46.9008,-9.64393 c 14.25985,-2.30793 30.33308,-4.9456 46.90086,-8.24267 16.56778,-3.29706 27.94267,-5.85231 37.83386,-8.24269 16.4854,-3.79162 26.12933,-6.01713 31.15735,-4.61589 a 46.735986,46.735986 0 0 1 19.53513,16.48536 l 23.82134,35.03139 8.2427,-5.85232 -23.73892,-34.94893 a 55.473226,55.473226 0 0 0 -25.05774,-20.77157 z"
     id="path918"
     style="fill:#999999;stroke-width:8.24267864"
     inkscape:connector-curvature="0" />
  <path
     class="e69fe641-39f5-42e4-9124-0923886224ea"
     d="m 357.90449,1250.5561 c -13.76527,-26.2117 -36.02049,-74.8435 -36.26779,-75.338 a 5.1265633,5.1265633 0 1 0 -9.31423,4.2862 c 0,0.4947 22.58495,49.456 36.51506,75.8326 13.93014,26.3766 35.9381,78.8 36.18536,79.377 a 5.1104604,5.1104604 0 0 0 4.69834,3.1322 6.099582,6.099582 0 0 0 2.06067,-0.4122 5.1928874,5.1928874 0 0 0 2.72009,-6.759 c -0.90672,-2.1431 -22.66739,-53.6598 -36.5975,-80.1188 z"
     id="path920"
     style="fill:#999999;stroke-width:8.24267864"
     inkscape:connector-curvature="0" />
  <path
     class="e69fe641-39f5-42e4-9124-0923886224ea"
     d="m 679.6162,1144.4729 a 5.1928874,5.1928874 0 0 0 -6.51168,3.2971 c 0,0.6594 -21.10125,64.8698 -30.82763,98.0878 -9.72636,33.218 -26.21172,73.2774 -26.37659,73.6896 a 5.1104604,5.1104604 0 0 0 2.80254,6.6766 4.2861927,4.2861927 0 0 0 1.97825,0.4122 5.0280338,5.0280338 0 0 0 4.6983,-3.2147 c 0,0 17.06234,-41.2134 26.78869,-74.6786 9.72639,-33.4653 30.58038,-97.1812 30.74518,-97.7582 a 5.1104604,5.1104604 0 0 0 -3.29706,-6.5117 z"
     id="path922"
     style="fill:#999999;stroke-width:8.24267864"
     inkscape:connector-curvature="0" />
  <path
     class="e69fe641-39f5-42e4-9124-0923886224ea"
     d="M 101.88689,731.43242 A 76.986618,76.986618 0 0 1 90.676847,718.8211 83.498332,83.498332 0 0 1 92.078103,694.58763 157.10545,157.10545 0 0 0 93.973919,657.41316 35.60837,35.60837 0 0 0 79.549231,633.5094 65.941429,65.941429 0 0 1 63.970562,615.04579 C 51.359273,592.6257 35.945456,566.00185 35.945456,566.00185 a 5.0280338,5.0280338 0 0 0 -5.357732,-2.4728 5.275314,5.275314 0 0 0 -4.203768,4.20379 c 0,0 -1.401256,8.81967 -4.203768,32.47613 a 407.51803,407.51803 0 0 0 1.401256,66.84812 5.1104604,5.1104604 0 0 0 5.605024,4.61592 5.0280338,5.0280338 0 0 0 4.615902,-5.60502 406.19918,406.19918 0 0 1 -1.401257,-64.70504 c 0.824267,-7.00626 1.566113,-12.69371 2.143087,-17.22721 5.605024,9.80881 13.435571,23.49166 20.441852,35.93807 a 74.761095,74.761095 0 0 0 17.72176,21.10128 25.305022,25.305022 0 0 1 11.045187,17.72176 149.2749,149.2749 0 0 1 -1.895819,34.37196 c -2.060666,15.6611 -3.049792,24.72803 -0.412155,30.16821 a 73.442263,73.442263 0 0 0 13.188285,15.33138 64.869876,64.869876 0 0 1 14.50711,17.39205 5.0280338,5.0280338 0 0 0 4.94561,3.7092 h 1.40126 a 5.275314,5.275314 0 0 0 3.54435,-6.42929 65.282015,65.282015 0 0 0 -17.14477,-22.00794 z"
     id="path924"
     style="fill:#999999;stroke-width:8.24267864"
     inkscape:connector-curvature="0" />
  <path
     class="e69fe641-39f5-42e4-9124-0923886224ea"
     d="m 91.748396,754.75918 a 5.1104604,5.1104604 0 1 0 -8.242677,5.68747 l 14.012549,21.0188 a 5.1928874,5.1928874 0 0 0 4.286192,2.30795 4.9456071,4.9456071 0 0 0 2.80251,-0.90668 5.1928874,5.1928874 0 0 0 1.48368,-7.17114 z"
     id="path926"
     style="fill:#999999;stroke-width:8.24267864"
     inkscape:connector-curvature="0" />
  <path
     class="e69fe641-39f5-42e4-9124-0923886224ea"
     d="m 55.480605,738.27385 c -2.225522,-3.70923 -1.566112,-22.50252 -1.071543,-34.94897 0,-6.42929 0.412149,-12.77616 0.412149,-18.38119 0,-15.33138 5.275312,-19.123 10.385783,-22.74977 l 1.566112,-1.15398 a 5.1928874,5.1928874 0 0 0 -6.182014,-8.24267 l -1.401256,1.07153 c -5.852301,4.12136 -14.671971,10.4682 -14.671971,31.07489 0,5.44019 0,11.70461 -0.412133,18.05148 -0.741831,21.26612 -0.989123,34.61925 2.555235,40.55399 a 270.44227,270.44227 0 0 0 21.595816,26.04684 5.1928874,5.1928874 0 0 0 7.335985,0 5.1104604,5.1104604 0 0 0 0,-7.25355 263.02387,263.02387 0 0 1 -20.112147,-24.0686 z"
     id="path928"
     style="fill:#999999;stroke-width:8.24267864"
     inkscape:connector-curvature="0" />
  <path
     class="e69fe641-39f5-42e4-9124-0923886224ea"
     d="m 920.79699,647.60438 c 7.33601,-13.27071 9.97365,-84.73472 9.31423,-106.49539 a 28.437241,28.437241 0 0 0 -22.00797,-28.84939 51.434314,51.434314 0 0 0 -42.28494,11.04517 c 3.79168,-15.33138 8.81967,-36.59754 12.28164,-53.90723 6.18196,-30.82764 10.05604,-140.12556 7.50082,-180.43227 -2.63771,-42.69708 -24.72803,-99.57156 -43.02679,-123.64019 A 227.08578,227.08578 0 0 0 780.67145,105.97781 C 761.71329,94.025914 680.68779,45.806264 631.3141,28.908774 583.91871,12.423414 510.97104,2.6146342 463.16349,0.22426416 415.35594,-2.1661158 324.85135,15.061054 287.09987,27.672374 247.7823,40.695794 163.4597,84.217144 138.73166,103.83469 111.4484,125.67781 65.619095,209.75311 44.435413,276.93096 25.477253,336.93768 33.88479,379.14017 40.561357,413.01758 c 1.401257,6.759 2.637656,13.18829 3.709215,19.53516 3.049789,19.123 9.5615,45.82934 15.331381,69.40349 a 508.07869,508.07869 0 0 1 11.787023,54.81382 c 0,1.56611 0,2.80251 0,3.79165 A 4.4510463,4.4510463 0 0 0 68.6689,560.06714 l -0.494554,-0.82426 a 108.47365,108.47365 0 0 1 -7.335993,-14.4247 34.948957,34.948957 0 0 0 -17.309627,-21.10127 c -13.930125,-6.182 -35.6907961,-4.03892 -41.7079537,8.24269 -3.0497889,6.26445 -1.97824571,24.15105 1.0715432,60.83097 1.071559,12.44645 2.1431022,25.38745 2.6376557,35.44352 0,5.19289 0.4945694,11.29247 0.7418461,17.8866 1.6485329,43.19163 3.3795019,79.87155 8.2426807,90.66946 a 219.25523,219.25523 0 0 0 24.72804,35.52594 c 6.099577,7.6657 12.364012,15.66107 17.474467,22.74978 5.110471,7.08872 10.962772,17.30963 16.48536,27.03599 9.891215,17.06236 19.205444,32.97072 27.777835,39.81214 a 53.659837,53.659837 0 0 0 36.76234,13.68285 68.991218,68.991218 0 0 0 9.47908,-0.57697 c 1.97824,11.37489 3.87406,21.51338 5.11046,27.28324 l 1.40126,7.0063 a 444.61008,444.61008 0 0 0 20.85397,75.17321 5.275314,5.275314 0 0 0 -1.40125,3.62678 c 0,0.577 1.40125,57.69879 0,113.08949 -1.40126,55.3907 -12.44645,185.9547 -12.52887,187.2736 a 5.1104604,5.1104604 0 0 0 4.69832,5.5225 h 0.41215 a 5.1928874,5.1928874 0 0 0 5.11047,-4.7807 c 0,-1.3188 11.21003,-132.295 12.61129,-187.7681 0.98912,-37.9987 0.57699,-76.9866 0,-98.0054 1.31884,2.4728 2.80251,4.7808 4.28619,7.0063 5.76988,8.2427 12.36403,19.123 19.37031,30.333 18.46359,29.7561 39.39999,63.4686 57.28661,77.2338 12.69372,9.644 28.27238,19.9472 43.27405,29.9208 13.02344,8.2427 25.30505,16.4854 33.71258,23.2444 15.57864,11.9519 37.33932,26.9536 52.42344,30.3331 a 938.51137,938.51137 0 0 0 108.39119,5.9347 c 6.34687,0 12.28161,0 17.4745,0 a 233.18538,233.18538 0 0 0 61.16068,-7.1711 c 19.94724,-4.9456 71.05185,-50.0331 89.10329,-67.0129 a 1293.3587,1293.3587 0 0 0 99.90127,-112.5949 l 4.45105,-5.9347 c 0,17.969 -0.65937,52.1761 0,81.3552 1.4013,41.6254 11.0452,186.2844 11.21005,187.6856 a 5.1104604,5.1104604 0 0 0 5.11047,4.8632 v 0 a 5.1928874,5.1928874 0 0 0 4.78079,-5.5226 c 0,-1.4837 -9.80881,-145.8954 -11.12766,-187.3559 -1.31879,-41.4607 0,-92.895 0,-93.472 a 5.8523018,5.8523018 0 0 0 0,-1.6485 c 8.90212,-12.36402 12.03434,-17.47449 15.0017,-22.42009 3.95649,-6.59416 7.00623,-33.71257 11.62215,-84.73473 v -2.80251 c 1.07159,-11.7046 2.30799,-26.29417 3.46197,-39.81214 2.63764,0 5.76986,0.41213 9.23177,0.41213 a 69.568207,69.568207 0 0 0 13.60042,-1.2364 c 15.08409,-2.96735 21.8431,-19.28787 28.43726,-35.11381 3.7092,-8.90209 8.73722,-20.44185 13.76524,-31.98158 3.37951,-7.74814 6.759,-15.4138 9.72638,-22.33768 a 283.05357,283.05357 0 0 0 12.52884,-49.86818 c 0.57704,-2.88493 1.07156,-5.5226 1.48373,-7.74811 0.41219,-2.22554 1.07152,-4.36863 1.48369,-6.51174 a 277.53099,277.53099 0 0 1 16.15561,-48.87908 z m -49.45608,130.15187 c -5.11044,11.62218 -10.13846,23.16194 -13.84769,32.14645 -5.5226,13.27072 -11.29247,27.03598 -20.9364,29.01423 a 72.04101,72.04101 0 0 1 -19.9473,0.57697 c 1.48369,-17.39204 2.6377,-31.07489 2.6377,-31.07489 l -10.30336,-0.90669 c 0,0 -1.2364,15.00167 -2.80251,33.5477 a 4.533473,4.533473 0 0 0 -0.82427,2.06066 4.6158999,4.6158999 0 0 0 0.4122,2.80251 c -1.2364,14.34228 -2.63764,30.16825 -3.79159,42.77953 v 2.80252 c -2.14312,24.15102 -6.67658,74.1841 -10.22091,80.3661 a 421.61301,421.61301 0 0 1 -29.09668,41.21336 1289.0725,1289.0725 0 0 1 -98.91213,111.2761 c -25.30503,23.8213 -69.73306,60.8309 -84.48747,64.5401 -16.48532,4.1213 -23.32678,5.4402 -59.09998,6.8414 a 962.90968,962.90968 0 0 1 -123.22806,-5.4402 c -10.22091,-2.3079 -27.77782,-12.6937 -48.38452,-28.5196 -8.73725,-6.6766 -21.18366,-14.9193 -34.28955,-23.6565 -14.91924,-9.8087 -30.25063,-20.0296 -42.69706,-29.5087 -16.48537,-12.5288 -36.76236,-45.4171 -54.81382,-74.1841 -7.00628,-11.2924 -13.68285,-22.0079 -19.61757,-30.7451 -18.29875,-26.78874 -28.0251,-74.18412 -32.97072,-97.42849 l -1.48367,-7.08868 c -1.31895,-6.34687 -3.46205,-18.21635 -5.76999,-31.32219 a 4.0389125,4.0389125 0 0 0 0,-2.39038 c -4.36862,-25.79958 -9.06695,-55.14353 -9.14938,-55.55566 a 5.1928874,5.1928874 0 0 0 -5.93473,-4.2862 5.1104604,5.1104604 0 0 0 -4.28619,5.85231 c 0,1.81338 4.53347,28.02509 8.65481,52.42344 a 54.154396,54.154396 0 0 1 -7.74811,0.41216 43.85105,43.85105 0 0 1 -30.41549,-11.45734 C 100.9802,847.40692 91.501116,831.41611 82.763873,815.91986 77.076428,806.02863 71.141699,795.80772 65.619095,788.14203 60.096507,780.47634 54.079349,772.72823 47.897351,764.98012 A 227.82763,227.82763 0 0 1 24.158433,731.59726 c -4.203768,-9.56151 -6.099578,-57.69874 -7.171137,-86.54813 0,-6.59413 -0.494553,-12.69371 -0.74183,-17.8866 -0.494569,-10.30333 -1.566112,-23.32679 -2.637655,-35.93807 -1.730969,-20.11214 -4.2862047,-50.52761 -2.143102,-55.30837 2.143102,-4.78075 17.062349,-8.24269 28.272382,-3.21464 6.346871,2.80251 8.654813,8.24266 12.116736,15.90835 a 106.41298,106.41298 0 0 0 8.24268,15.74352 c 3.132225,4.94563 7.171137,12.28161 11.869458,20.77156 a 354.43517,354.43517 0 0 0 31.899165,51.18703 41.213391,41.213391 0 0 1 5.19289,36.0205 5.1928874,5.1928874 0 0 0 3.3795,6.42929 5.1104604,5.1104604 0 0 0 6.42929,-3.29707 50.610044,50.610044 0 0 0 -8.24268,-45.49959 351.38539,351.38539 0 0 1 -30.745193,-49.45607 c -1.566106,-2.88494 -3.049788,-5.60503 -4.533471,-8.24267 v 0 c 5.605018,-2.30796 5.852301,-9.89123 5.357741,-16.48536 A 478.89962,478.89962 0 0 0 68.6689,499.23614 C 62.981439,475.82686 56.552164,449.28537 53.502359,430.5745 52.430816,424.14521 51.194417,417.55108 49.79316,410.6272 42.951736,376.25523 35.203626,337.18494 53.337519,279.73347 75.592746,209.17614 121.33961,130.12886 144.00698,111.74767 166.67435,93.366494 251.73879,49.845184 289.49025,37.563574 c 37.75148,-12.28158 124.54687,-29.2614898 172.272,-26.95356 47.7251,2.30795 118.8594,12.2816 165.34809,28.18996 48.38456,16.48536 128.42098,64.210486 147.13185,76.079926 a 218.34855,218.34855 0 0 1 59.18244,56.79205 c 17.30959,23.0795 38.49329,78.55273 41.21335,118.28243 2.72009,39.72974 -1.2364,147.46154 -7.33598,177.79462 -6.09955,30.33316 -17.06233,73.44241 -17.22721,74.18425 a 5.1928874,5.1928874 0 0 0 9.4791,3.79162 45.33473,45.33473 0 0 1 45.4172,-22.8322 18.381173,18.381173 0 0 1 14.1774,19.28784 c 0.90669,28.43726 -2.96741,91.98828 -8.24269,101.05525 a 61.407954,61.407954 0 0 0 -3.04981,6.51171 c 0,-5.02802 0,-10.05607 0.49475,-14.83683 0,-10.63304 0.577,-20.52427 1.07159,-28.43722 0,-0.49456 3.0498,-53.90712 -6.92385,-61.07826 a 6.5117159,6.5117159 0 0 0 -6.34687,-0.82427 c -5.44015,2.22554 -10.79788,9.72636 -20.52427,23.90376 -3.46194,5.02805 -7.25356,10.55065 -11.37492,16.48536 a 209.03432,209.03432 0 0 0 -23.90373,54.81381 l -0.65942,0.65942 c 0,-10.13849 0,-28.51967 0,-37.66902 0,-5.19289 0,-9.2318 0,-11.04521 a 34.86653,34.86653 0 0 1 8.65479,-15.08408 5.1928874,5.1928874 0 1 0 -7.74811,-6.84143 42.614647,42.614647 0 0 0 -11.21005,21.92551 c 0,1.73099 0,5.7699 0,10.88034 -0.65942,34.04227 -0.57697,44.75774 0.4122,47.56025 a 6.099582,6.099582 0 0 0 4.69831,4.20378 c 1.48369,0 5.44018,1.15395 13.93014,-8.24269 a 5.5225946,5.5225946 0 0 0 1.07153,-2.06067 275.63516,275.63516 0 0 1 11.78702,-32.97072 64.457746,64.457746 0 0 1 8.24269,19.20545 c 5.19293,19.28788 5.44019,57.69875 1.64857,65.52928 a 52.093727,52.093727 0 0 1 -12.44645,16.89749 4.3686194,4.3686194 0 0 0 -2.4728,0.57701 c 1.15395,-26.54143 1.15395,-49.45608 1.15395,-49.45608 a 5.1928874,5.1928874 0 0 0 -10.30336,0 c 0,0 0,23.6565 -1.15395,50.44519 -1.15398,23.65649 -10.13849,31.73432 -10.4682,31.98161 a 5.1928874,5.1928874 0 0 0 3.21464,9.23177 5.5225946,5.5225946 0 0 0 3.13223,-1.07153 c 1.2364,-0.98913 10.88033,-9.31422 13.68281,-32.14645 a 4.4510463,4.4510463 0 0 0 1.31885,0.82427 6.4292889,6.4292889 0 0 0 2.14309,0 c 9.72639,0 20.19456,-20.19456 21.34854,-22.66736 6.18203,-12.28161 3.95649,-54.97869 -0.82427,-72.86529 a 64.622599,64.622599 0 0 0 -12.11673,-27.77783 79.45942,79.45942 0 0 1 6.01716,-9.80877 c 4.20375,-5.76986 8.24269,-11.37489 11.53976,-16.48536 a 207.30336,207.30336 0 0 1 13.02342,-17.80418 227.91006,227.91006 0 0 1 1.97825,49.45608 c -0.49478,8.24266 -0.74182,17.96902 -1.07153,28.76693 -0.49478,17.39205 -1.07159,37.09206 -2.63771,53.82468 0,1.56611 0,3.21464 -0.65936,4.86318 a 14.34226,14.34226 0 0 0 -0.41223,1.8134 c -0.41219,1.48366 -0.82423,3.46191 -1.31885,5.93474 a 217.35943,217.35943 0 0 1 -28.51964,59.92425 5.1104604,5.1104604 0 0 0 0.65942,7.25356 4.9456071,4.9456071 0 0 0 3.29707,1.2364 5.1928874,5.1928874 0 0 0 3.95649,-1.89583 91.576156,91.576156 0 0 0 6.67658,-9.97362 z"
     id="path930"
     style="fill:#999999;stroke-width:8.24267864"
     inkscape:connector-curvature="0" />
  <path
     class="e69fe641-39f5-42e4-9124-0923886224ea"
     d="m 253.46974,619.49684 c -0.57697,5.85232 3.70922,9.31422 23.07951,18.95816 a 118.03516,118.03516 0 0 0 52.75315,12.69374 97.18118,97.18118 0 0 0 14.67195,-1.07156 c 14.83683,-2.4728 42.03768,-7.4184 42.03768,-7.4184 l -1.8134,-10.13852 c 0,0 -27.11841,4.94563 -41.95523,7.41843 a 105.83599,105.83599 0 0 1 -61.07825,-10.63307 97.92302,97.92302 0 0 1 -17.30963,-9.8912 8.8196657,8.8196657 0 0 0 -1.89582,-5.93474 l -0.82425,-0.98911 c 9.06693,-4.53349 20.85397,-10.22094 30.91004,-14.67198 a 105.67113,105.67113 0 0 1 65.36445,-2.30793 c 15.82593,5.60502 38.41087,31.56945 38.57571,31.81671 a 5.1928874,5.1928874 0 0 0 7.33601,0.57701 5.1104604,5.1104604 0 0 0 0.49452,-7.25356 c -0.98911,-1.15398 -24.72802,-28.27238 -42.94434,-34.86651 a 116.96361,116.96361 0 0 0 -50.1155,-3.37952 103.36319,103.36319 0 0 1 25.22261,-6.34687 53.000423,53.000423 0 0 1 34.1247,7.83056 l 5.27531,2.72006 a 170.78829,170.78829 0 0 1 34.28954,29.67365 5.1104604,5.1104604 0 0 0 7.25356,0.41217 5.1104604,5.1104604 0 0 0 0,-7.25356 175.15692,175.15692 0 0 0 -37.33935,-32.06403 l -5.19289,-2.63764 a 62.72678,62.72678 0 0 0 -39.39998,-8.98454 c -22.50253,1.31885 -75.75023,25.71716 -90.66948,39.6473 a 4.9456071,4.9456071 0 0 0 -1.48369,4.78076 l -1.15397,0.57697 a 5.275314,5.275314 0 0 0 -2.30796,6.67658 5.1104604,5.1104604 0 0 0 6.51173,2.72006 12.281591,12.281591 0 0 1 7.58326,-0.65939 z"
     id="path932"
     style="fill:#999999;stroke-width:8.24267864"
     inkscape:connector-curvature="0" />
  <path
     class="e69fe641-39f5-42e4-9124-0923886224ea"
     d="m 361.86098,687.00436 c 22.09039,-6.51171 50.52761,-37.25689 51.76401,-38.49329 a 5.275314,5.275314 0 0 0 0,-7.33598 5.1928874,5.1928874 0 0 0 -7.25356,0 c 0,0 -27.69541,29.92092 -47.14812,35.60836 -19.45271,5.68745 -59.34728,1.40127 -81.35524,-3.79162 -13.35314,-3.13222 -16.48536,-6.51171 -17.14477,-7.25356 a 5.0280338,5.0280338 0 0 0 -5.02804,-3.95649 5.1104604,5.1104604 0 0 0 -5.11045,5.11047 c 0,3.87404 3.21464,11.04518 24.72804,16.48536 a 288.49374,288.49374 0 0 0 58.68788,6.75898 104.84687,104.84687 0 0 0 27.86025,-3.13223 z"
     id="path934"
     style="fill:#999999;stroke-width:8.24267864"
     inkscape:connector-curvature="0" />
  <path
     class="e69fe641-39f5-42e4-9124-0923886224ea"
     d="m 727.9183,640.9278 c -5.27528,8.24269 -21.5958,29.67365 -33.71253,35.19622 -14.09495,6.51175 -21.10125,7.0063 -54.89624,8.98455 l -7.50082,0.41213 c -37.33937,2.39038 -54.40171,-15.99077 -55.14355,-16.48536 a 5.1104604,5.1104604 0 1 0 -7.66566,6.759 c 0.74181,0.90669 18.54599,20.52428 56.54473,20.52428 h 6.92391 l 7.50082,-0.41217 c 34.45441,-2.06067 42.69704,-2.55522 58.6054,-9.8912 17.14482,-8.24266 37.09211,-37.66902 37.91635,-38.90545 a 5.275314,5.275314 0 0 0 -0.98914,-7.74811 5.1928874,5.1928874 0 0 0 -7.58327,1.56611 z"
     id="path936"
     style="fill:#999999;stroke-width:8.24267864"
     inkscape:connector-curvature="0" />
  <path
     class="e69fe641-39f5-42e4-9124-0923886224ea"
     d="M 710.77355,585.37214 A 103.03348,103.03348 0 0 0 653.0748,571.93659 176.14604,176.14604 0 0 0 585.56728,593.45 a 93.884108,93.884108 0 0 0 -30.25066,24.72802 5.275314,5.275314 0 0 0 -0.98914,3.95649 5.4401676,5.4401676 0 0 0 2.22554,3.46191 l 8.24269,5.11047 c 0,0 11.12763,6.182 24.72806,14.67195 14.83683,9.4791 48.54936,9.4791 73.19494,9.4791 a 86.630548,86.630548 0 0 0 43.52137,-11.9519 5.1104604,5.1104604 0 1 0 -5.5226,-8.24266 77.810887,77.810887 0 0 1 -37.99877,10.30333 c -22.00794,0 -55.30831,0 -67.67234,-8.24266 -12.36402,-8.2427 -24.72808,-14.83683 -24.72808,-14.83683 l -2.63764,-1.64854 3.21467,-3.29706 a 4.9456071,4.9456071 0 0 0 5.85226,0 113.00712,113.00712 0 0 1 31.6519,-16.48536 147.29666,147.29666 0 0 1 65.94144,-1.07156 65.941429,65.941429 0 0 1 41.21338,24.72806 5.1928874,5.1928874 0 0 0 4.28621,2.30792 4.7807535,4.7807535 0 0 0 2.8849,-0.90668 5.0280338,5.0280338 0 0 0 1.4013,-7.08872 75.255652,75.255652 0 0 0 -47.89,-29.42636 192.21925,192.21925 0 0 0 -45.74685,-2.80251 108.30879,108.30879 0 0 1 24.15105,-4.28617 95.615071,95.615071 0 0 1 50.85736,11.29247 c 4.86311,3.87404 20.02965,19.7 25.46984,25.38744 a 5.0280338,5.0280338 0 0 0 7.25355,0 5.1928874,5.1928874 0 0 0 0,-7.25356 c -1.81337,-0.41216 -21.10124,-20.85398 -27.44811,-25.96445 z"
     id="path938"
     style="fill:#999999;stroke-width:8.24267864"
     inkscape:connector-curvature="0" />
  <path
     class="e69fe641-39f5-42e4-9124-0923886224ea"
     d="m 548.80494,1070.124 c -4.36866,-1.7309 -14.01256,-4.1213 -47.56029,-4.1213 a 175.15692,175.15692 0 0 0 -57.28661,7.6657 43.191634,43.191634 0 0 0 -23.90376,19.9473 5.1104604,5.1104604 0 0 0 2.22554,6.8414 4.7807535,4.7807535 0 0 0 2.30793,0.577 5.275314,5.275314 0 0 0 4.61591,-2.8025 33.465274,33.465274 0 0 1 18.05148,-14.7544 163.94687,163.94687 0 0 1 53.98951,-7.1711 c 29.26152,0 39.97702,1.8134 43.76861,3.3795 a 149.60461,149.60461 0 0 1 22.00796,16.4854 5.329783,5.329783 0 0 0 6.759,-8.2427 153.39625,153.39625 0 0 0 -24.97528,-17.8043 z"
     id="path940"
     style="fill:#999999;stroke-width:8.24267864"
     inkscape:connector-curvature="0" />
  <path
     class="e69fe641-39f5-42e4-9124-0923886224ea"
     d="m 583.83633,997.42363 a 5.1104604,5.1104604 0 0 0 -6.92385,2.30793 49.456071,49.456071 0 0 1 -7.58327,10.88034 c -4.45104,3.6268 -51.26949,18.2163 -93.96656,17.1448 -48.21965,-1.154 -65.94141,-22.4201 -66.51842,-22.8322 a 5.2267994,5.2267994 0 1 0 -8.24266,6.4293 c 0.82426,1.0715 20.60669,25.3874 74.1841,26.7062 h 4.36863 c 41.21338,0 90.2573,-13.2707 97.0163,-20.0296 a 61.160671,61.160671 0 0 0 9.64394,-13.7653 5.1928874,5.1928874 0 0 0 -1.97821,-6.84147 z"
     id="path942"
     style="fill:#999999;stroke-width:8.24267864"
     inkscape:connector-curvature="0" />
  <path
     class="e69fe641-39f5-42e4-9124-0923886224ea"
     d="m 625.54423,957.36423 -23.49162,-3.7092 a 4.6158999,4.6158999 0 0 0 -2.80248,0.49452 119.1067,119.1067 0 0 1 -30.58034,-12.364 l -7.08875,-3.70923 c -4.69831,-2.30793 -9.31423,-5.27531 -13.84769,-8.24266 a 69.238501,69.238501 0 0 0 -26.5414,-11.86945 5.1104604,5.1104604 0 0 0 3.62678,-6.18203 c 0,0 -2.4728,-9.80877 -4.9456,-20.85395 a 103.03348,103.03348 0 0 1 3.62678,-31.56948 76.739335,76.739335 0 0 1 17.30963,-1.81337 8.6548124,8.6548124 0 0 1 2.14308,1.64853 18.628453,18.628453 0 0 0 14.01256,6.01716 18.95816,18.95816 0 0 0 2.96736,0 46.818412,46.818412 0 0 0 25.63474,-16.48536 v 0 0 a 49.456071,49.456071 0 0 0 4.53346,-20.93641 c 1.31886,-16.07323 -12.77616,-38.98788 -14.3423,-41.21342 a 5.1928874,5.1928874 0 0 0 -7.08865,-1.56608 5.1104604,5.1104604 0 0 0 -1.64857,7.08869 c 3.8741,6.182 13.68285,24.72802 12.77616,35.11381 0,3.95649 -0.74181,7.08871 -1.15395,9.39667 a 52.423434,52.423434 0 0 0 -19.86484,-7.83056 c -11.53976,-2.30796 -23.16195,6.92384 -35.60839,16.48536 l -3.79166,3.0498 a 5.0280338,5.0280338 0 0 0 -4.86317,3.62678 51.928874,51.928874 0 0 1 -26.12927,12.36403 c -14.09498,0.65943 -30.16821,-17.06233 -43.19166,-31.32219 a 82.426786,82.426786 0 0 0 -22.58491,-20.19456 c -8.81967,-3.7092 -17.72176,3.29707 -23.82137,8.24267 0,-1.81338 0,-3.46191 0,-5.11044 a 60.336407,60.336407 0 0 1 11.37492,-32.39375 5.1104604,5.1104604 0 0 0 -1.15398,-7.1711 5.1104604,5.1104604 0 0 0 -7.17113,1.07152 69.98034,69.98034 0 0 0 -13.35314,39.23517 57.204185,57.204185 0 0 1 0,9.23181 9.2317999,9.2317999 0 0 0 1.48366,6.51171 5.0280338,5.0280338 0 0 0 1.56612,1.40124 5.1928874,5.1928874 0 0 0 0,5.11047 l 0.90671,1.56611 a 35.278663,35.278663 0 0 0 26.04685,19.20546 64.705026,64.705026 0 0 0 8.90209,0.65939 94.790801,94.790801 0 0 0 25.88203,-3.95646 c 2.4728,2.30793 4.9456,4.53346 7.4184,6.59413 a 4.9456071,4.9456071 0 0 0 -0.82426,3.29707 226.92093,226.92093 0 0 1 1.31882,44.01589 5.1928874,5.1928874 0 0 0 3.87407,6.18203 h 1.15398 a 5.1928874,5.1928874 0 0 0 5.52257,-5.11047 197.82428,197.82428 0 0 0 -0.74185,-43.02679 35.60837,35.60837 0 0 0 16.97995,5.11047 h 1.2364 a 47.807535,47.807535 0 0 0 22.42006,-8.24269 80.613396,80.613396 0 0 0 -1.81337,27.36569 c 2.55522,11.21005 5.02802,21.1837 5.02802,21.1837 a 5.1104604,5.1104604 0 0 0 3.21464,3.54436 26.62385,26.62385 0 0 0 -16.48536,7.00626 18.4636,18.4636 0 0 1 -10.55062,5.27532 26.37657,26.37657 0 0 1 -17.39205,-3.87408 c -2.63767,-1.23639 -5.76986,-2.72006 -9.72635,-4.36859 a 24.728036,24.728036 0 0 0 -25.38745,4.12133 89.268207,89.268207 0 0 1 -23.6565,10.46821 138.14729,138.14729 0 0 0 -34.61925,15.49622 78.140594,78.140594 0 0 1 -23.0795,10.38578 16.485357,16.485357 0 0 1 -19.04057,-7.00626 5.1104604,5.1104604 0 0 0 -6.75901,-2.55526 5.0280338,5.0280338 0 0 0 -2.55522,6.84143 25.305022,25.305022 0 0 0 23.32679,13.51801 35.938077,35.938077 0 0 0 5.68744,-0.57701 80.44854,80.44854 0 0 1 12.941,3.62678 91.164023,91.164023 0 0 0 48.71424,4.94563 113.66653,113.66653 0 0 1 46.57111,3.87404 94.873228,94.873228 0 0 0 21.92555,3.62678 h 2.72006 a 75.173228,75.173228 0 0 0 26.45901,-8.24267 60.336407,60.336407 0 0 1 15.90835,-5.60502 95.532641,95.532641 0 0 1 31.48706,4.03891 76.739335,76.739335 0 0 0 22.74978,3.37949 187.35607,187.35607 0 0 0 39.97699,-15.33138 5.1928874,5.1928874 0 0 0 -1.48366,-9.72636 z M 420.46641,848.64329 a 24.728036,24.728036 0 0 1 -18.71086,-14.09498 l -1.2364,-2.14309 v 0 a 58.523018,58.523018 0 0 0 4.86318,-3.54436 c 3.87404,-3.21464 10.4682,-8.2427 13.76526,-7.17114 a 86.218414,86.218414 0 0 1 18.95816,17.72176 c 2.30796,2.55522 4.86318,5.27532 7.4184,8.2427 a 68.579081,68.579081 0 0 1 -25.05774,0.98911 z m 136.58116,-10.79792 a 38.410882,38.410882 0 0 1 17.39208,7.25356 31.816738,31.816738 0 0 1 -15.74351,9.72639 9.0669459,9.0669459 0 0 1 -8.81967,-3.13223 14.754394,14.754394 0 0 0 -6.67659,-4.12133 22.255232,22.255232 0 0 0 -6.51171,0 c 7.66572,-6.18203 15.08412,-10.38578 20.3594,-9.72639 z m 28.84942,134.35568 a 75.502935,75.502935 0 0 1 -19.20542,-3.21464 104.10503,104.10503 0 0 0 -35.36113,-4.20379 72.782849,72.782849 0 0 0 -18.71087,6.42929 63.798333,63.798333 0 0 1 -22.91465,7.08872 74.184106,74.184106 0 0 1 -21.51341,-3.21464 124.38201,124.38201 0 0 0 -50.52761,-4.12134 80.44854,80.44854 0 0 1 -43.10921,-4.20378 c 3.54436,-1.81337 7.08872,-3.79162 10.63308,-5.85229 a 127.67909,127.67909 0 0 1 32.14642,-14.42469 101.5498,101.5498 0 0 0 26.1293,-11.53976 c 7.74811,-4.61589 10.4682,-5.93471 16.48536,-3.54433 3.79165,1.56611 6.759,2.96735 9.2318,4.20375 a 36.185357,36.185357 0 0 0 22.91465,4.78076 29.014227,29.014227 0 0 0 15.90836,-7.4184 16.485357,16.485357 0 0 1 10.71549,-4.86321 53.57741,53.57741 0 0 1 23.73892,10.63308 c 4.78076,2.96735 9.64393,6.01716 14.75437,8.24266 l 7.0063,3.62678 a 95.367791,95.367791 0 0 0 42.20252,14.25986 3.7092053,3.7092053 0 0 0 0.90669,0 100.56068,100.56068 0 0 1 -21.43096,7.33597 z"
     id="path944"
     style="fill:#999999;stroke-width:8.24267864"
     inkscape:connector-curvature="0" />
</svg>
