<?xml version="1.0" encoding="UTF-8" standalone="no"?>
<svg
   xmlns:dc="http://purl.org/dc/elements/1.1/"
   xmlns:cc="http://creativecommons.org/ns#"
   xmlns:rdf="http://www.w3.org/1999/02/22-rdf-syntax-ns#"
   xmlns:svg="http://www.w3.org/2000/svg"
   xmlns="http://www.w3.org/2000/svg"
   xmlns:sodipodi="http://sodipodi.sourceforge.net/DTD/sodipodi-0.dtd"
   xmlns:inkscape="http://www.inkscape.org/namespaces/inkscape"
   id="b9f912f7-78f0-4597-9b17-8a6cdc2809a1"
   data-name="Ebene 1"
   viewBox="0 0 999.99999 1221.9436"
   version="1.1"
   sodipodi:docname="cmd_head_left_side_big.svg"
   inkscape:version="0.92.1 r15371"
   width="1000"
   height="1221.9436">
  <metadata
     id="metadata923">
    <rdf:RDF>
      <cc:Work
         rdf:about="">
        <dc:format>image/svg+xml</dc:format>
        <dc:type
           rdf:resource="http://purl.org/dc/dcmitype/StillImage" />
        <dc:title>cmd_head_left_side</dc:title>
      </cc:Work>
    </rdf:RDF>
  </metadata>
  <sodipodi:namedview
     pagecolor="#ffffff"
     bordercolor="#666666"
     borderopacity="1"
     objecttolerance="10"
     gridtolerance="10"
     guidetolerance="10"
     inkscape:pageopacity="0"
     inkscape:pageshadow="2"
     inkscape:window-width="1920"
     inkscape:window-height="1025"
     id="namedview921"
     showgrid="false"
     inkscape:zoom="0.69479476"
     inkscape:cx="500"
     inkscape:cy="610.97181"
     inkscape:window-x="0"
     inkscape:window-y="31"
     inkscape:window-maximized="1"
     inkscape:current-layer="b9f912f7-78f0-4597-9b17-8a6cdc2809a1" />
  <defs
     id="defs892">
    <style
       id="style890">.f738cf65-3d70-4de2-96af-26b657d9f360{fill:#009640;}</style>
  </defs>
  <title
     id="title894">cmd_head_left_side</title>
  <path
     class="f738cf65-3d70-4de2-96af-26b657d9f360"
     d="M 566.92531,11.6096 522.67299,9.348 478.04373,11.5342 403.78728,25.0285 264.01929,65.58689 237.63375,76.59343 199.94012,112.2516 c -29.09948,26.98864 -60.30981,58.65129 -61.89294,64.38072 0,3.99553 9.49879,17.26369 19.14836,28.19484 l 73.72874,-34.67814 a 4.7046129,4.7046129 0 1 1 3.99553,8.51876 l -76.89501,36.18589 a 4.6740103,4.6740103 0 0 1 -5.50327,-1.05543 c -5.57866,-6.18175 -23.89776,-27.06402 -23.89776,-37.16592 0,-10.10189 35.28124,-43.79999 64.90843,-71.31635 l 38.44751,-36.18588 a 4.6740103,4.6740103 0 0 1 1.43235,-0.90465 L 261.0038,56.6912 401.82721,15.9067 477.21447,2.2616 522.89915,0 568.13151,2.2616 h 1.05542 l 60.83752,18.0175 c 7.53873,1.6586 179.49707,41.01071 204.60103,52.39419 22.61618,10.40344 28.27022,21.25921 29.47642,24.8778 9.27263,13.94664 129.36454,196.00688 133.88778,227.66953 4.52322,31.66265 0,203.54561 0,211.08433 a 3.4678141,3.4678141 0 0 1 -0.37694,1.73391 l -72.44716,167.73666 c -15.68055,40.78451 -56.76661,149.34216 -58.5759,161.93184 -1.28159,9.04647 30.98416,76.97039 62.87297,137.43094 a 4.8247848,4.8247848 0 0 1 -1.96006,6.408 4.9755593,4.9755593 0 0 1 -2.26162,0.5277 4.598623,4.598623 0 0 1 -4.1463,-2.5632 C 910.01274,988.55314 854.90465,882.8602 857.24166,866.275 c 2.337,-16.5852 56.76661,-157.93632 59.179,-164.11807 l 72.07022,-166.60585 c 0,-13.87126 4.29707,-179.04475 0,-208.82272 -3.5432,-25.10395 -97.02341,-170.4506 -132.75697,-224.35249 a 5.4278829,5.4278829 0 0 1 -0.67848,-1.50774 c 0,0 -2.78933,-9.57419 -24.50086,-19.44992 C 806.35526,70.48706 629.57213,30.0795 627.46128,29.6272 Z"
     id="path896"
     style="fill:#999999;stroke-width:7.53872633"
     inkscape:connector-curvature="0" />
  <path
     class="f738cf65-3d70-4de2-96af-26b657d9f360"
     d="m 7.8533723,691.75349 a 35.658175,35.658175 0 0 0 23.5208257,21.8623 165.17349,165.17349 0 0 0 46.81549,1.96007 6.4079173,6.4079173 0 0 1 4.146299,1.13081 c 0,0 0.753873,0.67849 0.753873,2.41239 a 65.662305,65.662305 0 0 0 0.603098,8.2926 64.003786,64.003786 0 0 1 -0.376937,18.84682 61.591393,61.591393 0 0 1 -16.660585,28.34561 1.5831325,1.5831325 0 0 1 0,0.45232 v 0.45232 l -0.52771,1.05543 a 1.0554217,1.0554217 0 0 0 0,0.45232 4.1462994,4.1462994 0 0 0 0,1.65852 v 0 c 0,0 0,0 0,0.37694 a 3.3924268,3.3924268 0 0 0 0,0.82926 193.82065,193.82065 0 0 1 8.669535,24.87779 39.879862,39.879862 0 0 0 19.072977,22.61618 40.935283,40.935283 0 0 0 -10.101893,18.24372 c -2.563167,12.89122 8.594148,29.02409 9.875731,30.83339 l 16.132874,18.46988 a 2.5631669,2.5631669 0 0 0 0.67849,0.6031 8.5187606,8.5187606 0 0 1 1.05542,11.91118 70.034767,70.034767 0 0 1 -8.97108,10.78038 c -6.709473,7.01102 -14.323587,15.07745 -14.323587,25.63167 0,3.16627 0,6.48331 -0.52771,9.87573 a 61.516006,61.516006 0 0 0 5.277108,37.01515 39.502925,39.502925 0 0 0 33.019619,31.96423 232.87125,232.87125 0 0 0 53.2988,11.8358 c 37.69363,4.674 96.49569,0.6785 124.76592,-1.2816 l 5.57866,-0.377 c 24.19931,-1.5831 37.69363,1.734 47.79552,11.9112 a 55.786574,55.786574 0 0 1 13.64509,20.8823 c 0.6031,5.2771 6.5587,56.4651 6.5587,68.7532 a 61.892942,61.892942 0 0 0 12.06196,30.1549 c 2.41239,3.8447 4.82478,7.5387 6.70946,11.6096 a 371.20688,371.20688 0 0 0 32.11498,44.1016 4.8247848,4.8247848 0 0 0 6.63408,0.6031 4.6740103,4.6740103 0 0 0 0.60309,-6.6341 372.56385,372.56385 0 0 1 -30.90877,-42.2923 c -2.11085,-4.1463 -4.59863,-8.2926 -7.08641,-12.2881 a 54.881927,54.881927 0 0 1 -10.70499,-25.4055 c 0,-13.4189 -6.40791,-67.8485 -6.63408,-70.2609 0,0 0,-0.5277 0,-0.7539 a 65.360756,65.360756 0 0 0 -16.13287,-25.3301 c -12.36351,-12.3635 -27.8179,-16.4344 -55.10809,-14.6251 l -5.57866,0.3769 c -28.04406,1.9601 -86.31841,5.8802 -123.03201,1.357 -8.74492,-1.1308 -16.35903,-2.4124 -22.61618,-3.694 a 668.7604,668.7604 0 0 0 148.81446,-31.58727 c 15.07745,-5.27711 30.1549,-10.10189 45.23236,-15.07745 C 408.989,956.43816 458.14149,940.68223 485.884,910.82887 l 45.23236,-49.07711 c -11.68502,17.48985 -24.95318,36.48744 -35.88434,50.13253 -26.0086,32.5673 -109.91462,111.57311 -110.74388,112.40241 a 4.7493975,4.7493975 0 0 0 0,6.6341 4.7493975,4.7493975 0 0 0 6.70946,0 c 3.46782,-3.2417 85.18761,-80.28746 111.64854,-113.08091 25.40551,-31.73804 62.57143,-91.1432 65.81308,-96.26954 1.80929,-1.65852 7.53872,-10.17728 7.53872,-43.72461 0,-24.42547 0.6031,-47.19243 1.05543,-58.72668 l 3.31704,2.33701 a 75.839586,75.839586 0 0 1 7.53872,6.40792 c 7.53873,6.93562 15.60516,14.09741 32.41652,5.72943 16.81136,-8.36799 93.17866,-68.97935 100.41584,-83.4537 0.6031,-1.13081 57.82203,-118.13184 52.77108,-133.43546 -12.06196,-36.26127 -29.25026,-80.36282 -42.44303,-84.28296 -13.19277,-3.92013 -71.54251,-8.89569 -81.71979,-0.45232 -7.99105,6.70947 -42.29225,43.49845 -43.72461,45.23236 a 4.8247848,4.8247848 0 0 0 0,6.70946 4.7493975,4.7493975 0 0 0 6.70946,0 c 12.13735,-13.04199 36.78899,-39.12598 42.81997,-44.17693 6.03098,-5.05095 58.34974,-2.18623 72.97487,2.26162 5.50327,1.58313 20.05301,29.62719 36.26127,78.25198 1.8093,10.40344 -38.52289,98.8327 -52.24337,126.19827 -5.88021,11.91119 -78.32737,70.33632 -96.19415,79.23201 -11.08192,5.50327 -14.47435,2.4124 -21.8623,-4.29707 a 106.67298,106.67298 0 0 0 -8.74493,-7.16179 c -11.8358,-8.21721 -13.94664,-9.72496 -17.03752,-6.03098 a 4.8247848,4.8247848 0 0 0 -0.90464,3.92014 c 0,5.05094 -1.28159,34.22581 -1.28159,66.2654 0,30.83339 -5.12633,37.3167 -5.20172,37.69363 L 478.1945,905.3256 c -26.08399,28.04406 -74.18106,43.42306 -129.89225,61.28984 -14.70052,4.67401 -30.1549,9.57419 -45.23236,15.07746 a 619.30636,619.30636 0 0 1 -172.86299,32.4919 h -2.41239 a 11.911187,11.911187 0 0 1 -2.41239,-1.0554 4.900172,4.900172 0 0 0 -3.84475,0 32.190361,32.190361 0 0 1 -19.60069,-23.97316 5.1263338,5.1263338 0 0 0 -0.52771,-1.50775 52.31876,52.31876 0 0 1 -4.447854,-32.26575 c 0,-3.69397 0.527711,-7.53872 0.527711,-10.6296 0,-6.86024 5.654043,-12.81584 11.685033,-19.14837 a 72.070223,72.070223 0 0 0 10.25266,-12.36351 17.866781,17.866781 0 0 0 -3.01549,-23.97315 L 104.04752,875.1707 c 2.48778,0 5.12634,0 7.53873,0 h 4.52323 c 7.53873,-0.45233 19.5253,-6.5587 35.73357,-15.07746 4.67401,-2.48778 8.97108,-4.74939 12.43889,-6.40791 a 227.97108,227.97108 0 0 0 35.43202,-25.40551 4.7493975,4.7493975 0 0 0 1.05542,-5.9556 4.8247848,4.8247848 0 0 0 -5.65405,-2.11084 31.964199,31.964199 0 0 1 -25.55628,-4.37246 145.64819,145.64819 0 0 1 -20.1284,-16.05749 100.34045,100.34045 0 0 0 -23.21927,-17.41445 C 113.99864,776.79032 97.790376,770.3824 90.025488,771.13627 l -8.292599,1.05543 a 55.560412,55.560412 0 0 0 10.855766,-23.74699 72.824095,72.824095 0 0 0 0.452323,-21.25921 66.340791,66.340791 0 0 1 -0.527711,-7.53873 11.986575,11.986575 0 0 0 -3.84475,-9.34802 15.755938,15.755938 0 0 0 -11.308089,-3.5432 161.5549,161.5549 0 0 1 -43.423063,-1.65852 26.687091,26.687091 0 0 1 -17.263683,-16.05748 C 13.808966,683.23473 7.476436,668.38344 9.1349557,660.39239 10.793475,652.40134 23.458535,636.11769 28.207933,630.23748 l 27.440963,-38.82444 27.440964,-47.9463 24.72702,-38.22134 a 4.900172,4.900172 0 0 0 0.75388,-3.09088 l -2.26162,-20.35456 v -0.98003 A 228.72495,228.72495 0 0 1 95.227209,421.1886 c 0,-25.25473 19.223751,-51.18795 19.449921,-51.4895 a 5.3524956,5.3524956 0 0 0 0.82926,-1.88468 l 4.52323,-22.61618 a 5.7294319,5.7294319 0 0 0 0,-1.13081 512.18106,512.18106 0 0 1 0,-59.93287 c 1.50775,-7.53873 22.61618,-40.48296 35.5074,-59.40516 a 4.7493975,4.7493975 0 0 0 -7.53872,-5.27711 c -3.46782,5.12633 -34.52737,50.8864 -36.93976,62.79759 a 509.84405,509.84405 0 0 0 0,61.66678 l -4.22169,21.03305 c -3.61859,5.12633 -20.656113,30.1549 -20.656113,56.23889 a 235.20826,235.20826 0 0 0 11.383477,62.11911 l 2.035456,18.24371 -23.973149,37.09054 -27.290189,47.72013 -26.913253,38.07057 c -1.65852,1.8093 -18.4698788,21.56076 -20.95765842,33.77349 -2.48777968,12.21274 5.72943192,30.30568 7.38795172,33.54734 z m 68.7531827,89.937 c 4.67401,-0.67849 10.931153,-1.65852 14.32358,-2.03546 3.392427,-0.37693 13.268165,2.26162 31.361105,10.47883 a 95.289499,95.289499 0 0 1 20.88227,15.83133 155.0716,155.0716 0 0 0 21.48537,17.11291 44.32771,44.32771 0 0 0 17.71601,6.33253 144.36661,144.36661 0 0 1 -22.08847,15.07745 c -3.61859,1.73391 -8.06644,4.07091 -12.81584,6.55869 a 136.52633,136.52633 0 0 1 -31.96419,14.09742 101.69742,101.69742 0 0 1 -18.771436,-0.98003 28.64716,28.64716 0 0 1 -4.146299,-16.5852 35.733562,35.733562 0 0 1 11.911195,-17.56523 4.8247848,4.8247848 0 0 0 0.82925,-1.2062 c 6.03099,0.52771 18.31911,1.43236 28.34562,1.43236 a 48.47401,48.47401 0 0 0 13.34354,-1.2062 4.6985682,4.6985682 0 1 0 -3.24165,-8.82031 197.36385,197.36385 0 0 1 -38.97522,-0.90465 4.6740103,4.6740103 0 0 0 -3.84475,1.58314 33.396557,33.396557 0 0 1 -17.565231,-18.54527 c -2.563167,-9.19725 -5.050947,-16.13287 -6.784854,-20.65611 z"
     id="path898"
     style="fill:#999999;stroke-width:7.53872633"
     inkscape:connector-curvature="0" />
  <path
     class="f738cf65-3d70-4de2-96af-26b657d9f360"
     d="m 106.30914,448.55418 a 4.598623,4.598623 0 0 1 2.11084,-6.25714 c 0,0 5.3525,-2.71395 14.70052,-6.70947 a 616.14009,616.14009 0 0 1 72.07022,-17.41446 c 12.21274,-1.50774 25.02857,7.01102 41.23683,17.86678 16.20827,10.85577 62.49604,45.83546 64.45611,47.3432 a 4.598623,4.598623 0 0 1 0.90465,6.5587 4.5232357,4.5232357 0 0 1 -3.76936,1.88468 4.7493975,4.7493975 0 0 1 -2.78933,-0.90465 c -0.52771,-0.37694 -48.62479,-36.78898 -64.07917,-47.04165 -15.45439,-10.25267 -26.00861,-17.41446 -34.82892,-16.35904 a 644.4857,644.4857 0 0 0 -69.50706,16.73598 c -8.97108,3.84475 -14.09741,6.40791 -14.1728,6.40791 a 4.6740103,4.6740103 0 0 1 -6.33253,-2.11084 z"
     id="path900"
     style="fill:#808080;stroke-width:7.53872633"
     inkscape:connector-curvature="0" />
  <path
     class="f738cf65-3d70-4de2-96af-26b657d9f360"
     d="m 691.16352,460.38998 c -6.86024,0 -30.15491,17.94217 -42.81997,27.59174 -6.63408,5.05094 -11.8358,9.04647 -15.07745,11.00654 a 132.98313,132.98313 0 0 1 -17.79139,9.57418 4.7493975,4.7493975 0 0 1 -3.5432,-8.74492 107.04991,107.04991 0 0 0 16.28364,-8.82031 c 2.86472,-1.73391 8.14183,-5.80482 14.32358,-10.47883 21.78692,-16.73597 39.27677,-29.55181 48.5494,-29.55181 15.07745,0 34.67814,20.05301 43.27229,33.62272 9.4988,15.07745 8.2926,42.44303 -3.39243,77.49811 a 572.49087,572.49087 0 0 1 -22.61618,56.91738 4.6740103,4.6740103 0 0 1 -4.22168,2.63855 3.9955249,3.9955249 0 0 1 -2.03546,-0.45232 4.7493975,4.7493975 0 0 1 -2.26162,-6.25714 542.78829,542.78829 0 0 0 22.08847,-55.86196 c 10.62961,-31.81343 12.21274,-57.14355 4.44785,-69.43167 -9.42341,-15.00207 -26.6117,-29.25026 -35.20585,-29.25026 z"
     id="path902"
     style="fill:#999999;stroke-width:7.53872633"
     inkscape:connector-curvature="0" />
  <path
     class="f738cf65-3d70-4de2-96af-26b657d9f360"
     d="m 654.44992,515.42268 a 47.720137,47.720137 0 0 0 -28.87332,12.36351 4.6740103,4.6740103 0 0 1 -7.53873,-5.20172 54.052667,54.052667 0 0 1 36.7136,-16.5852 c 17.86678,0 27.2148,15.60517 30.15491,20.65611 4.29707,7.16179 1.88468,39.20138 0.67848,52.77109 a 4.6740103,4.6740103 0 0 1 -4.67401,4.29707 h -0.45232 a 4.7493975,4.7493975 0 0 1 -4.29708,-5.12633 c 1.8093,-19.60069 2.56317,-43.19691 0.67849,-46.96627 a 26.98864,26.98864 0 0 0 -22.39002,-16.20826 z"
     id="path904"
     style="fill:#999999;stroke-width:7.53872633"
     inkscape:connector-curvature="0" />
  <path
     class="f738cf65-3d70-4de2-96af-26b657d9f360"
     d="m 614.41929,639.96244 a 20.882272,20.882272 0 0 1 -3.69398,0 13.720482,13.720482 0 0 1 -9.04647,-2.86472 23.294664,23.294664 0 0 1 -7.01102,-17.33907 c -0.82926,-8.21721 5.3525,-17.79139 11.8358,-27.96867 5.12634,-7.91567 10.93116,-16.96214 10.47883,-21.86231 -0.98003,-9.49879 -13.72048,-25.93322 -18.54526,-31.43649 a 4.7493975,4.7493975 0 1 1 7.0864,-6.25714 c 1.96007,2.26162 19.37453,22.61618 20.80688,36.7136 0.82926,8.21721 -5.35249,17.79139 -11.8358,27.96867 -5.12633,7.99105 -10.93115,16.96213 -10.47883,21.86231 0.45233,4.90017 1.73391,9.64957 3.46782,10.93115 0,0 1.50774,1.2062 5.57866,0.67849 4.07091,-0.52772 26.31015,-20.50534 43.1969,-37.69364 a 4.7493975,4.7493975 0 0 1 6.70946,0 4.6740103,4.6740103 0 0 1 0,6.63408 c -11.30809,11.68503 -38.82444,39.27677 -48.54939,40.63374 z"
     id="path906"
     style="fill:#999999;stroke-width:7.53872633"
     inkscape:connector-curvature="0" />
  <path
     class="f738cf65-3d70-4de2-96af-26b657d9f360"
     d="m 162.84959,532.83714 5.35249,10.55421 a 4.5232357,4.5232357 0 0 0 -2.26162,3.16627 c -1.28158,6.33253 -0.98003,18.01756 8.36799,21.10843 l 2.71394,0.98004 a 65.059207,65.059207 0 0 0 21.78692,4.59862 38.598278,38.598278 0 0 0 11.08193,-1.58313 171.88296,171.88296 0 0 0 34.07504,-17.64062 4.7493975,4.7493975 0 0 0 1.28158,-6.55869 4.6740103,4.6740103 0 0 0 -6.4833,-1.28159 167.66127,167.66127 0 0 1 -31.58726,16.43443 42.66919,42.66919 0 0 1 -26.98864,-2.86472 l -2.94011,-1.05542 c -1.96007,-0.6031 -2.48778,-3.92014 -2.41239,-6.78485 a 161.25335,161.25335 0 0 0 43.42306,-7.99105 c 9.64957,-3.99553 13.72049,-7.01102 15.07746,-11.15732 a 11.081928,11.081928 0 0 0 -3.31704,-9.95112 107.87917,107.87917 0 0 0 -40.63374,-24.42547 38.749053,38.749053 0 0 0 -28.34561,1.96007 68.602409,68.602409 0 0 1 -6.40792,-16.5852 46.890877,46.890877 0 0 1 22.16386,-1.13081 c 7.01101,0.90465 49.37866,22.61618 74.40723,36.18589 a 4.7493975,4.7493975 0 0 0 5.8802,-1.50775 4.7493975,4.7493975 0 0 0 -1.88468,-6.40792 c -11.08193,-5.95559 -66.94389,-35.88433 -77.72427,-37.2413 -5.35249,-0.67849 -23.14388,-2.33701 -30.1549,3.61859 a 8.2925988,8.2925988 0 0 0 -2.9401,6.33253 84.282959,84.282959 0 0 0 9.72495,25.78244 5.2017211,5.2017211 0 0 0 3.09088,2.41239 h 0.75387 a 56.540447,56.540447 0 0 0 4.90018,21.03305 z m 4.97556,-22.23924 a 4.6740103,4.6740103 0 0 0 -0.90465,-2.63856 28.345611,28.345611 0 0 1 19.14836,-0.6031 104.93907,104.93907 0 0 1 35.80895,20.65611 c 0.67849,0.98004 1.43236,1.88468 1.8093,2.48778 a 36.035111,36.035111 0 0 1 -9.04648,4.7494 140.52186,140.52186 0 0 1 -35.28123,6.86024 l -2.33701,-2.18623 -5.72943,-11.30809 a 50.132529,50.132529 0 0 1 -3.46781,-18.01755 z"
     id="path908"
     style="fill:#999999;stroke-width:7.53872633"
     inkscape:connector-curvature="0" />
  <path
     class="f738cf65-3d70-4de2-96af-26b657d9f360"
     d="m 131.33771,710.22337 a 4.9755593,4.9755593 0 0 1 -2.26162,0.52771 4.6740103,4.6740103 0 0 1 -2.18623,-8.82031 39.502925,39.502925 0 0 0 16.35904,-26.31016 135.01859,135.01859 0 0 0 -4.67401,-36.18588 4.7493975,4.7493975 0 1 1 9.19724,-2.26162 c 0.67849,2.9401 6.86024,28.79793 4.67401,40.18141 a 48.323235,48.323235 0 0 1 -21.10843,32.86885 z"
     id="path910"
     style="fill:#999999;stroke-width:7.53872633"
     inkscape:connector-curvature="0" />
  <path
     class="f738cf65-3d70-4de2-96af-26b657d9f360"
     d="m 72.460256,688.05951 a 77.875042,77.875042 0 0 1 26.913252,13.94664 c 2.337012,1.65852 4.372462,3.09088 5.880212,3.92014 a 4.7493975,4.7493975 0 0 1 1.88468,6.40792 4.6740103,4.6740103 0 0 1 -6.40792,1.88468 c -1.809295,-0.98003 -4.070913,-2.63855 -6.784855,-4.52323 a 45.232357,45.232357 0 0 0 -53.600343,-7.53873 4.6985683,4.6985683 0 0 1 -3.241652,-8.82031 81.569018,81.569018 0 0 1 35.356626,-5.27711 z"
     id="path912"
     style="fill:#999999;stroke-width:7.53872633"
     inkscape:connector-curvature="0" />
  <path
     class="f738cf65-3d70-4de2-96af-26b657d9f360"
     d="M 520.03443,1053.8385 C 531.4933,996.4688 548.0785,897.25916 548.22927,896.27913 a 4.8247848,4.8247848 0 0 1 5.42788,-3.92014 4.6740103,4.6740103 0 0 1 3.84475,5.42788 c 0,1.05543 -16.73597,100.34045 -28.19483,157.86093 -11.45887,57.5205 -34.67814,156.8055 -34.90431,157.8609 a 4.7493975,4.7493975 0 0 1 -4.59862,3.6186 h -1.05542 a 4.6740103,4.6740103 0 0 1 -3.5432,-5.654 c 0.22616,-1.1308 23.37005,-100.3405 34.82891,-157.6348 z"
     id="path914"
     style="fill:#999999;stroke-width:7.53872633"
     inkscape:connector-curvature="0" />
  <path
     class="f738cf65-3d70-4de2-96af-26b657d9f360"
     d="m 738.43133,662.05091 a 4.6740103,4.6740103 0 0 1 6.25714,2.26161 c 0,0.37694 18.3945,38.37212 36.33667,69.35628 17.94216,30.98417 44.70464,84.35835 45.23235,84.88606 a 4.6740103,4.6740103 0 0 1 -2.03545,6.33253 4.3724612,4.3724612 0 0 1 -2.11085,0.52771 4.7493975,4.7493975 0 0 1 -4.22168,-2.63855 c 0,-0.52771 -26.76248,-53.37418 -44.70465,-84.35835 -17.94217,-30.98416 -36.48743,-69.65783 -36.7136,-70.11015 a 4.6740103,4.6740103 0 0 1 1.96007,-6.25714 z"
     id="path916"
     style="fill:#999999;stroke-width:7.53872633"
     inkscape:connector-curvature="0" />
  <path
     class="f738cf65-3d70-4de2-96af-26b657d9f360"
     d="m 113.84787,524.84609 a 64.98382,64.98382 0 0 0 4.52323,-15.07745 4.7493975,4.7493975 0 0 1 5.42788,-3.84475 4.8247848,4.8247848 0 0 1 3.92014,5.42788 77.875042,77.875042 0 0 1 -5.42788,17.94217 c -3.39243,6.70946 -60.309814,93.4802 -66.717731,103.35593 a 4.598623,4.598623 0 0 1 -3.920138,2.18623 4.5232357,4.5232357 0 0 1 -2.563167,-0.82926 4.6740103,4.6740103 0 0 1 -1.35697,-6.4833 C 72.912579,588.62371 111.43547,529.44471 113.84787,524.84609 Z"
     id="path918"
     style="fill:#999999;stroke-width:7.53872633"
     inkscape:connector-curvature="0" />
</svg>
