<?xml version="1.0" encoding="UTF-8" standalone="no"?>
<svg
   xmlns:dc="http://purl.org/dc/elements/1.1/"
   xmlns:cc="http://creativecommons.org/ns#"
   xmlns:rdf="http://www.w3.org/1999/02/22-rdf-syntax-ns#"
   xmlns:svg="http://www.w3.org/2000/svg"
   xmlns="http://www.w3.org/2000/svg"
   xmlns:sodipodi="http://sodipodi.sourceforge.net/DTD/sodipodi-0.dtd"
   xmlns:inkscape="http://www.inkscape.org/namespaces/inkscape"
   id="be6eca6b-17cd-44da-ab7f-d5ebc9f4c61d"
   data-name="Ebene 1"
   viewBox="0 0 132.72 162.12"
   version="1.1"
   sodipodi:docname="cmd_head_right_side.svg"
   inkscape:version="0.92.3 (2405546, 2018-03-11)">
  <metadata
     id="metadata923">
    <rdf:RDF>
      <cc:Work
         rdf:about="">
        <dc:format>image/svg+xml</dc:format>
        <dc:type
           rdf:resource="http://purl.org/dc/dcmitype/StillImage" />
      </cc:Work>
    </rdf:RDF>
  </metadata>
  <sodipodi:namedview
     pagecolor="#ffffff"
     bordercolor="#666666"
     borderopacity="1"
     objecttolerance="10"
     gridtolerance="10"
     guidetolerance="10"
     inkscape:pageopacity="0"
     inkscape:pageshadow="2"
     inkscape:window-width="3840"
     inkscape:window-height="2092"
     id="namedview921"
     showgrid="false"
     inkscape:zoom="11.725882"
     inkscape:cx="66.360001"
     inkscape:cy="81.059998"
     inkscape:window-x="0"
     inkscape:window-y="0"
     inkscape:window-maximized="1"
     inkscape:current-layer="be6eca6b-17cd-44da-ab7f-d5ebc9f4c61d" />
  <defs
     id="defs892">
    <style
       id="style890">.a49a3fc0-3d13-452c-8b40-9675232c5beb{fill:#009640;}</style>
  </defs>
  <title
     id="title894">cmd_head_right_side</title>
  <path
     class="a49a3fc0-3d13-452c-8b40-9675232c5beb"
     d="M412.25,217.92l5.87-.3,5.92.29,9.84,1.79,18.55,5.38,3.5,1.46,5,4.73c3.86,3.58,8,7.78,8.21,8.54,0,.53-1.26,2.29-2.54,3.74l-9.78-4.6a.62.62,0,0,0-.53,1.13l10.2,4.8a.62.62,0,0,0,.73-.14c.74-.82,3.17-3.59,3.17-4.93s-4.68-5.81-8.61-9.46l-5.1-4.8a.62.62,0,0,0-.19-.12l-3.66-1.53-18.68-5.41-10-1.81-6.06-.3-6,.3-.14,0-8.07,2.39c-1,.22-23.81,5.44-27.14,6.95-3,1.38-3.75,2.82-3.91,3.3-1.23,1.85-17.16,26-17.76,30.2s0,27,0,28a.6.6,0,0,0,.06.23L364.73,310c2.08,5.41,7.53,19.81,7.77,21.48.17,1.2-4.11,10.21-8.34,18.23a.64.64,0,0,0,.26.85.65.65,0,0,0,.29.07.62.62,0,0,0,.56-.34c1.47-2.78,8.78-16.8,8.47-19s-7.53-20.95-7.85-21.77l-9.56-22.1c0-1.84-.57-23.75,0-27.7.47-3.33,12.87-22.61,17.61-29.76a.72.72,0,0,0,.09-.2s.37-1.27,3.25-2.58c3.21-1.45,26.66-6.81,26.94-6.87Z"
     transform="translate(-354.82 -216.38)"
     id="path896"
     style="fill:#999999" />
  <path
     class="a49a3fc0-3d13-452c-8b40-9675232c5beb"
     d="M487.48,303.67c-.33-1.62-2.56-4.24-2.78-4.48l-3.57-5.05-3.62-6.33-3.18-4.92.27-2.42a31.2,31.2,0,0,0,1.51-8.24c0-3.43-2.26-6.78-2.74-7.46l-.56-2.79a67.63,67.63,0,0,0,0-8.18c-.32-1.58-4.44-7.65-4.9-8.33a.63.63,0,0,0-1,.7c1.72,2.51,4.51,6.87,4.71,7.88a67.94,67.94,0,0,1,0,7.95.76.76,0,0,0,0,.15l.6,3a.71.71,0,0,0,.11.25s2.58,3.48,2.58,6.83a30.34,30.34,0,0,1-1.47,7.91l0,.13-.3,2.7a.65.65,0,0,0,.1.41l3.28,5.07,3.64,6.36,3.64,5.15c.63.73,2.31,2.85,2.53,4s-.63,3-1,3.8a3.54,3.54,0,0,1-2.29,2.13,21.43,21.43,0,0,1-5.76.22,2.09,2.09,0,0,0-1.5.47,1.59,1.59,0,0,0-.51,1.24,8.8,8.8,0,0,1-.07,1,9.66,9.66,0,0,0,.06,2.82,7.37,7.37,0,0,0,1.44,3.15l-1.1-.14c-1-.1-3.18.75-4.8,1.49a13.31,13.31,0,0,0-3.08,2.31,19.32,19.32,0,0,1-2.67,2.13,4.24,4.24,0,0,1-3.39.58.64.64,0,0,0-.75.28.63.63,0,0,0,.14.79,30.24,30.24,0,0,0,4.7,3.37c.46.22,1,.52,1.65.85,2.15,1.14,3.76,1.95,4.74,2l.6,0c.36,0,.71,0,1,0l-1.64,1.87a2.37,2.37,0,0,0-.4,3.18A9.12,9.12,0,0,0,473,339c.79.84,1.55,1.63,1.55,2.54,0,.45,0,.92.07,1.41a6.94,6.94,0,0,1-.59,4.28.68.68,0,0,0-.07.2,4.27,4.27,0,0,1-2.6,3.18.65.65,0,0,0-.51,0,1.58,1.58,0,0,1-.32.14l-.32,0a82.09,82.09,0,0,1-22.93-4.31c-2-.7-4.05-1.35-6-2-7.39-2.37-13.77-4.41-17.23-8.13l-11-11.84s-.69-.87-.69-5c0-4.25-.14-8.12-.17-8.79a.64.64,0,0,0-.12-.52c-.41-.49-.69-.29-2.26.8a14.15,14.15,0,0,0-1.16.95c-1,.89-1.43,1.3-2.9.57-2.37-1.18-12-8.93-12.76-10.51-1.82-3.63-7.17-15.36-6.93-16.74,2.15-6.45,4.08-10.17,4.81-10.38,1.94-.59,8.86-.9,9.68-.3s4.07,4.13,5.68,5.86a.63.63,0,0,0,.89,0,.64.64,0,0,0,0-.89c-.2-.2-4.74-5.08-5.8-6-1.35-1.12-9.19-.44-10.84.06s-4,6.37-5.63,11.18c-.68,2,6.91,17.55,7,17.7,1,1.92,10.94,9.88,13.32,11.07,2.23,1.11,3.28.16,4.3-.76a10.06,10.06,0,0,1,1-.85l.44-.31c.06,1.53.14,4.55.14,7.79,0,4.45.77,5.58,1,5.8.42.68,5.36,8.56,8.73,12.77,3.51,4.39,14.35,14.61,14.81,15a.63.63,0,0,0,.89,0,.63.63,0,0,0,0-.88c-.11-.11-11.24-10.59-14.69-14.91-1.46-1.81-3.21-4.33-4.76-6.65l6,6.51c3.67,4,10.2,6.05,17.75,8.47,2,.62,4,1.26,6,2a88.71,88.71,0,0,0,19.74,4.19c-.87.17-1.88.34-3,.49-4.87.6-12.6.08-16.32-.18l-.74-.05c-3.62-.24-5.67.3-7.31,1.94a8.67,8.67,0,0,0-2.14,3.36s0,.06,0,.1c0,.3-.88,7.54-.88,9.32a7.28,7.28,0,0,1-1.42,3.37c-.33.53-.66,1.08-.94,1.63a49.42,49.42,0,0,1-4.1,5.61.62.62,0,0,0,.08.88.64.64,0,0,0,.88-.08,49.24,49.24,0,0,0,4.26-5.85c.25-.5.57-1,.88-1.54a8.14,8.14,0,0,0,1.61-4c0-1.63.79-8.42.87-9.12A7.4,7.4,0,0,1,440.1,355c1.35-1.35,3.13-1.79,6.34-1.58l.73.05c3.76.26,11.57.79,16.56.17A30.89,30.89,0,0,0,470.8,352a5.24,5.24,0,0,0,4.38-4.24,8.16,8.16,0,0,0,.7-4.91c0-.45-.07-.89-.07-1.31,0-1.41-1-2.47-1.9-3.4a8.27,8.27,0,0,1-1.19-1.43,1.13,1.13,0,0,1,.14-1.58.34.34,0,0,0,.09-.08l2.14-2.45c.17-.24,1.65-2.38,1.31-4.09a5.43,5.43,0,0,0-1.34-2.42,5.29,5.29,0,0,0,2.53-3,25.71,25.71,0,0,1,1.15-3.3.45.45,0,0,0,0-.11s0,0,0-.05h0a.81.81,0,0,0,0-.22.14.14,0,0,0,0-.06.91.91,0,0,0-.07-.14l0-.06a.21.21,0,0,1,0-.06,8.17,8.17,0,0,1-2.21-3.76,8.49,8.49,0,0,1,0-2.5,8.71,8.71,0,0,0,.08-1.1c0-.23.07-.3.1-.32a.85.85,0,0,1,.55-.15,21.91,21.91,0,0,0,6.21-.26,4.73,4.73,0,0,0,3.12-2.9C486.63,307.71,487.8,305.27,487.48,303.67Zm-11.09,19.12a4.43,4.43,0,0,1-2.33,2.46.62.62,0,0,0-.51-.21,26.18,26.18,0,0,1-5.17.12.62.62,0,0,0-.43,1.17,6.43,6.43,0,0,0,1.77.16c1.33,0,3-.12,3.76-.19a.64.64,0,0,0,.11.16,4.74,4.74,0,0,1,1.58,2.33,3.8,3.8,0,0,1-.55,2.2,13.49,13.49,0,0,1-2.49.13,18.11,18.11,0,0,1-4.24-1.87c-.63-.33-1.22-.64-1.7-.87a19.15,19.15,0,0,1-2.93-2,5.88,5.88,0,0,0,2.35-.84,20.57,20.57,0,0,0,2.85-2.27,12.64,12.64,0,0,1,2.77-2.1c2.4-1.09,3.73-1.43,4.16-1.39s1.28.18,1.9.27C477.06,320.67,476.73,321.59,476.39,322.79Z"
     transform="translate(-354.82 -216.38)"
     id="path898"
     style="fill:#999999" />
  <path
     class="a49a3fc0-3d13-452c-8b40-9675232c5beb"
     d="M473.39,275.88a.62.62,0,0,0-.28-.83s-.71-.36-1.95-.89a81.73,81.73,0,0,0-9.56-2.31c-1.62-.2-3.32.93-5.47,2.37s-8.29,6.08-8.55,6.28a.61.61,0,0,0-.12.87.6.6,0,0,0,.5.25.63.63,0,0,0,.37-.12c.07-.05,6.45-4.88,8.5-6.24s3.45-2.31,4.62-2.17a85.49,85.49,0,0,1,9.22,2.22c1.19.51,1.87.85,1.88.85A.62.62,0,0,0,473.39,275.88Z"
     transform="translate(-354.82 -216.38)"
     id="path900"
     style="fill:#999999" />
  <path
     class="a49a3fc0-3d13-452c-8b40-9675232c5beb"
     d="M395.77,277.45c.9,0,4,2.38,5.68,3.66.88.67,1.57,1.2,2,1.46a17,17,0,0,0,2.36,1.27.63.63,0,0,0,.47-1.16,14.52,14.52,0,0,1-2.17-1.17c-.37-.23-1.07-.77-1.89-1.39-2.89-2.22-5.21-3.92-6.44-3.92-2,0-4.6,2.66-5.74,4.46-1.26,2-1.1,5.63.45,10.28a75.94,75.94,0,0,0,3,7.55.62.62,0,0,0,.56.35.53.53,0,0,0,.27-.06.63.63,0,0,0,.3-.83,72,72,0,0,1-2.93-7.41c-1.41-4.22-1.62-7.58-.59-9.21C392.35,279.34,394.63,277.45,395.77,277.45Z"
     transform="translate(-354.82 -216.38)"
     id="path902"
     style="fill:#999999" />
  <path
     class="a49a3fc0-3d13-452c-8b40-9675232c5beb"
     d="M400.64,284.75a6.33,6.33,0,0,1,3.83,1.64.62.62,0,0,0,.87.17.63.63,0,0,0,.17-.86,7.17,7.17,0,0,0-4.87-2.2c-2.37,0-3.61,2.07-4,2.74-.57.95-.25,5.2-.09,7a.62.62,0,0,0,.62.57h.06a.63.63,0,0,0,.57-.68c-.24-2.6-.34-5.73-.09-6.23A3.58,3.58,0,0,1,400.64,284.75Z"
     transform="translate(-354.82 -216.38)"
     id="path904"
     style="fill:#999999" />
  <path
     class="a49a3fc0-3d13-452c-8b40-9675232c5beb"
     d="M406,301.27a2.77,2.77,0,0,0,.49,0,1.82,1.82,0,0,0,1.2-.38,3.09,3.09,0,0,0,.93-2.3c.11-1.09-.71-2.36-1.57-3.71-.68-1.05-1.45-2.25-1.39-2.9.13-1.26,1.82-3.44,2.46-4.17a.63.63,0,1,0-.94-.83c-.26.3-2.57,3-2.76,4.87-.11,1.09.71,2.36,1.57,3.71.68,1.06,1.45,2.25,1.39,2.9s-.23,1.28-.46,1.45c-.05,0-.21.16-.74.09s-3.49-2.72-5.73-5a.63.63,0,0,0-.89,0,.62.62,0,0,0,0,.88C401,297.43,404.66,301.09,406,301.27Z"
     transform="translate(-354.82 -216.38)"
     id="path906"
     style="fill:#999999" />
  <path
     class="a49a3fc0-3d13-452c-8b40-9675232c5beb"
     d="M466.44,284.22h.1a.69.69,0,0,0,.41-.32,11.18,11.18,0,0,0,1.29-3.42,1.1,1.1,0,0,0-.39-.84c-.9-.79-3.26-.57-4-.48-1.43.18-8.84,4.15-10.31,4.94a.63.63,0,0,0-.25.85.63.63,0,0,0,.85.25c3.32-1.79,8.94-4.68,9.87-4.8a6.22,6.22,0,0,1,2.94.15,9.1,9.1,0,0,1-.85,2.2,5.14,5.14,0,0,0-3.76-.26,14.31,14.31,0,0,0-5.39,3.24,1.47,1.47,0,0,0-.44,1.32c.14.55.68.95,2,1.48a21.39,21.39,0,0,0,5.76,1.06c0,.38-.06.82-.32.9l-.39.14A5.68,5.68,0,0,1,460,291a22.38,22.38,0,0,1-4.18-2.18.62.62,0,0,0-.69,1,22.8,22.8,0,0,0,4.52,2.34,5.12,5.12,0,0,0,1.47.21,8.63,8.63,0,0,0,2.89-.61l.36-.13c1.24-.41,1.28-2,1.11-2.8a.58.58,0,0,0-.31-.42c.13-.24.37-.7.72-1.4A7.5,7.5,0,0,0,466.44,284.22Zm-1.71,2.28L464,288l-.31.29a18.64,18.64,0,0,1-4.68-.91,4.78,4.78,0,0,1-1.2-.63c.05-.08.14-.2.24-.33a13.92,13.92,0,0,1,4.75-2.74,3.76,3.76,0,0,1,2.54.08.62.62,0,0,0-.12.35A6.65,6.65,0,0,1,464.73,286.5Z"
     transform="translate(-354.82 -216.38)"
     id="path908"
     style="fill:#999999" />
  <path
     class="a49a3fc0-3d13-452c-8b40-9675232c5beb"
     d="M470,310.59a.66.66,0,0,0,.3.07.64.64,0,0,0,.55-.33.63.63,0,0,0-.26-.84,5.24,5.24,0,0,1-2.17-3.47,17.91,17.91,0,0,1,.62-4.8.63.63,0,1,0-1.22-.3c-.09.39-.91,3.82-.63,5.33A6.46,6.46,0,0,0,470,310.59Z"
     transform="translate(-354.82 -216.38)"
     id="path910"
     style="fill:#999999" />
  <path
     class="a49a3fc0-3d13-452c-8b40-9675232c5beb"
     d="M477.83,307.65a10.28,10.28,0,0,0-3.56,1.85c-.31.22-.58.41-.78.52a.63.63,0,0,0-.25.85.62.62,0,0,0,.85.25c.24-.13.54-.35.9-.6a9.34,9.34,0,0,1,3.1-1.65,9.45,9.45,0,0,1,4,.6.62.62,0,1,0,.43-1.17A10.88,10.88,0,0,0,477.83,307.65Z"
     transform="translate(-354.82 -216.38)"
     id="path912"
     style="fill:#999999" />
  <path
     class="a49a3fc0-3d13-452c-8b40-9675232c5beb"
     d="M418.47,356.17c-1.52-7.61-3.72-20.77-3.74-20.9a.64.64,0,0,0-.72-.52.62.62,0,0,0-.51.72c0,.14,2.22,13.31,3.74,20.94s4.6,20.8,4.63,20.94a.63.63,0,0,0,.61.48l.14,0a.62.62,0,0,0,.47-.75C423.06,376.93,420,363.77,418.47,356.17Z"
     transform="translate(-354.82 -216.38)"
     id="path914"
     style="fill:#999999" />
  <path
     class="a49a3fc0-3d13-452c-8b40-9675232c5beb"
     d="M389.5,304.2a.62.62,0,0,0-.83.3c0,.05-2.44,5.09-4.82,9.2s-5.93,11.19-6,11.26a.64.64,0,0,0,.28.84.58.58,0,0,0,.28.07.63.63,0,0,0,.56-.35c0-.07,3.54-7.08,5.93-11.19s4.84-9.24,4.87-9.3A.62.62,0,0,0,389.5,304.2Z"
     transform="translate(-354.82 -216.38)"
     id="path916"
     style="fill:#999999" />
  <path
     class="a49a3fc0-3d13-452c-8b40-9675232c5beb"
     d="M472.36,286a8.62,8.62,0,0,1-.6-2,.63.63,0,0,0-.72-.51.64.64,0,0,0-.52.72,9.82,9.82,0,0,0,.72,2.38c.45.89,8,12.4,8.85,13.71a.61.61,0,0,0,.52.29.6.6,0,0,0,.34-.11.62.62,0,0,0,.18-.86C477.78,294.46,472.67,286.61,472.36,286Z"
     transform="translate(-354.82 -216.38)"
     id="path918"
     style="fill:#999999" />
</svg>
