<?xml version="1.0" encoding="UTF-8" standalone="no" ?>
<svg xmlns:dc="http://purl.org/dc/elements/1.1/" xmlns:cc="http://creativecommons.org/ns#" xmlns:rdf="http://www.w3.org/1999/02/22-rdf-syntax-ns#" xmlns:svg="http://www.w3.org/2000/svg" xmlns="http://www.w3.org/2000/svg" xmlns:sodipodi="http://sodipodi.sourceforge.net/DTD/sodipodi-0.dtd" xmlns:inkscape="http://www.inkscape.org/namespaces/inkscape" id="b5832c9c-6a4b-463f-9701-fe878ccae5fc" data-name="Ebene 1" viewBox="0 0 112.87 162.34" version="1.1" sodipodi:docname="cmd_head_frontal_side.svg" inkscape:version="0.92.3 (2405546, 2018-03-11)">
   <metadata id="metadata949">
      <rdf:RDF>
         <cc:Work rdf:about="">
            <dc:format>image/svg+xml</dc:format>
            <dc:type rdf:resource="http://purl.org/dc/dcmitype/StillImage" />
         </cc:Work>
      </rdf:RDF>
   </metadata>
   <sodipodi:namedview pagecolor="#ffffff" bordercolor="#666666" borderopacity="1" objecttolerance="10" gridtolerance="10" guidetolerance="10" inkscape:pageopacity="0" inkscape:pageshadow="2" inkscape:window-width="3840" inkscape:window-height="2092" id="namedview947" showgrid="false" inkscape:zoom="11.709992" inkscape:cx="56.435001" inkscape:cy="81.169998" inkscape:window-x="0" inkscape:window-y="0" inkscape:window-maximized="1" inkscape:current-layer="b5832c9c-6a4b-463f-9701-fe878ccae5fc" />
   <defs id="defs912">
      <style id="style910">.e69fe641-39f5-42e4-9124-0923886224ea{fill:#009640;}</style>
   </defs>
   <title id="title914">cmd_head_frontal_side</title>
   <path class="e69fe641-39f5-42e4-9124-0923886224ea" d="M401.32,281.45c2.71.15,10.77,1,12.41,1.16a58.81,58.81,0,0,1,3.5,5.72c.11.31.24.68.39,1.07a21.08,21.08,0,0,1,.95,2.94c.27,1.22,1.43,14.45,1.86,19.44a.63.63,0,0,0,.62.58h.05a.62.62,0,0,0,.57-.67c-.06-.74-1.53-18.06-1.88-19.61a21.88,21.88,0,0,0-1-3.11c-.14-.38-.27-.73-.37-1a67,67,0,0,0-3.81-6.26.63.63,0,0,0-.45-.27c-.4,0-9.73-1-12.77-1.19-1.44-.08-3.41-.32-5.16-.52-2.92-.35-3.71-.42-4.07-.3a5.35,5.35,0,0,0-2.25,2.56,82.38,82.38,0,0,1-5.49,6.62.62.62,0,1,0,.94.82c1.25-1.41,5.36-6.09,5.71-7a5,5,0,0,1,1.43-1.83,35.3,35.3,0,0,1,3.59.34C397.85,281.14,399.85,281.37,401.32,281.45Z" transform="translate(-364.75 -216.4)" id="path916" style="fill:#999999" />
   <path class="e69fe641-39f5-42e4-9124-0923886224ea" d="M452.8,278.19c-.91-.26-2.15,0-4.4.54-1.19.27-2.67.61-4.55,1s-3.93.69-5.65,1a29.5,29.5,0,0,0-6.05,1.29,6.9,6.9,0,0,0-2.46,2.66c-.31.47-.62,1-1,1.42-1.33,1.71-1.49,3.79-1.66,7.31s-.51,19.22-.51,19.38a.62.62,0,0,0,.61.63h0a.63.63,0,0,0,.63-.61c0-.16.34-15.82.51-19.34s.35-5.25,1.39-6.6c.4-.51.73-1,1.05-1.51a6,6,0,0,1,2-2.22,30.91,30.91,0,0,1,5.69-1.17c1.73-.28,3.68-.6,5.69-1s3.39-.71,4.59-1c2-.46,3.17-.73,3.78-.56a5.67,5.67,0,0,1,2.37,2l2.89,4.25,1-.71-2.88-4.24A6.73,6.73,0,0,0,452.8,278.19Z" transform="translate(-364.75 -216.4)" id="path918" style="fill:#999999" />
   <path class="e69fe641-39f5-42e4-9124-0923886224ea" d="M408.19,368.15c-1.67-3.18-4.37-9.08-4.4-9.14a.62.62,0,1,0-1.13.52c0,.06,2.74,6,4.43,9.2s4.36,9.56,4.39,9.63a.62.62,0,0,0,.57.38.74.74,0,0,0,.25-.05.63.63,0,0,0,.33-.82C412.52,377.61,409.88,371.36,408.19,368.15Z" transform="translate(-364.75 -216.4)" id="path920" style="fill:#999999" />
   <path class="e69fe641-39f5-42e4-9124-0923886224ea" d="M447.22,355.28a.63.63,0,0,0-.79.4c0,.08-2.56,7.87-3.74,11.9s-3.18,8.89-3.2,8.94a.62.62,0,0,0,.34.81.52.52,0,0,0,.24.05.61.61,0,0,0,.57-.39s2.07-5,3.25-9.06,3.71-11.79,3.73-11.86A.62.62,0,0,0,447.22,355.28Z" transform="translate(-364.75 -216.4)" id="path922" style="fill:#999999" />
   <path class="e69fe641-39f5-42e4-9124-0923886224ea" d="M377.13,305.17a9.34,9.34,0,0,1-1.36-1.53,10.13,10.13,0,0,1,.17-2.94,19.06,19.06,0,0,0,.23-4.51,4.32,4.32,0,0,0-1.75-2.9,8,8,0,0,1-1.89-2.24c-1.53-2.72-3.4-5.95-3.4-5.95a.61.61,0,0,0-.65-.3.64.64,0,0,0-.51.51s-.17,1.07-.51,3.94a49.44,49.44,0,0,0,.17,8.11.62.62,0,0,0,.68.56.61.61,0,0,0,.56-.68,49.28,49.28,0,0,1-.17-7.85c.1-.85.19-1.54.26-2.09.68,1.19,1.63,2.85,2.48,4.36a9.07,9.07,0,0,0,2.15,2.56,3.07,3.07,0,0,1,1.34,2.15,18.11,18.11,0,0,1-.23,4.17c-.25,1.9-.37,3-.05,3.66a8.91,8.91,0,0,0,1.6,1.86,7.87,7.87,0,0,1,1.76,2.11.61.61,0,0,0,.6.45l.17,0a.64.64,0,0,0,.43-.78A7.92,7.92,0,0,0,377.13,305.17Z" transform="translate(-364.75 -216.4)" id="path924" style="fill:#999999" />
   <path class="e69fe641-39f5-42e4-9124-0923886224ea" d="M375.9,308a.62.62,0,1,0-1,.69l1.7,2.55a.63.63,0,0,0,.52.28.6.6,0,0,0,.34-.11.63.63,0,0,0,.18-.87Z" transform="translate(-364.75 -216.4)" id="path926" style="fill:#999999" />
   <path class="e69fe641-39f5-42e4-9124-0923886224ea" d="M371.5,306c-.27-.45-.19-2.73-.13-4.24,0-.78.05-1.55.05-2.23,0-1.86.64-2.32,1.26-2.76l.19-.14a.63.63,0,0,0-.75-1l-.17.13c-.71.5-1.78,1.27-1.78,3.77,0,.66,0,1.42-.05,2.19-.09,2.58-.12,4.2.31,4.92a32.81,32.81,0,0,0,2.62,3.16.63.63,0,0,0,.89,0,.62.62,0,0,0,0-.88A31.91,31.91,0,0,1,371.5,306Z" transform="translate(-364.75 -216.4)" id="path928" style="fill:#999999" />
   <path class="e69fe641-39f5-42e4-9124-0923886224ea" d="M476.48,295c.89-1.61,1.21-10.28,1.13-12.92a3.45,3.45,0,0,0-2.67-3.5,6.24,6.24,0,0,0-5.13,1.34c.46-1.86,1.07-4.44,1.49-6.54.75-3.74,1.22-17,.91-21.89-.32-5.18-3-12.08-5.22-15a27.55,27.55,0,0,0-7.51-7.2c-2.3-1.45-12.13-7.3-18.12-9.35-5.75-2-14.6-3.19-20.4-3.48s-16.78,1.8-21.36,3.33c-4.77,1.58-15,6.86-18,9.24-3.31,2.65-8.87,12.85-11.44,21-2.3,7.28-1.28,12.4-.47,16.51.17.82.32,1.6.45,2.37.37,2.32,1.16,5.56,1.86,8.42a61.64,61.64,0,0,1,1.43,6.65c0,.19,0,.34,0,.46a.54.54,0,0,0-.33-.06l-.06-.1a13.16,13.16,0,0,1-.89-1.75,4.24,4.24,0,0,0-2.1-2.56c-1.69-.75-4.33-.49-5.06,1-.37.76-.24,2.93.13,7.38.13,1.51.26,3.08.32,4.3,0,.63.06,1.37.09,2.17.2,5.24.41,9.69,1,11a26.6,26.6,0,0,0,3,4.31c.74.93,1.5,1.9,2.12,2.76s1.33,2.1,2,3.28c1.2,2.07,2.33,4,3.37,4.83a6.51,6.51,0,0,0,4.46,1.66,8.37,8.37,0,0,0,1.15-.07c.24,1.38.47,2.61.62,3.31l.17.85a53.94,53.94,0,0,0,2.53,9.12.64.64,0,0,0-.17.44c0,.07.17,7,0,13.72s-1.51,22.56-1.52,22.72a.62.62,0,0,0,.57.67h.05a.63.63,0,0,0,.62-.58c0-.16,1.36-16.05,1.53-22.78.12-4.61.07-9.34,0-11.89.16.3.34.58.52.85.7,1,1.5,2.32,2.35,3.68,2.24,3.61,4.78,7.7,6.95,9.37,1.54,1.17,3.43,2.42,5.25,3.63,1.58,1,3.07,2,4.09,2.82,1.89,1.45,4.53,3.27,6.36,3.68a113.86,113.86,0,0,0,13.15.72c.77,0,1.49,0,2.12,0a28.29,28.29,0,0,0,7.42-.87c2.42-.6,8.62-6.07,10.81-8.13a156.91,156.91,0,0,0,12.12-13.66l.54-.72c0,2.18-.08,6.33,0,9.87.17,5.05,1.34,22.6,1.36,22.77a.62.62,0,0,0,.62.59h0a.63.63,0,0,0,.58-.67c0-.18-1.19-17.7-1.35-22.73s0-11.27,0-11.34a.71.71,0,0,0,0-.2c1.08-1.5,1.46-2.12,1.82-2.72.48-.8.85-4.09,1.41-10.28l0-.34c.13-1.42.28-3.19.42-4.83.32,0,.7.05,1.12.05a8.44,8.44,0,0,0,1.65-.15c1.83-.36,2.65-2.34,3.45-4.26.45-1.08,1.06-2.48,1.67-3.88.41-.94.82-1.87,1.18-2.71a34.34,34.34,0,0,0,1.52-6.05c.07-.35.13-.67.18-.94s.13-.53.18-.79A33.67,33.67,0,0,1,476.48,295Zm-6,15.79c-.62,1.41-1.23,2.81-1.68,3.9-.67,1.61-1.37,3.28-2.54,3.52a8.74,8.74,0,0,1-2.42.07c.18-2.11.32-3.77.32-3.77l-1.25-.11s-.15,1.82-.34,4.07a.55.55,0,0,0-.1.25.56.56,0,0,0,.05.34c-.15,1.74-.32,3.66-.46,5.19l0,.34c-.26,2.93-.81,9-1.24,9.75a51.15,51.15,0,0,1-3.53,5,156.39,156.39,0,0,1-12,13.5c-3.07,2.89-8.46,7.38-10.25,7.83-2,.5-2.83.66-7.17.83a116.82,116.82,0,0,1-14.95-.66c-1.24-.28-3.37-1.54-5.87-3.46-1.06-.81-2.57-1.81-4.16-2.87-1.81-1.19-3.67-2.43-5.18-3.58-2-1.52-4.46-5.51-6.65-9-.85-1.37-1.66-2.67-2.38-3.73-2.22-3.25-3.4-9-4-11.82l-.18-.86c-.16-.77-.42-2.21-.7-3.8a.49.49,0,0,0,0-.29c-.53-3.13-1.1-6.69-1.11-6.74a.63.63,0,0,0-.72-.52.62.62,0,0,0-.52.71c0,.22.55,3.4,1.05,6.36a6.57,6.57,0,0,1-.94.05,5.32,5.32,0,0,1-3.69-1.39c-.85-.66-2-2.6-3.06-4.48-.69-1.2-1.41-2.44-2.08-3.37s-1.4-1.87-2.15-2.81a27.64,27.64,0,0,1-2.88-4.05c-.51-1.16-.74-7-.87-10.5,0-.8-.06-1.54-.09-2.17-.06-1.25-.19-2.83-.32-4.36-.21-2.44-.52-6.13-.26-6.71s2.07-1,3.43-.39c.77.34,1.05,1,1.47,1.93a12.91,12.91,0,0,0,1,1.91c.38.6.87,1.49,1.44,2.52a43,43,0,0,0,3.87,6.21A5,5,0,0,1,378,298a.63.63,0,0,0,.41.78.62.62,0,0,0,.78-.4,6.14,6.14,0,0,0-1-5.52,42.63,42.63,0,0,1-3.73-6c-.19-.35-.37-.68-.55-1h0c.68-.28.71-1.2.65-2a58.1,58.1,0,0,0-1.46-6.86c-.69-2.84-1.47-6.06-1.84-8.33-.13-.78-.28-1.58-.45-2.42-.83-4.17-1.77-8.91.43-15.88,2.7-8.56,8.25-18.15,11-20.38s13.07-7.51,17.65-9,15.11-3.55,20.9-3.27,14.42,1.49,20.06,3.42c5.87,2,15.58,7.79,17.85,9.23a26.49,26.49,0,0,1,7.18,6.89c2.1,2.8,4.67,9.53,5,14.35s-.15,17.89-.89,21.57-2.07,8.91-2.09,9a.63.63,0,0,0,1.15.46,5.5,5.5,0,0,1,5.51-2.77,2.23,2.23,0,0,1,1.72,2.34c.11,3.45-.36,11.16-1,12.26a7.45,7.45,0,0,0-.37.79c0-.61,0-1.22.06-1.8,0-1.29.07-2.49.13-3.45,0-.06.37-6.54-.84-7.41a.79.79,0,0,0-.77-.1c-.66.27-1.31,1.18-2.49,2.9-.42.61-.88,1.28-1.38,2a25.36,25.36,0,0,0-2.9,6.65l-.08.08c0-1.23,0-3.46,0-4.57,0-.63,0-1.12,0-1.34a4.23,4.23,0,0,1,1.05-1.83.63.63,0,1,0-.94-.83,5.17,5.17,0,0,0-1.36,2.66c0,.21,0,.7,0,1.32-.08,4.13-.07,5.43.05,5.77a.74.74,0,0,0,.57.51c.18,0,.66.14,1.69-1a.67.67,0,0,0,.13-.25,33.44,33.44,0,0,1,1.43-4,7.82,7.82,0,0,1,1,2.33c.63,2.34.66,7,.2,7.95a6.32,6.32,0,0,1-1.51,2.05.53.53,0,0,0-.3.07c.14-3.22.14-6,.14-6a.63.63,0,0,0-1.25,0s0,2.87-.14,6.12c-.14,2.87-1.23,3.85-1.27,3.88a.63.63,0,0,0,.39,1.12.67.67,0,0,0,.38-.13c.15-.12,1.32-1.13,1.66-3.9a.54.54,0,0,0,.16.1.78.78,0,0,0,.26,0c1.18,0,2.45-2.45,2.59-2.75.75-1.49.48-6.67-.1-8.84A7.84,7.84,0,0,0,470,289.2a9.64,9.64,0,0,1,.73-1.19c.51-.7,1-1.38,1.4-2a25.15,25.15,0,0,1,1.58-2.16,27.65,27.65,0,0,1,.24,6c-.06,1-.09,2.18-.13,3.49-.06,2.11-.13,4.5-.32,6.53,0,.19,0,.39-.08.59a1.74,1.74,0,0,0-.05.22c-.05.18-.1.42-.16.72a26.37,26.37,0,0,1-3.46,7.27.62.62,0,0,0,.08.88.6.6,0,0,0,.4.15.63.63,0,0,0,.48-.23,11.11,11.11,0,0,0,.81-1.21Z" transform="translate(-364.75 -216.4)" id="path930" style="fill:#999999" />
   <path class="e69fe641-39f5-42e4-9124-0923886224ea" d="M395.52,291.59c-.07.71.45,1.13,2.8,2.3a14.32,14.32,0,0,0,6.4,1.54,11.79,11.79,0,0,0,1.78-.13c1.8-.3,5.1-.9,5.1-.9l-.22-1.23s-3.29.6-5.09.9a12.84,12.84,0,0,1-7.41-1.29,11.88,11.88,0,0,1-2.1-1.2,1.07,1.07,0,0,0-.23-.72l-.1-.12c1.1-.55,2.53-1.24,3.75-1.78a12.82,12.82,0,0,1,7.93-.28c1.92.68,4.66,3.83,4.68,3.86a.63.63,0,0,0,.89.07.62.62,0,0,0,.06-.88c-.12-.14-3-3.43-5.21-4.23a14.19,14.19,0,0,0-6.08-.41,12.54,12.54,0,0,1,3.06-.77,6.43,6.43,0,0,1,4.14.95l.64.33a20.72,20.72,0,0,1,4.16,3.6.62.62,0,0,0,.88.05.62.62,0,0,0,0-.88,21.25,21.25,0,0,0-4.53-3.89l-.63-.32a7.61,7.61,0,0,0-4.78-1.09c-2.73.16-9.19,3.12-11,4.81a.6.6,0,0,0-.18.58l-.14.07a.64.64,0,0,0-.28.81.62.62,0,0,0,.79.33A1.49,1.49,0,0,1,395.52,291.59Z" transform="translate(-364.75 -216.4)" id="path932" style="fill:#999999" />
   <path class="e69fe641-39f5-42e4-9124-0923886224ea" d="M408.67,299.78c2.68-.79,6.13-4.52,6.28-4.67a.64.64,0,0,0,0-.89.63.63,0,0,0-.88,0s-3.36,3.63-5.72,4.32-7.2.17-9.87-.46c-1.62-.38-2-.79-2.08-.88a.61.61,0,0,0-.61-.48.62.62,0,0,0-.62.62c0,.47.39,1.34,3,2a35,35,0,0,0,7.12.82A12.72,12.72,0,0,0,408.67,299.78Z" transform="translate(-364.75 -216.4)" id="path934" style="fill:#999999" />
   <path class="e69fe641-39f5-42e4-9124-0923886224ea" d="M453.08,294.19c-.64,1-2.62,3.6-4.09,4.27-1.71.79-2.56.85-6.66,1.09l-.91.05c-4.53.29-6.6-1.94-6.69-2a.62.62,0,1,0-.93.82c.09.11,2.25,2.49,6.86,2.49l.84,0,.91-.05c4.18-.25,5.18-.31,7.11-1.2,2.08-1,4.5-4.57,4.6-4.72A.64.64,0,0,0,454,294,.63.63,0,0,0,453.08,294.19Z" transform="translate(-364.75 -216.4)" id="path936" style="fill:#999999" />
   <path class="e69fe641-39f5-42e4-9124-0923886224ea" d="M451,287.45a12.5,12.5,0,0,0-7-1.63,21.37,21.37,0,0,0-8.19,2.61,11.39,11.39,0,0,0-3.67,3,.64.64,0,0,0-.12.48.66.66,0,0,0,.27.42l1,.62s1.35.75,3,1.78c1.8,1.15,5.89,1.15,8.88,1.15a10.51,10.51,0,0,0,5.28-1.45.62.62,0,1,0-.67-1,9.44,9.44,0,0,1-4.61,1.25c-2.67,0-6.71,0-8.21-1s-3-1.8-3-1.8l-.32-.2.39-.4a.6.6,0,0,0,.71,0,13.71,13.71,0,0,1,3.84-2,17.87,17.87,0,0,1,8-.13,8,8,0,0,1,5,3,.63.63,0,0,0,.52.28.58.58,0,0,0,.35-.11.61.61,0,0,0,.17-.86,9.13,9.13,0,0,0-5.81-3.57,23.32,23.32,0,0,0-5.55-.34,13.14,13.14,0,0,1,2.93-.52,11.6,11.6,0,0,1,6.17,1.37c.59.47,2.43,2.39,3.09,3.08a.61.61,0,0,0,.88,0,.63.63,0,0,0,0-.88C454.11,290.55,451.77,288.07,451,287.45Z" transform="translate(-364.75 -216.4)" id="path938" style="fill:#999999" />
   <path class="e69fe641-39f5-42e4-9124-0923886224ea" d="M431.35,346.26c-.53-.21-1.7-.5-5.77-.5a21.25,21.25,0,0,0-6.95.93,5.24,5.24,0,0,0-2.9,2.42.62.62,0,0,0,.27.83.58.58,0,0,0,.28.07.64.64,0,0,0,.56-.34,4.06,4.06,0,0,1,2.19-1.79,19.89,19.89,0,0,1,6.55-.87c3.55,0,4.85.22,5.31.41a18.15,18.15,0,0,1,2.67,2,.63.63,0,0,0,.82-1A18.61,18.61,0,0,0,431.35,346.26Z" transform="translate(-364.75 -216.4)" id="path940" style="fill:#999999" />
   <path class="e69fe641-39f5-42e4-9124-0923886224ea" d="M435.6,337.44a.62.62,0,0,0-.84.28,6,6,0,0,1-.92,1.32c-.54.44-6.22,2.21-11.4,2.08-5.85-.14-8-2.72-8.07-2.77a.62.62,0,1,0-1,.78c.1.13,2.5,3.08,9,3.24h.53c5,0,10.95-1.61,11.77-2.43a7.42,7.42,0,0,0,1.17-1.67A.63.63,0,0,0,435.6,337.44Z" transform="translate(-364.75 -216.4)" id="path942" style="fill:#999999" />
   <path class="e69fe641-39f5-42e4-9124-0923886224ea" d="M440.66,332.58l-2.85-.45a.56.56,0,0,0-.34.06,14.45,14.45,0,0,1-3.71-1.5l-.86-.45c-.57-.28-1.13-.64-1.68-1A8.4,8.4,0,0,0,428,327.8a.62.62,0,0,0,.44-.75s-.3-1.19-.6-2.53a12.5,12.5,0,0,1,.44-3.83,9.31,9.31,0,0,1,2.1-.22,1.05,1.05,0,0,1,.26.2,2.26,2.26,0,0,0,1.7.73,2.3,2.3,0,0,0,.36,0,5.68,5.68,0,0,0,3.11-2l0,0,0,0a6,6,0,0,0,.55-2.54c.16-1.95-1.55-4.73-1.74-5a.63.63,0,0,0-.86-.19.62.62,0,0,0-.2.86c.47.75,1.66,3,1.55,4.26,0,.48-.09.86-.14,1.14a6.36,6.36,0,0,0-2.41-.95c-1.4-.28-2.81.84-4.32,2l-.46.37a.61.61,0,0,0-.59.44,6.3,6.3,0,0,1-3.17,1.5c-1.71.08-3.66-2.07-5.24-3.8a10,10,0,0,0-2.74-2.45c-1.07-.45-2.15.4-2.89,1,0-.22,0-.42,0-.62a7.32,7.32,0,0,1,1.38-3.93.62.62,0,0,0-.14-.87.62.62,0,0,0-.87.13,8.49,8.49,0,0,0-1.62,4.76,6.94,6.94,0,0,1,0,1.12,1.12,1.12,0,0,0,.18.79.61.61,0,0,0,.19.17.63.63,0,0,0,0,.62l.11.19a4.28,4.28,0,0,0,3.16,2.33,7.85,7.85,0,0,0,1.08.08,11.5,11.5,0,0,0,3.14-.48c.3.28.6.55.9.8a.6.6,0,0,0-.1.4,27.53,27.53,0,0,1,.16,5.34.63.63,0,0,0,.47.75h.14A.63.63,0,0,0,422,327a24,24,0,0,0-.09-5.22,4.32,4.32,0,0,0,2.06.62h.15a5.8,5.8,0,0,0,2.72-1,9.78,9.78,0,0,0-.22,3.32c.31,1.36.61,2.57.61,2.57a.62.62,0,0,0,.39.43,3.23,3.23,0,0,0-2,.85,2.24,2.24,0,0,1-1.28.64,3.2,3.2,0,0,1-2.11-.47c-.32-.15-.7-.33-1.18-.53a3,3,0,0,0-3.08.5,10.83,10.83,0,0,1-2.87,1.27,16.76,16.76,0,0,0-4.2,1.88,9.48,9.48,0,0,1-2.8,1.26,2,2,0,0,1-2.31-.85.62.62,0,0,0-.82-.31.61.61,0,0,0-.31.83,3.07,3.07,0,0,0,2.83,1.64,4.36,4.36,0,0,0,.69-.07,9.76,9.76,0,0,1,1.57.44,11.06,11.06,0,0,0,5.91.6,13.79,13.79,0,0,1,5.65.47,11.51,11.51,0,0,0,2.66.44h.33a9.12,9.12,0,0,0,3.21-1,7.32,7.32,0,0,1,1.93-.68,11.59,11.59,0,0,1,3.82.49,9.31,9.31,0,0,0,2.76.41,22.73,22.73,0,0,0,4.85-1.86.63.63,0,0,0-.18-1.18Zm-24.88-13.19a3,3,0,0,1-2.27-1.71l-.15-.26,0,0a7.1,7.1,0,0,0,.59-.43c.47-.39,1.27-1,1.67-.87a10.46,10.46,0,0,1,2.3,2.15c.28.31.59.64.9,1A8.32,8.32,0,0,1,415.78,319.39Zm16.57-1.31a4.66,4.66,0,0,1,2.11.88,3.86,3.86,0,0,1-1.91,1.18,1.1,1.1,0,0,1-1.07-.38,1.79,1.79,0,0,0-.81-.5,2.7,2.7,0,0,0-.79,0C430.81,318.51,431.71,318,432.35,318.08Zm3.5,16.3a9.16,9.16,0,0,1-2.33-.39,12.63,12.63,0,0,0-4.29-.51,8.83,8.83,0,0,0-2.27.78,7.74,7.74,0,0,1-2.78.86,9,9,0,0,1-2.61-.39,15.09,15.09,0,0,0-6.13-.5,9.76,9.76,0,0,1-5.23-.51c.43-.22.86-.46,1.29-.71a15.49,15.49,0,0,1,3.9-1.75,12.32,12.32,0,0,0,3.17-1.4c.94-.56,1.27-.72,2-.43.46.19.82.36,1.12.51a4.39,4.39,0,0,0,2.78.58,3.52,3.52,0,0,0,1.93-.9,2,2,0,0,1,1.3-.59,6.5,6.5,0,0,1,2.88,1.29c.58.36,1.17.73,1.79,1l.85.44a11.57,11.57,0,0,0,5.12,1.73.45.45,0,0,0,.11,0A12.2,12.2,0,0,1,435.85,334.38Z" transform="translate(-364.75 -216.4)" id="path944" style="fill:#999999" />
</svg>