<?xml version="1.0" encoding="UTF-8" standalone="no"?>
<!-- Created with Inkscape (http://www.inkscape.org/) -->

<svg
   xmlns:dc="http://purl.org/dc/elements/1.1/"
   xmlns:cc="http://creativecommons.org/ns#"
   xmlns:rdf="http://www.w3.org/1999/02/22-rdf-syntax-ns#"
   xmlns:svg="http://www.w3.org/2000/svg"
   xmlns="http://www.w3.org/2000/svg"
   xmlns:sodipodi="http://sodipodi.sourceforge.net/DTD/sodipodi-0.dtd"
   xmlns:inkscape="http://www.inkscape.org/namespaces/inkscape"
   id="svg3766"
   version="1.1"
   inkscape:version="0.92.1 r15371"
   width="1000"
   height="1567.8308"
   viewBox="0 0 999.99999 1567.8308"
   sodipodi:docname="skull.svg">
  <metadata
     id="metadata3772">
    <rdf:RDF>
      <cc:Work
         rdf:about="">
        <dc:format>image/svg+xml</dc:format>
        <dc:type
           rdf:resource="http://purl.org/dc/dcmitype/StillImage" />
        <dc:title />
      </cc:Work>
    </rdf:RDF>
  </metadata>
  <defs
     id="defs3770" />
  <sodipodi:namedview
     pagecolor="#ffffff"
     bordercolor="#666666"
     borderopacity="1"
     objecttolerance="10"
     gridtolerance="10"
     guidetolerance="10"
     inkscape:pageopacity="0"
     inkscape:pageshadow="2"
     inkscape:window-width="1440"
     inkscape:window-height="862"
     id="namedview3768"
     showgrid="false"
     inkscape:zoom="0.57976159"
     inkscape:cx="-164.88863"
     inkscape:cy="414.29549"
     inkscape:window-x="0"
     inkscape:window-y="31"
     inkscape:window-maximized="0"
     inkscape:current-layer="svg3766" />
  <path
     style="fill:#999999;stroke-width:2.10360694;fill-opacity:1"
     d="m 494.46838,0.01484683 c -5.99328,-0.0259 -11.87835,-0.0189 -17.20685,0.0288 -7.10466,0.0631 -13.21978,0.19438 -17.2849,0.40265 C 377.05012,4.6960468 298.34831,22.342667 233.16097,51.306737 194.4019,68.528167 162.53093,88.061447 131.7359,113.46587 120.85404,122.4429 95.996183,147.1818 87.350611,157.64161 43.289177,210.94913 16.837121,272.42218 5.7207995,347.336 c -6.790485,45.76161 -7.5239496,93.24715 -2.2638386,146.67316 0.6663806,6.76836 2.0774801,25.22751 3.134858,41.02034 5.7770091,86.28482 11.1900741,142.84997 18.0532171,188.69189 5.138186,34.32007 9.28816,50.82647 16.956228,67.40991 4.425,9.5698 7.066247,17.32215 7.678985,22.53571 0.486817,4.14211 -0.09698,5.04035 -3.648432,5.60826 -9.014944,1.44158 -16.307077,9.20425 -19.146125,20.38279 -4.303349,16.94412 -2.577781,38.73584 5.394615,68.09605 3.999714,14.72984 3.867019,14.52652 23.562858,35.35457 21.780073,23.03203 32.677661,38.07583 40.835448,56.35777 1.699483,3.80865 3.089673,7.46225 3.089673,8.11855 0,0.6564 0.430145,2.0495 0.953184,3.0979 2.36305,4.7368 3.54073,11.7915 4.13738,24.7955 0.32648,7.1154 1.03573,16.1867 1.5777,20.1609 1.96685,14.4225 7.89284,33.9484 17.36298,57.2165 10.48396,25.7591 13.08816,33.7547 17.63824,54.1062 11.29639,50.5266 15.53874,114.3302 10.3085,155.026 -0.60079,4.674 -0.87851,9.9467 -0.68204,12.938 0.78875,12.008 8.32661,27.1091 22.1906,44.4551 11.43825,14.3111 30.29703,35.3807 37.07607,41.4271 30.04327,26.7966 102.41073,81.1217 150.39146,112.8963 39.2978,26.0245 50.99894,31.3748 73.83578,33.744 7.81103,0.8104 31.43376,0.296 55.21968,-1.1997 27.38208,-1.7218 57.88335,-2.6961 76.67893,-2.4487 l 15.77705,0.2095 5.04538,-2.4076 c 22.35659,-10.6568 66.7843,-43.7951 189.35748,-141.2416 9.35421,-7.4368 21.69378,-17.1992 27.42085,-21.6935 11.44985,-8.9851 22.65858,-19.506 28.57125,-26.821 11.34162,-14.0315 20.08905,-31.4664 24.13807,-48.1159 3.0622,-12.5918 3.45715,-18.3744 3.46767,-50.8399 0.008,-30.7001 0.51294,-44.8354 2.20632,-61.6578 2.74584,-27.2774 7.29026,-50.0823 14.20345,-71.309 10.99919,-33.7731 27.80775,-108.0406 32.14574,-142.02635 1.20998,-9.47929 2.72497,-13.84369 6.55735,-18.8996 1.05239,-1.38838 7.4925,-8.20653 14.31027,-15.14843 13.8802,-14.13277 17.47403,-18.29602 22.87672,-26.50463 14.72813,-22.37723 19.01633,-49.44907 12.6956,-80.1466 -2.66512,-12.94343 -5.51067,-18.62225 -13.09413,-26.12253 -4.51072,-4.46131 -4.7397,-4.82498 -5.13576,-8.23775 -1.06849,-9.20597 5.85915,-39.08486 17.34655,-74.81774 10.44018,-32.47516 16.80029,-58.36735 22.05499,-89.78949 5.71842,-34.19449 7.25957,-52.91968 9.49499,-115.31218 0.6964,-19.43732 1.69492,-42.58062 2.21865,-51.43154 0.52374,-8.85093 1.23579,-20.78166 1.57771,-26.50873 1.38125,-23.13326 0.68491,-58.96156 -1.61879,-83.30201 C 991.13539,312.5879 971.52073,252.56365 938.64992,201.03258 912.34355,159.79257 875.58887,122.49293 833.00118,93.818487 784.44497,61.125407 729.02114,37.195747 663.87447,20.800317 623.80575,10.716237 585.63778,4.6799768 539.23577,1.0872068 531.40324,0.48075683 512.44825,0.09226683 494.46838,0.01487683 Z m 0.88747,8.61574997 c 18.38948,0.0591 36.6787,0.60735 49.24165,1.6270102 85.11858,6.90854 162.06793,26.59693 228.76725,58.53122 52.13318,24.96033 98.4199,59.515393 132.64228,99.025653 3.24982,3.75202 4.39618,5.62642 5.20971,8.52125 1.49307,5.31291 2.20647,6.9459 3.57036,8.18024 1.4451,1.30774 1.47442,0.89239 0.24653,-3.15542 -0.51751,-1.70594 -0.83596,-3.20301 -0.71079,-3.32796 0.37644,-0.37647 10.7127,13.59984 17.68344,23.90797 33.6132,49.70585 54.62771,109.56508 61.87562,176.26336 2.26761,20.86724 2.56407,27.51953 2.55145,57.11375 -0.008,21.81272 -0.3049,34.10367 -1.08877,45.12483 -1.43457,20.16862 -1.626,23.67302 -2.37068,43.22666 -0.60912,15.99294 -1.70009,24.66319 -3.21702,25.60073 -0.30898,0.191 -0.56289,0.87482 -0.56289,1.51606 0,0.85468 0.33965,1.07621 1.26545,0.83406 1.19443,-0.31232 1.26134,-0.0189 1.26134,5.46446 0,15.77148 -2.45756,54.45169 -4.45373,70.08461 -5.23975,41.03472 -13.05654,75.70917 -26.2006,116.25303 -10.91917,33.68167 -17.92592,64.26351 -18.04499,78.74968 -0.0757,9.21916 0.53606,11.01463 5.30421,15.52232 4.45531,4.2121 8.05288,8.29911 8.05288,9.14987 0,0.31428 -0.38658,0.57109 -0.8587,0.57109 -0.47665,0 -2.20523,2.94322 -3.88675,6.61896 -1.6653,3.64033 -3.54655,7.09107 -4.18256,7.66668 -1.09959,0.99509 -1.23643,0.86351 -2.81439,-2.67472 -3.90274,-8.75071 -7.25662,-25.88915 -11.59859,-59.25843 -6.2871,-48.31767 -7.59912,-57.50014 -10.48518,-73.42903 -1.60453,-8.85566 -1.61662,-9.10426 -0.50125,-11.17541 1.23206,-2.28776 0.86881,-3.46599 -0.6738,-2.18577 -1.16902,0.97022 -0.89824,1.70009 -3.82924,-10.39479 -2.83022,-11.67981 -6.35024,-22.33214 -10.1729,-30.7899 -4.86065,-10.75446 -8.38754,-19.5772 -8.75956,-21.90709 -0.19396,-1.21483 -0.75987,-3.05911 -1.25312,-4.10039 -2.32926,-4.91695 -6.84777,-26.94759 -9.12522,-44.49211 -3.44571,-26.54363 -4.92288,-63.89157 -3.8662,-97.73555 0.68429,-21.91552 2.1855,-49.57699 2.9582,-54.50889 0.33675,-2.14947 0.21545,-2.42125 -1.38049,-3.02804 -0.96429,-0.36651 -2.90439,-0.58009 -4.30993,-0.47659 -2.5545,0.18806 -2.55776,0.19037 -2.99106,3.34439 -2.36622,17.22444 -3.87356,85.73288 -2.47338,112.32933 2.49536,47.39881 9.03579,81.70832 20.01713,104.97903 4.27223,9.05331 8.46114,20.13225 8.03232,21.24971 -0.2072,0.53995 0.0667,1.47252 0.60807,2.07073 1.15539,1.27674 4.63934,14.29661 7.29689,27.26472 2.35293,11.48127 5.7857,33.1792 8.23777,52.06427 5.50701,42.41395 6.5392,50.02827 8.00357,59.00371 3.26143,19.99047 7.34135,33.5666 11.2699,37.49515 2.05354,2.05354 4.93075,2.89656 9.88531,2.89656 2.56289,0 6.19401,-3.52306 8.40621,-8.15148 1.00992,-2.11299 2.02667,-3.84154 2.25973,-3.84154 0.40554,0 1.58589,5.08513 3.22525,13.88709 1.20253,6.45622 1.03792,23.29818 -0.2876,29.51213 -2.63401,12.3475 -8.20331,24.30095 -16.45086,35.30526 -2.91364,3.88759 -10.81548,12.63329 -18.41476,20.37869 -12.6086,12.85091 -18.62349,19.86169 -19.55698,22.80276 -0.33157,1.04471 -0.77552,1.2377 -2.19811,0.95321 -1.75478,-0.35095 -1.92517,-0.0951 -11.70953,17.44515 -5.46189,9.79143 -10.35408,18.29853 -10.87138,18.90373 -2.10535,2.463 -19.6845,10.9097 -30.63378,14.7211 -7.31114,2.5449 -8.22661,2.6553 -7.67076,0.9039 0.56306,-1.774 -0.10328,-1.5721 -2.12826,0.645 -1.67729,1.8364 -2.28902,1.9993 -16.4221,4.4045 -26.31707,4.4786 -37.75791,7.9652 -47.22843,14.3965 -12.13578,8.2413 -15.97299,18.9053 -13.09826,36.4023 1.23274,7.5014 1.21319,16.3281 -0.0452,20.0212 -1.47168,4.3192 -2.4833,4.9444 -8.31993,5.1604 -7.23763,0.2679 -9.33103,1.4578 -12.33404,7.0052 -1.31523,2.4297 -3.62636,5.6598 -5.13574,7.1778 -2.70143,2.7166 -2.76959,2.7446 -4.54823,1.7913 -0.99383,-0.5327 -2.77807,-1.3347 -3.96482,-1.779 -2.13766,-0.8004 -2.17811,-0.7801 -4.41265,1.9968 -6.17873,7.6785 -8.88181,9.1854 -17.45335,9.7415 -3.4483,0.2237 -8.12838,0.9446 -10.39889,1.6023 -6.45319,1.8693 -13.29553,6.8273 -16.10574,11.6685 -0.64515,1.1114 -0.78405,1.1032 -3.51285,-0.2178 -3.44464,-1.6675 -5.12691,-1.7042 -8.47196,-0.1849 -3.15415,1.4327 -6.60827,5.3549 -9.647,10.9495 -1.26929,2.337 -2.52203,4.2502 -2.78153,4.2565 -0.2595,0.01 -1.82225,-0.9481 -3.47178,-2.1201 -5.20201,-3.696 -6.94291,-4.3431 -10.92478,-4.0552 -4.54253,0.3286 -7.42243,2.376 -10.62076,7.5434 -1.252,2.023 -2.46279,3.612 -2.68702,3.5294 -0.22422,-0.083 -2.26005,-2.4556 -4.5277,-5.2714 -4.14705,-5.1499 -8.73638,-9.0621 -12.15325,-10.3619 -2.58579,-0.9837 -7.74394,-0.8622 -10.37013,0.2424 -6.47275,2.7224 -14.89459,14.4765 -19.87332,27.7331 -0.6254,1.6654 -1.44797,2.9004 -1.82833,2.7445 -11.95932,-4.901 -14.06669,-5.34 -18.92426,-3.9278 -4.55635,1.3245 -8.48998,5.2522 -11.47532,11.4589 -1.23881,2.5756 -2.36837,4.6838 -2.51036,4.6838 -0.14199,0 -1.56123,-1.9805 -3.15541,-4.4003 -1.59411,-2.4197 -4.21131,-5.8597 -5.8137,-7.642 -12.60094,-14.0152 -25.21021,-7.7481 -37.82794,18.7969 -1.86358,3.9205 -3.46022,7.1284 -3.54983,7.1284 -0.0896,0 -0.95771,-2.4849 -1.92693,-5.5219 -2.54559,-7.9767 -6.81343,-16.4847 -10.11128,-20.1528 -7.92374,-8.813 -17.16078,-7.4611 -28.29187,4.1415 -2.87029,2.9918 -6.81276,7.7804 -8.75957,10.6413 l -3.53751,5.2015 -1.7215,-7.2763 c -1.87457,-7.9334 -5.15712,-15.2861 -7.72418,-17.3055 -5.58949,-4.3966 -11.94003,-2.2744 -20.52659,6.8532 -2.60315,2.7672 -5.83873,6.6822 -7.19007,8.702 l -2.45695,3.6731 -0.3821,-11.6767 c -0.21122,-6.4212 -0.67418,-12.542 -1.02715,-13.6036 -2.07203,-6.2324 -5.13103,-9.1129 -9.67166,-9.1129 -5.6326,0 -11.18652,3.0107 -20.40335,11.0686 l -5.34118,4.6715 -2.89657,-5.0207 c -5.10198,-8.8453 -9.4138,-11.9431 -16.65219,-11.9684 -2.70173,-0.01 -5.54883,0.5212 -8.7883,1.6394 l -4.79065,1.6516 -1.31063,-1.8119 c -6.05841,-8.3848 -11.68375,-10.8877 -19.7542,-8.7965 l -3.87442,1.0025 -3.19237,-3.3732 c -1.75472,-1.8553 -4.68616,-4.1979 -6.51216,-5.2097 -2.95258,-1.6358 -3.92589,-1.8406 -8.80062,-1.8406 h -5.48089 l -1.77492,-3.7635 c -3.32816,-7.0558 -6.99354,-9.7354 -12.13682,-8.8664 -2.40099,0.4056 -2.46255,0.3685 -3.20882,-1.9968 -2.03533,-6.451 -6.33924,-9.6506 -13.43105,-9.988 l -3.92371,-0.1889 -1.52839,-2.7939 -1.5243,-2.7979 1.77492,-5.6288 c 5.41174,-17.1334 0.21307,-32.116 -16.88227,-48.6541 -10.56795,-10.2236 -23.80258,-19.2773 -38.95371,-26.6485 l -8.51714,-4.1455 -10.72758,-0.4232 c -10.53015,-0.4169 -22.53867,-2.0113 -22.90958,-3.0404 -0.1035,-0.2872 -0.67059,-0.3923 -1.26134,-0.2383 -1.71754,0.4474 -15.61157,-4.6344 -22.98767,-8.4062 -7.75663,-3.9664 -15.41561,-9.2499 -21.27437,-14.676 -3.33142,-3.0856 -4.26559,-3.6505 -5.21381,-3.143 -0.89426,0.4786 -1.24607,0.3662 -1.55307,-0.5095 C 94.38381,979.00915 82.12359,961.06866 54.32148,931.99086 41.410593,918.48753 38.523519,914.67731 36.605156,908.60466 33.026857,897.27731 29.191498,879.84175 28.07158,869.81941 c -1.767682,-15.81959 0.727911,-28.818 6.881908,-35.82705 2.169365,-2.47075 7.144774,-5.32775 9.786715,-5.62057 1.666267,-0.18469 1.90469,0.0189 2.329576,2.00499 0.259985,1.21483 0.213958,3.34474 -0.102656,4.73312 -0.908106,3.98137 -0.687732,9.71067 0.562883,14.52393 1.473598,5.67147 2.286369,7.14141 4.215439,7.62557 5.567112,1.39722 17.956977,-5.48208 21.089479,-11.70953 0.969132,-1.92657 1.176842,-4.68867 1.491416,-19.9062 0.504381,-24.40016 3.346502,-55.17099 8.365119,-90.53316 0.493821,-3.47948 0.893717,-6.18827 1.249016,-8.36923 -0.261499,-0.67776 -0.368741,-1.50037 -0.250624,-2.53501 0.151039,-1.32308 0.824152,-2.5343 1.23669,-3.80046 -0.28689,0.50253 -0.321789,1.29208 -0.858692,1.50785 -0.363272,0.14599 -0.03997,-0.78965 0.02882,-1.17506 0.226117,-1.26498 0.411045,-2.55182 0.850488,-3.75937 0.260174,-0.71491 0.480001,-1.16553 0.698461,-1.62289 0,0 0.0042,-0.004 0.0042,-0.004 0.104549,-1.0696 0.54414,-3.57904 1.175075,-7.04214 -0.146622,-1.0014 -0.07783,-2.10462 0.632723,-3.46767 0.08393,-0.45663 0.115067,-0.63287 0.205522,-1.12577 4.111878,-22.41553 6.008806,-29.1875 11.158961,-39.84938 12.673201,-26.23616 17.588951,-48.53429 17.588951,-79.78503 0,-28.38386 -4.56409,-55.81761 -14.28152,-85.84935 -5.851996,-18.08562 -16.870183,-44.61126 -18.529824,-44.61126 -1.100376,0 -5.379596,2.33673 -6.294371,3.43891 -0.715268,0.86187 -0.363671,2.00136 2.387089,7.79402 7.088146,14.92687 15.394322,38.15391 19.906201,55.65931 10.729965,41.63059 12.037575,80.15062 3.825115,112.64156 -0.8763,3.46691 -2.00512,6.53347 -2.51036,6.81619 -0.58445,0.32703 -0.7864,1.0447 -0.55466,1.96803 0.48442,1.93004 -3.07684,11.41112 -8.911572,23.72309 -5.890015,12.42866 -9.37201,25.66173 -13.209157,50.20306 -1.502291,9.60829 -1.540114,9.73063 -2.678818,9.29367 -0.826969,-0.31737 -0.911598,-0.11696 -0.476593,1.1381 0.814896,2.3509 0.576999,6.20869 -1.179177,18.88315 -4.805816,34.68402 -8.618014,80.59008 -7.777602,93.68857 0.431744,6.72929 -0.397308,9.08472 -4.046961,11.5 -4.155802,2.75013 -5.365901,1.52499 -7.272253,-7.3462 -0.937998,-4.36513 -0.993828,-5.72307 -0.361547,-8.7842 1.271462,-6.15595 0.639454,-11.82612 -1.302427,-11.67255 -0.873923,0.0692 -0.967428,-0.50845 -0.665602,-4.1086 0.79592,-9.49381 -1.907025,-20.37278 -8.62807,-34.74649 -2.051417,-4.38722 -4.472605,-10.23771 -5.382268,-12.99964 C 31.43177,749.3523 24.19774,702.89177 18.326279,641.36865 16.16516,618.7237 13.552543,587.01446 12.557789,572.26189 c -2.454657,-1.4221 -3.2789969,-2.89393 -0.176703,-2.90889 -0.188693,-3.10198 -0.292212,-5.2919 -0.197108,-5.2919 0.05217,0 0.18638,0.12159 0.308137,0.22597 -0.112543,-0.43799 -0.234027,-0.87499 -0.320464,-1.31886 -0.203208,-1.04284 -0.129792,-2.37343 -0.04102,-3.72239 -0.687816,-2.88811 -1.181554,-9.09295 -2.4322956,-27.6386 C 8.6899084,516.65462 7.3094164,498.60212 6.629194,491.48666 4.0303771,464.3018 3.7717176,458.5479 3.769614,427.42937 3.765404,395.80478 4.1313923,387.97299 6.6620734,365.58251 13.742162,302.9408 33.733221,245.51181 65.045367,197.85273 76.135183,180.9733 94.075121,158.12689 95.034092,159.66324 c 0.863489,1.38337 2.490608,-0.1948 3.788134,-3.67311 1.002221,-2.68673 3.020224,-4.9895 12.703824,-14.51571 6.33108,-6.22817 15.05804,-14.32628 19.39673,-17.99568 34.10599,-28.845633 73.90812,-52.303263 120.53831,-71.037843 55.9606,-22.48324 124.32898,-37.4548 194.05774,-42.4994202 12.95902,-0.93754 31.44793,-1.36981 49.83741,-1.31065 z M 921.26228,193.61242 c -0.27585,0 1.18494,1.70557 3.2458,3.78814 3.86948,3.91031 4.73312,4.43446 4.73312,2.87603 0,-0.86997 -6.93726,-6.66417 -7.97892,-6.66417 z m 29.79151,180.49111 c -0.15293,0 -0.4552,0.28563 -0.6697,0.63272 -0.21451,0.3471 -0.0881,0.62862 0.27938,0.62862 0.36754,0 0.6656,-0.28152 0.6656,-0.62862 0,-0.34709 -0.12222,-0.63272 -0.27528,-0.63272 z M 269.44818,631.9597 c -47.51745,0.21188 -91.52145,17.87439 -115.55047,46.37797 -8.72341,10.34786 -15.64901,22.23355 -19.88155,34.13431 -1.26227,3.5492 -2.79104,6.59504 -3.85387,7.67078 -1.97602,2.00009 -2.15104,2.65624 -0.9039,3.3896 0.71048,0.41775 0.60307,1.75786 -0.62039,7.76525 -2.87006,14.09238 -3.57559,23.34928 -3.19239,41.96532 0.47857,23.249 2.8,39.02542 8.04877,54.72664 11.36861,34.0085 33.93726,55.13 67.63179,63.29311 12.04504,2.91812 19.77441,3.70828 36.13519,3.69364 21.23921,-0.0189 40.47226,-2.35215 56.65358,-6.87783 0.81122,-0.22687 1.36305,-0.36258 2.10361,-0.56286 1.10803,-0.73906 2.25382,-1.24264 3.2499,-1.62701 0.21297,-0.16303 0.51244,-0.37983 0.65328,-0.49715 0.30144,-0.0534 0.24717,-0.0404 0.43551,-0.0741 0.27923,-0.19774 0.56057,-0.38984 0.87102,-0.53411 1.53189,-0.71186 3.11355,-0.0835 4.51125,0.92443 0.0299,-0.004 0.0604,-0.004 0.0905,-0.008 l 1.48321,-1.56948 13.88299,-4.56876 c 33.88696,-11.15576 71.3457,-26.63692 78.27308,-32.34707 1.27704,-1.05265 2.98353,-3.43526 3.88263,-5.42336 14.61839,-32.32616 21.02374,-58.25259 21.02374,-85.07282 0,-24.20402 -5.40498,-42.97875 -17.64646,-61.27988 -4.51476,-6.74967 -15.09313,-18.03393 -22.37958,-23.87099 -22.75061,-18.22496 -53.9775,-31.14348 -91.55211,-37.87725 -9.12466,-1.63516 -11.37306,-1.80383 -23.34921,-1.75029 z m 30.90906,253.37781 c -0.14389,0.10181 -0.28855,0.20173 -0.42729,0.31226 1.13528,-0.40463 1.43609,-0.49231 0.42729,-0.31226 z m -0.42729,0.31226 c -0.19395,0.069 -0.43681,0.17207 -0.6615,0.25885 -0.50084,0.38334 -1.02006,0.77726 -1.52429,1.16272 0.21051,-0.0551 0.48078,-0.13 0.67793,-0.1807 0.50836,-0.40303 1.00028,-0.83637 1.50786,-1.24079 z M 716.56736,634.5276 c -18.24906,-0.021 -23.2973,0.60821 -35.23131,4.40443 -8.59692,2.73473 -23.45728,10.00995 -31.56643,15.45246 -23.86595,16.01768 -43.13004,41.24349 -54.39385,71.23092 -1.49932,3.9916 -3.07088,7.68425 -3.49232,8.20489 -0.42137,0.52064 -0.7642,1.65495 -0.7642,2.52269 7.6e-4,0.86774 -0.7318,4.13605 -1.62699,7.2599 -5.91804,20.65191 -9.24973,52.1063 -6.48338,61.21414 6.75723,22.24754 32.14898,44.62562 79.02083,69.645 18.20142,9.71563 40.56203,20.0858 49.48818,22.94656 4.33869,1.39055 8.79208,2.90542 9.89351,3.36908 1.10143,0.46365 5.21842,1.02389 9.14987,1.24489 3.93145,0.22101 7.2918,0.55687 7.46534,0.74367 0.60698,0.65329 23.08985,-0.40768 29.34368,-1.3846 34.20503,-5.34324 66.46893,-22.26769 85.36041,-44.77561 12.14614,-14.47128 20.87594,-32.00768 24.36816,-48.95816 3.08063,-14.95255 4.20738,-41.94504 2.38299,-57.10553 -1.54596,-12.84668 -5.42194,-28.08674 -9.38406,-36.91583 -0.8567,-1.90902 -1.56719,-4.13411 -1.57771,-4.94266 -0.0105,-0.80848 -0.39028,-1.61222 -0.84637,-1.78724 -0.45602,-0.17502 -1.58935,-1.78538 -2.51446,-3.5786 -4.67594,-9.06372 -13.83094,-20.74694 -22.37547,-28.55072 -28.55842,-26.08262 -72.78396,-40.17973 -126.21642,-40.23968 z m -449.53092,6.02321 c 2.07902,-0.0238 4.14394,-0.006 6.19578,0.0534 29.93754,0.85682 71.85184,14.03842 97.18909,30.56803 41.86908,27.31481 58.00896,65.86675 47.89404,114.39595 -4.17334,20.02303 -15.35946,49.53178 -20.34583,53.67073 -10.28216,8.53476 -86.3372,36.87903 -115.02045,42.86509 -3.26223,0.68081 -10.61697,1.83298 -16.34404,2.56377 -11.86045,1.5134 -37.21918,2.17621 -46.0657,1.20384 -14.48023,-1.59153 -29.37126,-5.69773 -39.89047,-11.00286 -28.55506,-14.40123 -45.06795,-40.97685 -50.7865,-81.72841 -1.57213,-11.20315 -1.57188,-41.12862 0,-50.1702 5.97759,-34.38343 21.89249,-59.37531 49.34027,-77.48011 22.85447,-15.07503 56.64845,-24.58378 87.83381,-24.93924 z m 447.13149,1.9105 c 21.52711,0.0827 46.9102,3.46077 65.93492,8.94033 57.45649,16.5488 89.34442,53.03719 94.91706,108.60693 1.04974,10.46826 0.40265,33.41299 -1.24902,44.31954 -0.72707,4.80115 -2.22637,11.23257 -3.5334,15.14433 -13.18747,39.46838 -56.66225,69.46943 -108.13854,74.62051 -11.62536,1.16334 -25.01502,0.56137 -35.69148,-1.60236 -11.68064,-2.36731 -21.14985,-6.22158 -47.07231,-19.17076 -36.49503,-18.23051 -60.26629,-34.0457 -75.79148,-50.42082 -10.65121,-11.23434 -16.16824,-21.54365 -16.83296,-31.44729 -0.8223,-12.25119 3.03387,-36.67651 8.91158,-56.43992 11.63033,-39.10632 40.90665,-71.62516 77.05692,-85.58639 12.82624,-4.95356 18.75543,-6.18962 32.52785,-6.79154 2.88825,-0.12622 5.88557,-0.18428 8.96086,-0.1725 z M 498.26474,775.23506 c -0.391,0.35467 -0.98575,0.60952 -1.86531,0.84637 -8.15528,2.19597 -18.09527,7.85663 -23.78473,13.54609 -4.209,4.209 -9.02752,11.54779 -11.52875,17.55607 -1.05883,2.54339 -3.08917,8.85101 -4.51535,14.01856 -2.88524,10.45419 -2.61943,9.7973 -5.4398,13.28314 -5.6947,7.03821 -11.51008,20.32291 -16.01947,36.59536 -1.44272,5.20643 -3.04657,10.85848 -3.56627,12.56 -0.51969,1.70146 -1.0368,5.53693 -1.1504,8.52125 -0.6047,15.87847 -6.48432,43.64057 -13.33655,62.97263 -5.42895,15.31662 -8.94876,27.29817 -10.78919,36.73096 -1.4874,7.62366 -1.68398,10.14131 -1.72563,22.47001 -0.0518,15.2779 0.55592,19.1705 4.65507,29.7997 5.90691,15.3172 19.21839,28.8396 36.24201,36.8172 9.4757,4.4404 22.84921,8.1694 32.89352,9.1745 l 4.41675,0.4438 8.43908,6.5326 c 4.64079,3.593 8.68083,6.5327 8.97731,6.5327 0.29648,0 2.85146,-2.1051 5.67808,-4.6756 2.82662,-2.5704 6.57369,-5.4544 8.32816,-6.4094 3.09413,-1.684 3.50578,-1.7386 13.65289,-1.816 9.68818,-0.074 10.8345,-0.2109 15.51,-1.8324 7.78484,-2.7 13.16079,-6.2023 19.92675,-12.9791 7.07393,-7.0852 11.167,-13.0528 16.68505,-24.3517 6.01971,-12.3261 10.07895,-25.623 12.72434,-41.6531 0.87199,-5.2834 1.15042,-10.40812 1.15042,-21.45514 0.002,-17.37603 -0.57153,-20.31744 -5.29187,-27.13735 -8.47819,-12.24912 -11.01947,-22.65787 -12.09574,-49.54159 -0.35438,-8.85092 -0.94768,-17.79487 -1.31476,-19.87744 -0.3672,-2.08257 -0.65167,-4.35605 -0.63274,-5.04948 0.0126,-0.47047 -0.35097,-2.02988 -0.81761,-3.79636 -0.19332,0.0238 -0.38633,0.0518 -0.57931,0.0534 -0.43353,0.004 -0.7557,-0.0254 -1.12575,-0.041 0.14116,0.4966 0.45729,1.59136 0.50945,1.77904 0.29762,1.07108 0.19648,1.08649 -1.49141,0.21364 -4.55925,-2.35765 -10.18701,-9.99156 -15.35797,-20.83065 -6.20076,-12.99783 -8.23899,-19.63159 -8.84584,-28.80954 -0.58936,-8.91322 -2.02078,-14.36697 -5.55484,-21.13879 -6.25693,-11.98943 -20.82525,-27.02367 -36.07768,-37.22808 -0.76458,-0.51153 -1.32593,-0.91343 -1.85299,-1.30655 -1.69273,0.0955 -3.33775,0.0802 -5.02892,-0.51768 z m -1.85709,8.00767 c 2.40863,0.041 4.35931,1.56225 9.03483,5.07414 18.49708,13.89352 30.96703,29.49402 34.44246,43.08285 1.51815,5.93609 1.63074,12.02296 0.25883,13.98158 -1.03738,1.48103 -0.76256,2.66649 0.62039,2.66649 0.47256,0 1.28857,1.64786 1.9064,3.84977 1.63885,5.84079 6.35529,17.2236 9.84833,23.7724 2.63249,4.93551 3.12255,6.38653 3.12255,9.25669 0,1.87211 0.17144,3.85539 0.3821,4.40443 0.65847,1.71597 1.51196,1.09272 1.51196,-1.10521 0,-3.11749 0.60252,-3.20952 2.96643,-0.44784 1.17236,1.36964 3.51481,3.38693 5.2056,4.48249 4.09042,2.65048 4.31896,3.73226 5.06591,23.7683 0.78399,21.02942 1.74372,28.01838 5.27134,38.36617 1.86794,5.47937 3.7322,9.21695 6.49571,13.01197 2.35368,3.23221 2.59438,4.19158 1.18328,4.73311 -1.15955,0.44498 -1.26244,2.75276 -0.12327,2.75276 0.45122,0 1.17139,-0.35378 1.60236,-0.78475 1.10187,-1.10187 1.75384,0.13694 2.55967,4.85639 1.97093,11.54242 1.31889,26.41573 -1.84889,42.17073 -2.11444,10.516 -5.81672,22.6289 -7.28866,23.8505 -1.51636,1.2585 -2.78974,4.115 -2.78974,6.2574 0,1.0684 -1.03468,4.1319 -2.30082,6.812 -4.32392,9.1523 -16.50111,19.4478 -27.42085,23.1808 -4.93841,1.6881 -6.01638,1.8171 -15.71541,1.8941 -6.61255,0.052 -11.09039,0.3671 -12.2683,0.8587 -2.58876,1.0805 -9.07572,5.8267 -11.67666,8.5418 -1.19615,1.2486 -2.4774,2.2579 -2.84317,2.2474 -0.76412,-0.023 -2.22257,-1.0618 -10.23454,-7.2928 -5.39537,-4.1961 -6.05725,-4.5304 -9.78259,-4.9386 -11.80489,-1.2933 -25.67589,-5.3418 -35.81062,-10.4522 -13.99917,-7.059 -23.51561,-16.0192 -30.3626,-28.5795 -3.21804,-5.9031 -3.19201,-7.0604 0.0862,-3.9073 l 2.59254,2.498 -1.28599,-2.5678 c -0.70745,-1.4125 -2.31166,-3.7984 -3.56627,-5.3001 -3.11672,-3.7304 -3.25504,-4.0518 -4.48249,-10.4688 -1.28526,-6.7198 -1.44531,-22.0181 -0.30816,-29.62715 1.27838,-8.55412 3.21959,-16.09341 4.14148,-16.09341 1.14421,0 1.51651,-1.34854 0.72721,-2.62541 -0.79087,-1.27945 0.14663,-4.59892 5.76029,-20.38689 6.03605,-16.97586 10.96051,-36.55993 12.5148,-49.78401 0.23274,-1.98052 0.66735,-3.75176 0.96553,-3.93603 0.29813,-0.18428 0.54644,-1.66692 0.54644,-3.29512 0.0105,-5.87985 1.87824,-18.64525 3.75527,-25.67879 2.85319,-10.69097 5.05247,-17.35475 5.73151,-17.35475 0.33201,0 0.60397,-0.72834 0.60397,-1.61879 0,-2.54004 4.13611,-10.84527 7.33386,-14.72937 4.29326,-5.21457 6.32938,-9.7912 9.10879,-20.45674 1.37311,-5.26922 3.51959,-11.67007 4.77008,-14.224 3.95006,-8.06763 11.35531,-14.23801 22.03858,-18.36548 3.92891,-1.51796 6.08088,-2.3821 7.95426,-2.35013 z M 297.87153,892.43718 c -0.0168,0.0368 -0.021,0.0545 -0.037,0.0905 -0.002,0.0189 -0.002,0.0307 -0.004,0.0492 0.0257,0.002 0.0522,0.002 0.078,0.004 -0.0126,-0.048 -0.0246,-0.0959 -0.037,-0.14389 z m -8.56645,57.05624 c -0.48186,0.30698 -0.96903,0.60662 -1.45444,0.908 0.31718,-0.0841 0.36418,-0.0976 0.69436,-0.18491 0.25258,-0.24086 0.50342,-0.48673 0.76008,-0.72311 z m 615.85968,47.18735 c 0.78545,0.76254 -6.30425,37.68043 -12.29707,64.04083 -7.56125,33.2598 -13.6454,56.6169 -19.15021,73.5194 -8.65497,26.5751 -13.93242,57.8426 -16.46318,97.5014 -0.38761,6.0742 -0.6785,24.5333 -0.64505,41.0203 0.0648,32.202 -0.13253,35.079 -3.18419,46.7026 -6.41362,24.4295 -21.70247,47.3616 -43.02945,64.538 -6.78078,5.4612 -76.67544,60.8995 -94.14461,74.6739 -66.52728,52.4564 -111.2524,85.0523 -128.3611,93.5489 l -5.93282,2.9459 -34.14253,0.3985 c -31.58734,0.369 -42.01334,0.7655 -65.69253,2.4857 -9.37567,0.6808 -42.44603,1.2775 -46.69843,0.8423 -13.0954,-1.3405 -24.86382,-4.6822 -35.14913,-9.9798 -27.51991,-14.1748 -98.30331,-63.7505 -155.42038,-108.8535 -30.1242,-23.7877 -37.42879,-30.4444 -52.64771,-47.9803 -22.66479,-26.1154 -31.17281,-38.0673 -35.75309,-50.2359 -2.74832,-7.3016 -2.9419,-10.2107 -1.49964,-22.3878 1.69704,-14.3285 2.29968,-43.7249 1.28187,-62.4755 -2.35168,-43.3249 -8.74663,-85.7248 -17.51499,-116.1175 -1.55214,-5.3799 -6.19651,-18.1877 -10.32082,-28.4603 -15.02976,-37.4357 -19.03962,-51.8183 -20.21023,-72.5128 -0.36321,-6.4213 -0.91976,-14.3606 -1.24082,-17.6424 -0.32109,-3.2818 -0.50593,-6.0431 -0.41085,-6.1382 0.0951,-0.095 2.00143,1.1902 4.23597,2.8555 11.80445,8.7971 26.58223,15.2486 42.24059,18.4435 4.36301,0.8902 10.50807,1.5078 17.98748,1.8078 l 11.3603,0.456 5.6781,2.609 5.6781,2.609 -0.21365,6.8079 c -0.92396,29.3895 10.24448,68.8807 31.46372,111.2529 5.66741,11.3171 15.44146,28.9956 18.89548,34.1795 2.37608,3.5662 2.38191,3.5874 2.7199,11.6767 0.51433,12.3098 2.69512,17.5189 9.458,22.5809 1.88111,1.408 4.86943,4.3022 6.63951,6.4299 3.94161,4.7381 7.33976,6.5409 12.30941,6.5409 h 3.56216 l 0.69023,2.683 c 1.21524,4.7222 2.65324,8.9258 3.90729,11.4219 1.92776,3.8371 5.96551,7.8003 9.22383,9.0471 3.15854,1.2088 9.49191,1.489 14.97997,0.6656 l 3.1965,-0.4766 1.14219,3.632 c 1.70375,5.433 3.92072,9.4497 7.09147,12.8394 3.79078,4.0527 7.21312,5.1953 14.69237,4.9016 l 5.5877,-0.2218 0.71902,4.4824 c 1.49345,9.2631 6.24182,15.7526 12.64629,17.2891 3.7598,0.9019 10.65494,0.5082 16.73024,-0.9573 6.14889,-1.4833 6.85751,-1.329 9.36764,2.0625 3.28257,4.435 9.17336,9.9545 12.40387,11.6191 3.41662,1.7605 10.64459,2.3329 14.27741,1.134 l 2.39121,-0.7889 2.20633,2.7775 c 1.21187,1.5257 4.39734,4.9743 7.07912,7.6666 6.35891,6.3838 10.93577,8.6799 17.27669,8.661 5.43343,-0.017 8.44174,-1.3006 12.22312,-5.218 l 2.75688,-2.8555 4.46194,3.7471 c 6.25478,5.2518 11.29338,7.6109 17.02196,7.9748 5.72417,0.3637 8.80694,-0.4632 13.57073,-3.6443 2.07222,-1.3838 3.89933,-2.5145 4.06341,-2.5145 0.16408,0 2.55264,2.2192 5.30833,4.9344 6.7835,6.684 10.76289,8.6366 17.58482,8.624 7.22949,-0.013 9.8481,-1.3827 17.0343,-8.9033 l 5.78081,-6.052 3.10611,1.5736 c 7.54174,3.8191 17.27248,4.7831 23.76417,2.3542 3.64797,-1.3648 8.24669,-5.6185 11.80813,-10.9248 l 2.03377,-3.028 2.62951,1.5202 c 5.6095,3.2429 9.85647,4.4178 16.20023,4.4783 5.35095,0.051 6.38037,-0.1312 9.58538,-1.705 4.8043,-2.3593 9.1102,-7.2077 12.82298,-14.4418 4.88653,-9.5211 4.4003,-9.1019 11.02338,-9.6018 10.84711,-0.8189 16.69343,-3.5633 23.29171,-10.933 l 3.95659,-4.4167 4.89745,-0.378 c 8.72597,-0.6729 14.05607,-3.2871 16.50839,-8.094 0.71205,-1.3957 1.69822,-4.8425 2.194,-7.6626 0.49577,-2.8199 1.25919,-5.4799 1.69685,-5.9122 0.43772,-0.4324 3.72065,-1.2231 7.29276,-1.7544 7.639,-1.1364 14.44431,-3.361 17.56842,-5.7439 3.52075,-2.6853 4.64052,-5.048 4.64683,-9.762 v -4.1004 l 6.15469,-0.01 c 5.0869,-0.01 6.59569,-0.2468 8.71846,-1.3764 3.35092,-1.783 6.98873,-5.8619 8.83351,-9.9017 1.50463,-3.295 3.43069,-9.9134 3.43069,-11.7959 0,-0.7932 0.8248,-1.1411 3.45534,-1.4503 4.62735,-0.5439 10.35339,-2.7483 12.37102,-4.766 2.39028,-2.3902 4.32886,-8.1873 5.53429,-16.5289 l 1.06001,-7.3256 3.54984,-3.8375 c 7.27543,-7.8582 13.23936,-19.6664 19.53643,-38.6907 7.74028,-23.3847 14.45108,-54.1753 19.79527,-90.8413 1.66814,-11.445 2.50763,-15.6213 3.25401,-16.1797 1.56628,-1.1719 13.54706,-3.7935 31.15557,-6.8203 20.86522,-3.5866 32.59243,-7.5871 50.28525,-17.1535 l 5.20971,-2.8185 6.80387,-12.1984 c 3.74156,-6.71 6.90149,-12.10547 7.0216,-11.98893 z m -703.92767,52.68053 c 1.42322,0 15.29268,9.4243 21.50856,14.6144 14.59445,12.1859 22.88127,24.1748 24.95978,36.1105 0.90769,5.2123 0.48131,9.4659 -1.60646,16.003 -0.86097,2.6958 -1.56933,5.5475 -1.5736,6.3396 -0.0105,1.9425 1.6569,5.8082 3.22527,7.4777 l 1.27777,1.3599 -1.34351,4.3264 c -5.0235,16.1795 -4.90799,29.3449 0.34512,39.759 2.17418,4.3103 2.23138,4.5878 1.31065,6.3683 -0.52952,1.0239 -1.1951,3.9335 -1.47499,6.467 l -0.50537,4.6057 -4.60164,-8.135 c -27.0937,-47.9029 -42.41725,-93.7062 -42.41725,-126.8081 0,-6.8981 0.16976,-8.4884 0.89567,-8.4884 z m 595.02081,1.1751 -0.45606,4.6181 c -0.2494,2.5408 -1.42208,10.7097 -2.60896,18.1518 -8.15705,51.147 -18.9158,89.6964 -30.45299,109.1164 -2.95845,4.9797 -4.51444,6.607 -4.5359,4.7495 -0.008,-0.6499 -0.40501,-4.1618 -0.88747,-7.8063 -0.48246,-3.6445 -0.83269,-6.6538 -0.77652,-6.6847 0.0562,-0.031 1.44538,-0.6896 3.08557,-1.4668 2.58238,-1.2236 3.25701,-1.9756 5.04537,-5.6082 l 2.06663,-4.1949 0.22186,-11.3768 c 0.15441,-7.8426 -0.0987,-14.1895 -0.8176,-20.4403 -0.57345,-4.9865 -0.89519,-9.2161 -0.71492,-9.3964 0.18028,-0.1802 1.67649,-1.2118 3.32387,-2.2926 7.29007,-4.7828 8.38712,-10.9324 5.51374,-30.8721 -1.27024,-8.8151 -0.77149,-13.4106 2.12006,-19.5898 2.87748,-6.149 10.37417,-12.9408 17.63414,-15.9743 z m -36.468,67.299 0.84639,5.6781 c 0.47861,3.2138 0.89039,11.843 0.94908,19.8774 0.11991,16.3503 -0.33603,18.9491 -4.0059,22.8069 -2.3054,2.423 -2.3533,2.4405 -7.21882,2.4405 -4.43367,0 -4.85001,-0.1056 -4.4003,-1.1052 0.27326,-0.6074 0.61271,-3.7023 0.75597,-6.8778 0.31567,-6.9973 -1.1939,-13.5953 -4.95088,-21.6154 l -2.48571,-5.3001 3.0938,-3.2664 c 1.7007,-1.7982 3.97836,-4.8431 5.0618,-6.7627 2.92715,-5.1867 3.91036,-5.8649 8.47604,-5.8712 z m -502.13342,11.6849 c 2.81858,-0.015 7.73885,2.2111 9.14987,4.1373 2.15188,2.9377 2.0564,5.4038 -0.3821,9.8196 -4.93426,8.9353 -7.20437,18.998 -6.5861,29.1999 0.35993,5.9385 1.44427,11.4664 2.51859,12.8394 0.41809,0.5342 0.3773,0.7888 -0.12727,0.7888 -0.40987,0 -1.86979,-1.2366 -3.2458,-2.7486 -7.51973,-8.2627 -9.75929,-13.9783 -9.67577,-24.701 0.0591,-7.5926 1.01522,-12.7983 4.19488,-22.8274 l 2.05842,-6.4998 z m 473.31977,2.6705 c 0.10918,-0.019 0.19837,-0.015 0.27115,0.013 1.35067,0.5183 6.99961,11.9061 8.99377,18.1313 2.31834,7.2373 2.52904,15.382 0.50534,19.5652 -0.75559,1.5619 -1.94741,4.8304 -2.65006,7.264 -1.4424,4.9958 -4.06294,8.1158 -7.68308,9.154 -1.19003,0.3413 -3.26257,0.6204 -4.60987,0.6204 -2.43067,0 -2.44982,-0.015 -2.02554,-2.0502 2.08049,-9.9801 0.3546,-22.1068 -5.12754,-36.0243 -1.20714,-3.0645 -2.09751,-5.6389 -1.98034,-5.7232 0.11717,-0.084 1.49077,-0.885 3.05269,-1.7791 1.56193,-0.894 4.58736,-3.3985 6.72168,-5.5671 2.14048,-2.175 3.76785,-3.4653 4.5318,-3.6033 z m -456.95928,9.6224 2.71167,0.066 c 3.24103,0.074 5.46932,2.1665 7.24348,6.8121 l 1.12164,2.9459 -2.55554,5.185 c -5.19373,10.5391 -7.25484,21.4706 -5.92873,31.4309 0.90567,6.8023 3.29192,13.6868 5.27135,15.21 1.35937,1.0463 1.37208,1.1115 0.1889,1.0559 -3.64498,-0.1708 -7.73528,-1.7081 -10.12771,-3.8086 -4.05924,-3.5641 -5.63051,-7.2924 -6.204,-14.7212 -0.134,-1.7355 -0.5754,-5.5443 -0.98196,-8.4678 -1.39957,-10.0636 0.88543,-21.1611 6.29029,-30.5475 z m 433.87301,1.5777 c 2.36517,0 2.45925,0.092 4.2483,4.0799 4.85107,10.8121 7.86223,23.6585 7.46945,31.8745 -0.23211,4.8551 -0.49793,5.8601 -2.25562,8.5952 -4.3809,6.817 -5.04819,7.3834 -10.31261,8.7144 -1.87526,0.4741 -4.75662,1.0028 -6.40532,1.175 l -2.99928,0.3123 v -2.9376 c 0,-9.064 -2.7901,-21.3012 -7.70774,-33.7933 l -3.21705,-8.1721 2.53912,-2.2515 c 4.91859,-4.3648 12.84408,-7.5968 18.64075,-7.5968 z m -413.88465,10.7317 c 5.25208,0 9.92703,2.2987 12.92978,6.3601 l 1.4257,1.9311 -3.11843,4.844 c -6.29658,9.7864 -9.33227,16.3222 -11.58629,24.9475 -1.50128,5.7448 -1.8623,17.09 -0.64092,20.1322 0.38317,0.9545 0.49003,1.7043 0.23829,1.6639 -1.94968,-0.3119 -2.66649,-0.8225 -2.66649,-1.8981 0,-2.1489 -1.75392,-4.7629 -3.75527,-5.5919 -1.33985,-0.5549 -1.92283,-1.2264 -1.92283,-2.2186 0,-0.7832 -0.43176,-2.4523 -0.9573,-3.7101 -5.00842,-11.9868 -2.88954,-31.4829 4.72491,-43.4896 1.8689,-2.9472 1.91245,-2.9705 5.32885,-2.9705 z m 381.26642,1.2613 c 3.2603,0 7.47885,3.289 9.12522,7.112 4.72592,10.9744 8.18845,25.1186 8.18845,33.4441 0,2.8634 -0.25811,3.641 -1.65987,4.9303 -0.91488,0.8415 -2.6302,3.0216 -3.80868,4.8441 -3.09016,4.7787 -5.76157,7.6418 -8.35279,8.9485 -3.08978,1.5581 -4.52461,1.8683 -6.31083,1.3764 -1.45458,-0.4006 -1.51209,-0.6249 -1.39281,-5.4521 0.15293,-6.1925 -2.08722,-19.6636 -5.54663,-33.3701 -2.79083,-11.0575 -2.83499,-10.3652 1.04358,-15.7072 2.70097,-3.7203 6.12364,-6.126 8.71436,-6.126 z m -65.76237,4.5359 c 4.97974,-0.063 10.95273,4.2499 16.82476,12.1985 2.75656,3.7314 2.78824,3.8387 3.90728,12.6052 1.76804,13.8506 3.54725,31.4706 4.02232,39.8412 0.41134,7.2481 0.3532,7.8085 -1.07235,10.6988 -1.85191,3.7545 -7.61386,9.7232 -10.8426,11.2288 -1.31934,0.6152 -3.31055,1.2104 -4.42088,1.323 -2.79784,0.2839 -8.50682,-0.4883 -11.25758,-1.5243 -2.25031,-0.8475 -2.30988,-0.9599 -3.04036,-5.6535 -1.83878,-11.815 -6.32664,-26.2512 -13.04482,-41.9612 -2.21151,-5.1713 -4.01823,-10.0121 -4.01823,-10.7563 0,-2.2458 7.2606,-16.1824 10.53036,-20.2102 3.52447,-4.3418 7.80716,-7.2342 11.43014,-7.7201 0.32286,-0.043 0.64999,-0.066 0.98196,-0.07 z m -288.46942,3.1719 c 1.4895,7e-4 2.91977,0.1577 3.94837,0.4971 2.87405,0.9485 7.88032,5.7573 7.88032,7.5681 0,0.7102 -1.24041,3.7696 -2.76098,6.7997 -3.65107,7.2758 -9.41922,21.9161 -11.122,28.2303 -0.74883,2.7767 -1.51755,7.4972 -1.70919,10.4933 l -0.34924,5.4481 -2.84725,0.3903 c -1.56456,0.2145 -3.44184,0.3763 -4.17435,0.3615 -2.41966,-0.052 -11.25401,-5.5514 -12.11628,-7.5434 -0.22538,-0.5206 -0.55442,-3.6801 -0.73134,-7.0216 -0.46847,-8.8425 1.76138,-17.6955 7.17774,-28.5137 2.4738,-4.941 8.9717,-14.5838 10.4482,-15.5059 1.22791,-0.7668 3.8735,-1.205 6.356,-1.2038 z m 324.05408,1.9105 c 0.39314,0.01 0.80749,0.058 1.27777,0.1439 2.71681,0.4968 6.35843,2.5642 9.836,5.5877 2.22356,1.9333 2.58687,2.7257 4.26063,9.3142 3.93517,15.4902 6.52747,33.1078 5.12344,34.7999 -0.36666,0.442 -1.39044,2.729 -2.27617,5.0823 -2.24129,5.955 -5.67723,10.9016 -8.87871,12.7778 -3.2112,1.8819 -6.97413,1.9984 -11.07269,0.3451 l -2.84316,-1.1463 -0.48481,-5.6041 c -2.57741,-29.6321 -4.51498,-46.8985 -5.5343,-49.3362 -1.0628,-2.5417 2.51827,-8.1398 6.8244,-10.67 1.61599,-0.9495 2.58813,-1.3149 3.7676,-1.2942 z m -295.10073,5.8301 c 6.41542,-0.1584 11.76659,3.7245 15.48535,11.3069 l 1.70918,3.4882 -2.9582,6.1793 c -1.62649,3.397 -3.9626,9.1433 -5.19328,12.7696 -2.29348,6.7578 -5.95518,23.34 -5.9657,27.01 -0.002,1.1617 -0.33062,2.0502 -0.75597,2.0502 -0.41298,0 -2.70488,1.1798 -5.09056,2.6213 -4.84823,2.9292 -8.94016,3.6778 -12.14505,2.2186 -1.87499,-0.8537 -8.00559,-7.0141 -11.3644,-11.4178 -1.68398,-2.2078 -1.73388,-2.4749 -1.40515,-8.1063 0.51877,-8.8865 4.44547,-20.7951 12.2642,-37.1952 3.24082,-6.7977 3.73264,-7.4853 6.14646,-8.6199 1.44278,-0.6781 4.34789,-1.5732 6.45873,-1.9885 0.95834,-0.1885 1.89792,-0.2938 2.81439,-0.3164 z m 46.41906,1.2079 c 1.33739,0.084 2.46313,0.5232 3.35262,1.3271 3.76245,3.4006 5.3485,10.2918 4.90978,21.3155 -0.28702,7.2134 -0.51541,8.3344 -3.51286,17.1822 -3.69208,10.898 -5.18505,18.8043 -5.18505,27.4783 v 6.1136 l -3.82102,1.7133 c -3.75058,1.6833 -11.55372,2.7373 -13.846,1.8694 -4.99312,-1.8904 -10.05438,-5.0259 -14.97997,-9.2772 -4.58324,-3.9557 -5.7703,-5.3132 -5.55485,-6.3642 0.15062,-0.7352 0.58853,-3.3265 0.97374,-5.7562 1.82067,-11.4852 5.78839,-23.9449 10.94121,-34.3603 3.82234,-7.7257 3.97845,-7.9323 9.684,-12.6586 7.11288,-5.8921 13.02625,-8.836 17.0384,-8.5829 z m 351.68444,0.3821 c 2.90323,0 2.80392,-0.2097 3.80456,8.1885 0.86179,7.2328 0.81069,13.4749 -0.11906,14.4048 -0.58899,0.5889 -0.58899,0.9271 0,1.516 1.01533,1.0153 0.95573,4.4128 -0.18491,10.3743 -1.94859,10.1841 -3.73893,13.1474 -9.08413,15.0334 -4.95997,1.7499 -4.79448,2.0033 -4.88922,-7.3914 -0.0463,-4.5989 -0.56871,-12.0481 -1.16275,-16.5536 l -1.08056,-8.1926 1.47909,-0.9573 c 3.10347,-2.0103 5.01687,-4.8037 6.28206,-9.1663 2.10712,-7.2658 2.10136,-7.2558 4.95498,-7.2558 z m -494.12985,11.3603 c 1.16719,0 7.09118,7.1306 8.38565,10.0949 1.49628,3.4264 1.50255,3.5576 0.64507,10.0989 -0.52596,4.0121 -0.79562,10.6726 -0.68203,16.8823 0.10287,5.6406 0.10771,10.2554 0.008,10.2551 -0.0995,-4e-4 -1.84863,-1.6321 -3.88673,-3.6279 -2.91463,-2.8542 -3.92798,-4.3696 -4.74134,-7.0997 -2.35613,-7.9084 -3.11582,-30.2979 -1.16685,-34.3849 0.58165,-1.2197 1.23019,-2.2187 1.43802,-2.2187 z m 273.59215,0.6574 c 4.70724,0 10.26164,4.1739 15.30045,11.4959 4.75918,6.9156 5.05163,7.7218 7.69542,21.1347 3.03449,15.3953 4.60602,27.0317 4.70026,34.8286 l 0.0698,5.9534 -3.78403,2.6994 c -5.26607,3.7488 -12.12936,7.0086 -17.8026,8.4596 -10.69261,2.7347 -20.11782,1.053 -30.17771,-5.3823 l -3.65256,-2.3337 0.43551,-13.6734 c 0.23824,-7.5188 0.79645,-18.1158 1.24079,-23.5506 l 0.80531,-9.8812 3.31564,-6.812 c 7.27177,-14.9566 14.87385,-22.9384 21.85368,-22.9384 z m -96.33863,0.6163 c 5.04817,-0.047 9.59343,7.3927 11.85744,19.4132 l 1.10934,5.8999 -2.35013,9.2649 c -3.9307,15.5121 -4.93408,21.3689 -5.296,30.8228 l -0.34512,8.928 -5.11932,0.9902 c -6.53977,1.2652 -10.01666,1.5135 -13.95694,0.9861 -5.64295,-0.7554 -10.58712,-3.7968 -14.01036,-8.6117 -2.07155,-2.9138 -2.08306,-2.9651 -2.08306,-10.3578 0,-11.1005 1.52602,-18.1397 7.57217,-34.9437 3.30851,-9.1954 16.58237,-22.3351 22.62198,-22.3919 z m 44.54963,1.2572 c 7.4197,-0.019 14.11615,7.9898 18.9941,22.7124 l 1.77902,5.3617 -0.77242,12.6217 c -0.42478,6.9419 -0.93962,17.4527 -1.1422,23.3533 -0.41525,12.0987 -0.23489,11.6309 -5.87941,15.4196 -4.16293,2.7943 -8.59607,4.7004 -13.12699,5.6494 -1.83935,0.3852 -4.53641,0.681 -5.99446,0.6532 -6.13008,-0.1159 -15.98912,-3.4648 -18.26688,-6.204 -0.60401,-0.7264 -1.61366,-1.3188 -2.24329,-1.3188 -0.62963,0 -2.45825,-0.8351 -4.06341,-1.853 -2.6039,-1.6514 -2.96251,-2.1659 -3.35674,-4.7948 -1.05486,-7.0341 2.45756,-27.539 7.56806,-44.1552 0.5337,-1.7354 0.97153,-3.7539 0.97784,-4.4825 0.0105,-1.9111 6.73285,-10.661 12.03412,-15.662 5.04462,-4.7588 9.73097,-7.2904 13.49266,-7.301 z m 91.81916,0.7601 c 2.76766,-0.052 5.8418,0.7943 9.36351,2.5186 4.95147,2.4243 5.26849,2.9277 11.45069,18.4846 6.20184,15.6064 11.22197,33.9693 9.82368,35.9216 -0.34015,0.4749 -1.99012,2.8546 -3.66488,5.2919 -3.70338,5.3893 -9.88218,11.4417 -13.64469,13.3612 -1.52981,0.7804 -4.36435,1.553 -6.29849,1.7173 -3.03254,0.2578 -4.03571,0.029 -7.30099,-1.6557 -6.65912,-3.4359 -6.37953,-2.8772 -6.81207,-13.6365 -0.20868,-5.1937 -0.96699,-13.1342 -1.68043,-17.6465 -1.69136,-10.697 -5.05393,-27.4753 -5.78081,-28.8424 -0.82811,-1.5575 1.91192,-7.3633 5.11523,-10.8385 2.82126,-3.0607 5.87083,-4.6091 9.42925,-4.6756 z m 160.09187,3.0116 c 2.50182,-5e-4 2.3881,0.7698 3.70597,12.6299 1.19444,10.7517 1.21062,17.6163 0.0492,21.714 -0.50051,1.7659 -1.39364,5.1664 -1.98446,7.5516 -1.7539,7.0809 -5.19608,12.5471 -9.22383,14.6513 -0.97086,0.5072 -3.51671,0.8875 -5.9164,0.8875 h -4.21131 l 0.43141,-2.0502 c 2.06048,-9.7865 2.61082,-20.2425 1.68452,-32.0266 -0.39556,-5.0329 -0.88177,-10.0437 -1.08056,-11.1344 -0.3351,-1.8389 -0.19185,-2.0385 1.95981,-2.7486 2.8369,-0.9363 6.34704,-3.9287 7.69541,-6.5615 1.34036,-2.6171 1.85736,-2.886 5.64524,-2.8965 0.47601,-10e-4 0.88749,-0.017 1.24489,-0.017 z m -23.37797,11.2658 c 0.62052,0.042 1.04429,0.1862 1.14629,0.452 0.16535,0.431 0.64396,4.8164 1.06413,9.7456 1.29259,15.1624 0.0168,33.173 -2.57197,36.2913 -0.56396,0.6797 -0.68575,2.1088 -0.40675,4.7783 0.53812,5.1485 -0.534,7.5828 -4.44141,10.062 -1.66846,1.0587 -4.73772,2.4465 -6.82029,3.0815 -4.92522,1.5024 -8.52628,2.1382 -8.50482,1.5078 0.008,-0.276 0.28813,-3.1983 0.61629,-6.4957 0.7034,-7.0687 -0.11002,-21.8731 -1.84066,-33.5139 l -1.16272,-7.8228 1.34351,-0.945 c 2.97523,-2.0938 6.22632,-5.5897 9.0718,-9.7538 1.64959,-2.414 3.90219,-4.9149 5.00427,-5.5548 2.01206,-1.1681 5.64076,-1.958 7.50233,-1.8325 z m -435.58633,1.5654 c 0.0732,-0.073 2.07856,0.8466 4.45374,2.042 2.37516,1.1955 4.92248,2.1775 5.66167,2.1775 0.73916,0 2.44138,0.3093 3.78403,0.6821 l 2.4405,0.6779 -0.42318,3.1924 c -0.233,1.7564 -1.11098,6.0639 -1.95158,9.5731 -1.40605,5.8696 -2.96548,16.6293 -2.64184,18.2216 0.0751,0.3698 -0.7172,0.8913 -1.75849,1.1545 -1.04128,0.2633 -2.47828,0.6605 -3.19239,0.8834 -1.54981,0.4837 -4.20463,-1.4337 -4.44961,-3.2129 -0.0909,-0.6593 -0.73035,-2.7625 -1.42158,-4.6715 -1.76343,-4.8702 -2.24917,-12.7784 -1.37639,-22.3919 0.40915,-4.5065 0.80192,-8.255 0.87512,-8.3282 z m 21.99751,13.4393 c 1.65955,0.1699 4.81214,1.6304 7.74472,3.7182 2.09197,1.4895 5.1608,3.3669 6.82027,4.1703 l 3.01983,1.4585 -0.49302,6.3355 c -0.79783,10.2518 -0.46328,25.4438 0.63683,28.8959 0.52478,1.6491 0.7688,3.1092 0.54233,3.2458 -0.22648,0.1365 -1.95219,0.7041 -3.83744,1.2613 -4.50982,1.3329 -6.13242,1.2769 -9.35119,-0.3164 -3.33192,-1.6492 -5.52752,-4.1998 -7.81456,-9.0841 -2.38625,-5.0962 -4.23406,-12.215 -3.32387,-12.8065 0.37882,-0.2461 0.87121,-3.1449 1.09289,-6.4423 0.35523,-5.2845 2.91194,-18.6087 3.8662,-20.1527 0.15777,-0.2551 0.54382,-0.3402 1.09701,-0.2835 z m 379.28606,2.6172 2.53501,0.341 c 1.39457,0.187 2.77645,0.5824 3.07324,0.8792 1.8119,1.8119 4.33108,35.328 3.28689,43.7279 -0.44983,3.6186 -0.71144,4.1907 -2.25563,4.9303 -2.49095,1.1932 -3.4492,2.9937 -4.23597,7.9379 -0.37979,2.3867 -1.06493,5.2294 -1.5202,6.319 -1.1167,2.6726 -4.88585,5.8769 -7.78991,6.619 -3.76314,0.9616 -7.74062,1.4894 -7.74062,1.0271 0,-0.233 0.55462,-2.602 1.23259,-5.2631 2.96142,-11.6239 3.17651,-24.8194 0.64915,-39.6029 -0.68889,-4.0294 -1.24901,-7.5716 -1.24901,-7.868 0,-0.2962 1.00529,-1.0146 2.23508,-1.5982 3.10435,-1.4731 6.13229,-5.4014 9.18275,-11.9108 z m -352.75268,7.4653 c 1.20863,0.1268 2.26615,1.3574 7.16541,6.9271 2.39079,2.7179 5.31154,5.2094 7.72007,6.582 l 3.87852,2.2104 -0.3862,13.2503 c -0.34953,12.0193 0.25359,24.1588 1.41745,28.5096 0.31258,1.1684 0.008,1.4766 -2.0584,2.0502 h -0.004 c -3.33176,0.9252 -5.24833,0.8468 -7.47355,-0.3081 -4.99689,-2.5935 -7.48596,-6.5667 -11.52875,-18.4066 l -2.96641,-8.6897 0.004,-12.9339 c 0.002,-7.1155 0.22496,-14.2559 0.49302,-15.8675 0.4441,-2.6699 0.6606,-2.9557 2.46928,-3.2211 0.27364,-0.04 0.51362,-0.079 0.73134,-0.099 0.19059,-0.017 0.36557,-0.022 0.53823,-0 z m 323.19126,9.1088 c 0.3931,0.01 2.70198,0.5374 5.13164,1.175 l 4.41676,1.1587 1.50374,6.8737 c 1.31019,5.9891 1.51249,8.6495 1.5777,20.7525 0.0679,12.6402 -0.0595,14.4122 -1.41335,19.783 -1.36604,5.4195 -1.79473,6.2561 -5.27544,10.3003 -4.79844,5.5752 -7.86324,7.7874 -12.97911,9.3676 -2.23996,0.6918 -5.98777,1.4378 -8.33224,1.6558 l -4.26475,0.3944 0.32459,-10.1031 c 0.36357,-11.3937 -0.44834,-21.9257 -2.73223,-35.4532 -0.84552,-5.0078 -1.54072,-9.1608 -1.54072,-9.2279 0,-0.067 1.49339,-0.3217 3.31564,-0.5629 6.83714,-0.9047 12.05962,-4.6314 16.89869,-12.0587 1.45913,-2.2395 2.97598,-4.0636 3.36908,-4.0552 z m -286.05768,2.3337 c 0.1584,-0.021 0.32328,-0.017 0.50125,0.013 1.18645,0.192 2.9356,1.5349 7.02161,4.844 2.60649,2.1109 5.40715,4.2699 6.22043,4.7989 1.46619,0.9537 1.4717,1.0039 0.67793,5.9944 -1.19193,7.4934 -1.04888,24.5967 0.26705,31.85 0.91595,5.0484 3.90913,15.0381 5.7233,19.0967 0.38105,0.8526 0.20237,1.1053 -0.79297,1.1053 -0.70921,0 -4.21832,0.7063 -7.79814,1.5736 -7.74716,1.8769 -8.87358,1.9136 -12.26419,0.3738 -4.58709,-2.083 -7.21964,-6.7834 -8.76365,-15.6373 -0.5031,-2.885 -1.33181,-5.8834 -1.84066,-6.6642 -1.94463,-2.9841 -2.98703,-23.8769 -1.85708,-37.2445 l 0.40675,-4.7742 2.24739,-0.4191 c 2.48785,-0.4667 6.55267,-2.3877 8.84584,-4.1784 0.51525,-0.4024 0.92987,-0.6711 1.40514,-0.7314 z m 247.88049,10.2715 c 1.68266,0 7.82553,2.3043 8.23775,3.0897 0.2927,0.5576 1.26414,5.1318 2.15702,10.1646 3.0785,17.3515 4.0267,30.5119 2.96642,41.1436 -0.71779,7.198 -0.82506,7.5427 -4.32636,14.0474 -4.26353,7.9207 -7.90315,12.3414 -11.65613,14.1582 -3.42196,1.6566 -8.42276,1.7139 -12.76132,0.1439 -3.41958,-1.2375 -9.77849,-4.9444 -9.77849,-5.6986 0,-0.2562 0.71428,-2.8603 1.59003,-5.785 3.78296,-12.6338 5.50562,-30.5262 4.14148,-43.0458 -0.408,-3.7449 -0.89052,-7.197 -1.07236,-7.6708 -0.21652,-0.5642 0.98053,-1.5606 3.47179,-2.8883 4.53263,-2.416 10.38884,-8.0976 14.05965,-13.6406 1.4631,-2.2094 2.79908,-4.0182 2.97052,-4.0182 z m -205.5495,2.3871 1.03947,1.4914 c 0.57252,0.8182 1.96111,2.5058 3.08558,3.7512 l 2.04607,2.2638 0.2835,19.1913 c 0.2867,19.3981 1.27748,31.2783 3.22525,38.6867 0.53775,2.0452 0.90058,3.7562 0.80528,3.8004 -0.0953,0.044 -1.53022,0.7133 -3.18827,1.4873 -1.65797,0.7741 -3.78788,1.4074 -4.73311,1.4011 -5.24903,-0.023 -15.49519,-9.8594 -19.35154,-18.5792 -5.04317,-11.4035 -7.0173,-23.0891 -6.40944,-37.8936 0.22801,-5.5536 0.57965,-11.189 0.78475,-12.5231 0.3447,-2.2418 0.49998,-2.3984 2.03377,-2.0296 0.91273,0.2195 4.38865,0.5683 7.72417,0.7724 4.81301,0.2946 6.74452,0.1454 9.35941,-0.7231 z m 162.16261,11.3233 5.61236,2.6665 c 3.08593,1.4665 6.75603,2.8198 8.15558,3.0075 1.39955,0.1876 2.81435,0.668 3.14308,1.0641 2.40022,2.892 2.46821,30.5051 0.10266,41.4846 -1.90517,8.843 -3.76569,14.5227 -5.34118,16.3194 -0.76084,0.8678 -2.48434,3.2272 -3.82924,5.2426 -3.07873,4.6135 -7.12363,8.203 -10.32492,9.1622 -4.65771,1.3954 -9.83683,0.397 -17.05483,-3.291 -2.59501,-1.3259 -3.27405,-1.9673 -2.9582,-2.7898 3.51671,-9.1554 6.68983,-31.7739 7.68309,-54.8088 l 0.42321,-9.8278 2.24328,-0.9408 c 1.23509,-0.5161 4.4758,-2.3664 7.19829,-4.1128 z m -149.89431,0.1725 c 0.31055,2e-4 2.12973,0.5983 4.03875,1.3271 5.03528,1.9222 13.8845,2.2279 20.97856,0.7231 l 5.52197,-1.171 3.15541,1.8201 c 3.72244,2.1492 3.45231,-0.4712 2.47748,23.8957 -0.63228,15.8047 -0.11654,35.7506 1.03127,39.985 0.36773,1.3566 -4.32266,7.7077 -7.29278,9.8771 -5.59366,4.0856 -13.83263,-0.3614 -23.10682,-12.4696 -2.30856,-3.0142 -3.40999,-4.986 -3.15541,-5.6494 0.2152,-0.5607 -0.0427,-2.5191 -0.57519,-4.351 -1.92385,-6.6179 -2.88598,-17.0677 -3.26223,-35.5271 -0.21831,-10.7173 -0.13884,-18.4602 0.1889,-18.46 z m 90.1264,3.1554 c 0.49181,0 3.82947,1.4159 7.41604,3.1472 3.5865,1.7312 8.36874,3.6324 10.62485,4.2237 4.73457,1.2407 15.37958,1.4234 19.18721,0.3286 l 2.46516,-0.7107 -0.42731,9.9181 c -0.68224,15.9755 -2.75301,33.7918 -5.11521,43.9991 -1.5577,6.7308 -2.91009,9.8738 -5.27545,12.256 -1.27428,1.2834 -4.10675,4.2518 -6.29439,6.5984 -2.18765,2.3466 -4.94878,4.6734 -6.13414,5.1686 -3.07747,1.2859 -6.49798,1.0983 -9.72508,-0.53 -2.6727,-1.3485 -8.5321,-6.6432 -12.23542,-11.0563 -0.95609,-1.1392 -2.51436,-2.2252 -3.46767,-2.4158 l -1.73383,-0.3492 1.7215,-5.1522 c 3.77444,-11.2867 8.08755,-44.023 8.09807,-61.4812 0.002,-2.9814 0.21972,-3.9443 0.89567,-3.9443 z m -6.38888,4.3921 -0.43961,8.057 c -1.37179,25.1444 -5.26662,48.4341 -9.61004,57.4589 -0.95678,1.9879 -1.75388,4.0246 -1.77492,4.5277 -0.021,0.503 -1.56167,1.7108 -3.42248,2.6829 -3.92091,2.0483 -4.94638,2.1203 -9.24847,0.6327 -5.30399,-1.8341 -14.38212,-9.0355 -15.86334,-12.5806 -2.03675,-4.8746 -2.64724,-37.2574 -1.0559,-56.0825 l 0.3821,-4.5235 3.54161,1.5694 c 5.58526,2.4738 12.37304,3.9649 18.04501,3.9649 5.70315,0 10.08985,-1.0775 15.72774,-3.8662 z"
     id="path3776"
     inkscape:connector-curvature="0" />
</svg>
